%TF.GenerationSoftware,KiCad,Pcbnew,(6.0.0)*%
%TF.CreationDate,2022-01-14T20:24:59+07:00*%
%TF.ProjectId,fese75,66657365-3735-42e6-9b69-6361645f7063,rev?*%
%TF.SameCoordinates,Original*%
%TF.FileFunction,Copper,L2,Bot*%
%TF.FilePolarity,Positive*%
%FSLAX46Y46*%
G04 Gerber Fmt 4.6, Leading zero omitted, Abs format (unit mm)*
G04 Created by KiCad (PCBNEW (6.0.0)) date 2022-01-14 20:24:59*
%MOMM*%
%LPD*%
G01*
G04 APERTURE LIST*
G04 Aperture macros list*
%AMRoundRect*
0 Rectangle with rounded corners*
0 $1 Rounding radius*
0 $2 $3 $4 $5 $6 $7 $8 $9 X,Y pos of 4 corners*
0 Add a 4 corners polygon primitive as box body*
4,1,4,$2,$3,$4,$5,$6,$7,$8,$9,$2,$3,0*
0 Add four circle primitives for the rounded corners*
1,1,$1+$1,$2,$3*
1,1,$1+$1,$4,$5*
1,1,$1+$1,$6,$7*
1,1,$1+$1,$8,$9*
0 Add four rect primitives between the rounded corners*
20,1,$1+$1,$2,$3,$4,$5,0*
20,1,$1+$1,$4,$5,$6,$7,0*
20,1,$1+$1,$6,$7,$8,$9,0*
20,1,$1+$1,$8,$9,$2,$3,0*%
G04 Aperture macros list end*
%TA.AperFunction,SMDPad,CuDef*%
%ADD10R,2.550000X2.500000*%
%TD*%
%TA.AperFunction,ComponentPad*%
%ADD11C,1.000000*%
%TD*%
%TA.AperFunction,ComponentPad*%
%ADD12C,0.700000*%
%TD*%
%TA.AperFunction,ComponentPad*%
%ADD13O,0.900000X2.400000*%
%TD*%
%TA.AperFunction,ComponentPad*%
%ADD14O,0.900000X1.700000*%
%TD*%
%TA.AperFunction,ComponentPad*%
%ADD15R,1.000000X1.000000*%
%TD*%
%TA.AperFunction,SMDPad,CuDef*%
%ADD16R,1.200000X0.900000*%
%TD*%
%TA.AperFunction,ComponentPad*%
%ADD17C,2.000000*%
%TD*%
%TA.AperFunction,ComponentPad*%
%ADD18R,2.000000X2.000000*%
%TD*%
%TA.AperFunction,SMDPad,CuDef*%
%ADD19RoundRect,0.200000X-0.200000X-0.275000X0.200000X-0.275000X0.200000X0.275000X-0.200000X0.275000X0*%
%TD*%
%TA.AperFunction,SMDPad,CuDef*%
%ADD20RoundRect,0.200000X0.200000X0.275000X-0.200000X0.275000X-0.200000X-0.275000X0.200000X-0.275000X0*%
%TD*%
%TA.AperFunction,SMDPad,CuDef*%
%ADD21RoundRect,0.225000X0.250000X-0.225000X0.250000X0.225000X-0.250000X0.225000X-0.250000X-0.225000X0*%
%TD*%
%TA.AperFunction,SMDPad,CuDef*%
%ADD22RoundRect,0.225000X0.225000X0.250000X-0.225000X0.250000X-0.225000X-0.250000X0.225000X-0.250000X0*%
%TD*%
%TA.AperFunction,SMDPad,CuDef*%
%ADD23RoundRect,0.250000X0.625000X-0.375000X0.625000X0.375000X-0.625000X0.375000X-0.625000X-0.375000X0*%
%TD*%
%TA.AperFunction,SMDPad,CuDef*%
%ADD24RoundRect,0.225000X-0.225000X-0.250000X0.225000X-0.250000X0.225000X0.250000X-0.225000X0.250000X0*%
%TD*%
%TA.AperFunction,SMDPad,CuDef*%
%ADD25R,1.200000X1.400000*%
%TD*%
%TA.AperFunction,SMDPad,CuDef*%
%ADD26R,0.550000X1.500000*%
%TD*%
%TA.AperFunction,SMDPad,CuDef*%
%ADD27R,1.500000X0.550000*%
%TD*%
%TA.AperFunction,ViaPad*%
%ADD28C,0.800000*%
%TD*%
%TA.AperFunction,Conductor*%
%ADD29C,0.250000*%
%TD*%
%TA.AperFunction,Conductor*%
%ADD30C,0.254000*%
%TD*%
%TA.AperFunction,Conductor*%
%ADD31C,0.381000*%
%TD*%
%TA.AperFunction,Conductor*%
%ADD32C,0.200000*%
%TD*%
G04 APERTURE END LIST*
D10*
%TO.P,R1,1,COL*%
%TO.N,COL5*%
X121096250Y-105453750D03*
%TO.P,R1,2,ROW*%
%TO.N,Net-(D35-Pad2)*%
X134023250Y-102913750D03*
%TD*%
%TO.P,H1,1,COL*%
%TO.N,COL7*%
X163958750Y-124503750D03*
%TO.P,H1,2,ROW*%
%TO.N,Net-(D53-Pad2)*%
X176885750Y-121963750D03*
%TD*%
%TO.P,/1,1,COL*%
%TO.N,COL11*%
X249683750Y-143553750D03*
%TO.P,/1,2,ROW*%
%TO.N,Net-(/1-Pad2)*%
X262610750Y-141013750D03*
%TD*%
%TO.P,[1,1,COL*%
%TO.N,COL12*%
X254446250Y-105453750D03*
%TO.P,[1,2,ROW*%
%TO.N,Net-(D42-Pad2)*%
X267373250Y-102913750D03*
%TD*%
%TO.P,MX8,1,COL*%
%TO.N,COL9*%
X187771250Y-86403750D03*
%TO.P,MX8,2,ROW*%
%TO.N,Net-(D24-Pad2)*%
X200698250Y-83863750D03*
%TD*%
%TO.P,UP1,1,COL*%
%TO.N,COL14*%
X306833750Y-148316250D03*
%TO.P,UP1,2,ROW*%
%TO.N,Net-(D73-Pad2)*%
X319760750Y-145776250D03*
%TD*%
%TO.P,F7,1,COL*%
%TO.N,COL8*%
X178289106Y-57828750D03*
%TO.P,F7,2,ROW*%
%TO.N,Net-(D8-Pad2)*%
X191216106Y-55288750D03*
%TD*%
%TO.P,WIN1,1,COL*%
%TO.N,COL2*%
X61565000Y-162603750D03*
%TO.P,WIN1,2,ROW*%
%TO.N,Net-(D76-Pad2)*%
X74492000Y-160063750D03*
%TD*%
%TO.P,MX6,1,COL*%
%TO.N,COL7*%
X149671250Y-86403750D03*
%TO.P,MX6,2,ROW*%
%TO.N,Net-(D22-Pad2)*%
X162598250Y-83863750D03*
%TD*%
%TO.P,TAB1,1,COL*%
%TO.N,COL1*%
X40133750Y-105453750D03*
%TO.P,TAB1,2,ROW*%
%TO.N,Net-(D31-Pad2)*%
X53060750Y-102913750D03*
%TD*%
%TO.P,MX7,1,COL*%
%TO.N,COL8*%
X168721250Y-86403750D03*
%TO.P,MX7,2,ROW*%
%TO.N,Net-(D23-Pad2)*%
X181648250Y-83863750D03*
%TD*%
%TO.P,MX5,1,COL*%
%TO.N,COL6*%
X130621250Y-86403750D03*
%TO.P,MX5,2,ROW*%
%TO.N,Net-(D21-Pad2)*%
X143548250Y-83863750D03*
%TD*%
%TO.P,Q1,1,COL*%
%TO.N,COL2*%
X63946250Y-105453750D03*
%TO.P,Q1,2,ROW*%
%TO.N,Net-(D32-Pad2)*%
X76873250Y-102913750D03*
%TD*%
%TO.P,BACK1,1,COL*%
%TO.N,COL14*%
X292546250Y-86403750D03*
%TO.P,BACK1,2,ROW*%
%TO.N,Net-(BACK1-Pad2)*%
X305473250Y-83863750D03*
%TD*%
%TO.P,E1,1,COL*%
%TO.N,COL4*%
X102046250Y-105453750D03*
%TO.P,E1,2,ROW*%
%TO.N,Net-(D34-Pad2)*%
X114973250Y-102913750D03*
%TD*%
%TO.P,;1,1,COL*%
%TO.N,COL11*%
X240158750Y-124503750D03*
%TO.P,;1,2,ROW*%
%TO.N,Net-(;1-Pad2)*%
X253085750Y-121963750D03*
%TD*%
%TO.P,\u002C1,1,COL*%
%TO.N,COL9*%
X211583750Y-143553750D03*
%TO.P,\u002C1,2,ROW*%
%TO.N,Net-(\u002C1-Pad2)*%
X224510750Y-141013750D03*
%TD*%
%TO.P,P1,1,COL*%
%TO.N,COL11*%
X235396250Y-105453750D03*
%TO.P,P1,2,ROW*%
%TO.N,Net-(D41-Pad2)*%
X248323250Y-102913750D03*
%TD*%
%TO.P,ALT2,1,COL*%
%TO.N,COL10*%
X225871250Y-162603750D03*
%TO.P,ALT2,2,ROW*%
%TO.N,Net-(ALT2-Pad2)*%
X238798250Y-160063750D03*
%TD*%
%TO.P,X1,1,COL*%
%TO.N,COL3*%
X97283750Y-143553750D03*
%TO.P,X1,2,ROW*%
%TO.N,Net-(D63-Pad2)*%
X110210750Y-141013750D03*
%TD*%
%TO.P,ENTER1,1,COL*%
%TO.N,COL13*%
X290165000Y-124503750D03*
%TO.P,ENTER1,2,ROW*%
%TO.N,Net-(D59-Pad2)*%
X303092000Y-121963750D03*
%TD*%
D11*
%TO.P,TP1,1,1*%
%TO.N,Net-(R2-Pad2)*%
X194600000Y-176300000D03*
%TD*%
D10*
%TO.P,OPT3,1,COL*%
%TO.N,COL15*%
X330646250Y-105466250D03*
%TO.P,OPT3,2,ROW*%
%TO.N,Net-(D45-Pad2)*%
X343573250Y-102926250D03*
%TD*%
%TO.P,F5,1,COL*%
%TO.N,COL6*%
X140146250Y-57828750D03*
%TO.P,F5,2,ROW*%
%TO.N,Net-(D6-Pad2)*%
X153073250Y-55288750D03*
%TD*%
%TO.P,F9,1,COL*%
%TO.N,COL10*%
X221120656Y-57828750D03*
%TO.P,F9,2,ROW*%
%TO.N,Net-(D10-Pad2)*%
X234047656Y-55288750D03*
%TD*%
%TO.P,OPT2,1,COL*%
%TO.N,COL15*%
X330646250Y-86403750D03*
%TO.P,OPT2,2,ROW*%
%TO.N,Net-(D30-Pad2)*%
X343573250Y-83863750D03*
%TD*%
%TO.P,ALT1,1,COL*%
%TO.N,COL3*%
X85377500Y-162603750D03*
%TO.P,ALT1,2,ROW*%
%TO.N,Net-(ALT1-Pad2)*%
X98304500Y-160063750D03*
%TD*%
%TO.P,`~1,1,COL*%
%TO.N,COL1*%
X35371250Y-86403750D03*
%TO.P,`~1,2,ROW*%
%TO.N,Net-(D16-Pad2)*%
X48298250Y-83863750D03*
%TD*%
%TO.P,J1,1,COL*%
%TO.N,COL8*%
X183008750Y-124503750D03*
%TO.P,J1,2,ROW*%
%TO.N,Net-(D54-Pad2)*%
X195935750Y-121963750D03*
%TD*%
%TO.P,O1,1,COL*%
%TO.N,COL10*%
X216346250Y-105453750D03*
%TO.P,O1,2,ROW*%
%TO.N,Net-(D40-Pad2)*%
X229273250Y-102913750D03*
%TD*%
%TO.P,F13,1,COL*%
%TO.N,COL5*%
X125858750Y-124503750D03*
%TO.P,F13,2,ROW*%
%TO.N,Net-(D51-Pad2)*%
X138785750Y-121963750D03*
%TD*%
%TO.P,L1,1,COL*%
%TO.N,COL10*%
X221108750Y-124503750D03*
%TO.P,L1,2,ROW*%
%TO.N,Net-(D56-Pad2)*%
X234035750Y-121963750D03*
%TD*%
%TO.P,B1,1,COL*%
%TO.N,COL6*%
X154433750Y-143553750D03*
%TO.P,B1,2,ROW*%
%TO.N,Net-(B1-Pad2)*%
X167360750Y-141013750D03*
%TD*%
D12*
%TO.P,J2,A1,GND*%
%TO.N,GND*%
X326443750Y-54537500D03*
%TO.P,J2,A4,VBUS*%
%TO.N,VCC*%
X325593750Y-54537500D03*
%TO.P,J2,A5,CC1*%
%TO.N,unconnected-(J2-PadA5)*%
X324743750Y-54537500D03*
%TO.P,J2,A6,D+*%
%TO.N,D+*%
X323893750Y-54537500D03*
%TO.P,J2,A7,D-*%
%TO.N,D-*%
X323043750Y-54537500D03*
%TO.P,J2,A8,SBU1*%
%TO.N,unconnected-(J2-PadA8)*%
X322193750Y-54537500D03*
%TO.P,J2,A9,VBUS*%
%TO.N,VCC*%
X321343750Y-54537500D03*
%TO.P,J2,A12,GND*%
%TO.N,GND*%
X320493750Y-54537500D03*
%TO.P,J2,B1,GND*%
X320493750Y-53187500D03*
%TO.P,J2,B4,VBUS*%
%TO.N,VCC*%
X321343750Y-53187500D03*
%TO.P,J2,B5,CC2*%
%TO.N,unconnected-(J2-PadB5)*%
X322193750Y-53187500D03*
%TO.P,J2,B6,D+*%
%TO.N,D+*%
X323043750Y-53187500D03*
%TO.P,J2,B7,D-*%
%TO.N,D-*%
X323893750Y-53187500D03*
%TO.P,J2,B8,SBU2*%
%TO.N,unconnected-(J2-PadB8)*%
X324743750Y-53187500D03*
%TO.P,J2,B9,VBUS*%
%TO.N,VCC*%
X325593750Y-53187500D03*
%TO.P,J2,B12,GND*%
%TO.N,GND*%
X326443750Y-53187500D03*
D13*
%TO.P,J2,S1,SHIELD*%
X319143750Y-53557500D03*
X327793750Y-53557500D03*
D14*
X319143750Y-50177500D03*
X327793750Y-50177500D03*
%TD*%
D10*
%TO.P,MX9,1,COL*%
%TO.N,COL10*%
X206821250Y-86403750D03*
%TO.P,MX9,2,ROW*%
%TO.N,Net-(D25-Pad2)*%
X219748250Y-83863750D03*
%TD*%
%TO.P,SPACE1,1,COL*%
%TO.N,COL6*%
X156815000Y-162603750D03*
%TO.P,SPACE1,2,ROW*%
%TO.N,Net-(D78-Pad2)*%
X169742000Y-160063750D03*
%TD*%
%TO.P,F1,1,COL*%
%TO.N,COL2*%
X59183750Y-57828750D03*
%TO.P,F1,2,ROW*%
%TO.N,Net-(D2-Pad2)*%
X72110750Y-55288750D03*
%TD*%
%TO.P,DEL1,1,COL*%
%TO.N,COL14*%
X302071250Y-57828750D03*
%TO.P,DEL1,2,ROW*%
%TO.N,Net-(D14-Pad2)*%
X314998250Y-55288750D03*
%TD*%
%TO.P,D46,1,COL*%
%TO.N,COL4*%
X106808750Y-124503750D03*
%TO.P,D46,2,ROW*%
%TO.N,Net-(D46-Pad2)*%
X119735750Y-121963750D03*
%TD*%
%TO.P,U1,1,COL*%
%TO.N,COL8*%
X178246250Y-105453750D03*
%TO.P,U1,2,ROW*%
%TO.N,Net-(D38-Pad2)*%
X191173250Y-102913750D03*
%TD*%
%TO.P,V1,1,COL*%
%TO.N,COL5*%
X135383750Y-143553750D03*
%TO.P,V1,2,ROW*%
%TO.N,Net-(D65-Pad2)*%
X148310750Y-141013750D03*
%TD*%
%TO.P,G1,1,COL*%
%TO.N,COL6*%
X144908750Y-124503750D03*
%TO.P,G1,2,ROW*%
%TO.N,Net-(D52-Pad2)*%
X157835750Y-121963750D03*
%TD*%
%TO.P,Z1,1,COL*%
%TO.N,COL2*%
X78233750Y-143553750D03*
%TO.P,Z1,2,ROW*%
%TO.N,Net-(D62-Pad2)*%
X91160750Y-141013750D03*
%TD*%
%TO.P,'1,1,COL*%
%TO.N,COL12*%
X259208750Y-124503750D03*
%TO.P,'1,2,ROW*%
%TO.N,Net-('1-Pad2)*%
X272135750Y-121963750D03*
%TD*%
%TO.P,CTL1,1,COL*%
%TO.N,COL12*%
X263971250Y-162603750D03*
%TO.P,CTL1,2,ROW*%
%TO.N,Net-(CTL1-Pad2)*%
X276898250Y-160063750D03*
%TD*%
%TO.P,Y1,1,COL*%
%TO.N,COL7*%
X159196250Y-105453750D03*
%TO.P,Y1,2,ROW*%
%TO.N,Net-(D37-Pad2)*%
X172123250Y-102913750D03*
%TD*%
%TO.P,W1,1,COL*%
%TO.N,COL3*%
X82996250Y-105453750D03*
%TO.P,W1,2,ROW*%
%TO.N,Net-(D33-Pad2)*%
X95923250Y-102913750D03*
%TD*%
%TO.P,F3,1,COL*%
%TO.N,COL4*%
X97301309Y-57828750D03*
%TO.P,F3,2,ROW*%
%TO.N,Net-(D4-Pad2)*%
X110228309Y-55288750D03*
%TD*%
%TO.P,LEFT1,1,COL*%
%TO.N,COL13*%
X287765000Y-167347500D03*
%TO.P,LEFT1,2,ROW*%
%TO.N,Net-(D82-Pad2)*%
X300692000Y-164807500D03*
%TD*%
%TO.P,C1,1,COL*%
%TO.N,COL4*%
X116333750Y-143553750D03*
%TO.P,C1,2,ROW*%
%TO.N,Net-(C1-Pad2)*%
X129260750Y-141013750D03*
%TD*%
%TO.P,F8,1,COL*%
%TO.N,COL9*%
X197360534Y-57828750D03*
%TO.P,F8,2,ROW*%
%TO.N,Net-(D9-Pad2)*%
X210287534Y-55288750D03*
%TD*%
%TO.P,]1,1,COL*%
%TO.N,COL13*%
X273496250Y-105453750D03*
%TO.P,]1,2,ROW*%
%TO.N,Net-(D43-Pad2)*%
X286423250Y-102913750D03*
%TD*%
%TO.P,K1,1,COL*%
%TO.N,COL9*%
X202058750Y-124503750D03*
%TO.P,K1,2,ROW*%
%TO.N,Net-(D55-Pad2)*%
X214985750Y-121963750D03*
%TD*%
%TO.P,F4,1,COL*%
%TO.N,COL5*%
X116368868Y-57828750D03*
%TO.P,F4,2,ROW*%
%TO.N,Net-(D5-Pad2)*%
X129295868Y-55288750D03*
%TD*%
%TO.P,DOWN1,1,COL*%
%TO.N,COL14*%
X306833750Y-167366250D03*
%TO.P,DOWN1,2,ROW*%
%TO.N,Net-(D83-Pad2)*%
X319760750Y-164826250D03*
%TD*%
%TO.P,OPT5,1,COL*%
%TO.N,COL15*%
X330646250Y-143591250D03*
%TO.P,OPT5,2,ROW*%
%TO.N,Net-(D74-Pad2)*%
X343573250Y-141051250D03*
%TD*%
%TO.P,FN1,1,COL*%
%TO.N,COL11*%
X244921250Y-162603750D03*
%TO.P,FN1,2,ROW*%
%TO.N,Net-(D80-Pad2)*%
X257848250Y-160063750D03*
%TD*%
%TO.P,F12,1,COL*%
%TO.N,COL13*%
X278234938Y-57828750D03*
%TO.P,F12,2,ROW*%
%TO.N,Net-(D13-Pad2)*%
X291161938Y-55288750D03*
%TD*%
%TO.P,R_SHIFT1,1,COL*%
%TO.N,COL12*%
X275877500Y-143553750D03*
%TO.P,R_SHIFT1,2,ROW*%
%TO.N,Net-(D72-Pad2)*%
X288804500Y-141013750D03*
%TD*%
%TO.P,esc1,1,COL*%
%TO.N,COL1*%
X35371250Y-57828750D03*
%TO.P,esc1,2,ROW*%
%TO.N,Net-(D1-Pad2)*%
X48298250Y-55288750D03*
%TD*%
%TO.P,\u005C1,1,COL*%
%TO.N,COL14*%
X297308750Y-105453750D03*
%TO.P,\u005C1,2,ROW*%
%TO.N,Net-(D44-Pad2)*%
X310235750Y-102913750D03*
%TD*%
%TO.P,OPT4,1,COL*%
%TO.N,COL15*%
X330646250Y-124528750D03*
%TO.P,OPT4,2,ROW*%
%TO.N,Net-(D60-Pad2)*%
X343573250Y-121988750D03*
%TD*%
%TO.P,F11,1,COL*%
%TO.N,COL12*%
X259196844Y-57828750D03*
%TO.P,F11,2,ROW*%
%TO.N,Net-(D12-Pad2)*%
X272123844Y-55288750D03*
%TD*%
%TO.P,A1,1,COL*%
%TO.N,COL2*%
X68708750Y-124503750D03*
%TO.P,A1,2,ROW*%
%TO.N,Net-(A1-Pad2)*%
X81635750Y-121963750D03*
%TD*%
%TO.P,MX3,1,COL*%
%TO.N,COL4*%
X92521250Y-86403750D03*
%TO.P,MX3,2,ROW*%
%TO.N,Net-(D19-Pad2)*%
X105448250Y-83863750D03*
%TD*%
%TO.P,MX4,1,COL*%
%TO.N,COL5*%
X111571250Y-86403750D03*
%TO.P,MX4,2,ROW*%
%TO.N,Net-(D20-Pad2)*%
X124498250Y-83863750D03*
%TD*%
%TO.P,MX2,1,COL*%
%TO.N,COL3*%
X73471250Y-86403750D03*
%TO.P,MX2,2,ROW*%
%TO.N,Net-(D18-Pad2)*%
X86398250Y-83863750D03*
%TD*%
%TO.P,I1,1,COL*%
%TO.N,COL9*%
X197296250Y-105453750D03*
%TO.P,I1,2,ROW*%
%TO.N,Net-(D39-Pad2)*%
X210223250Y-102913750D03*
%TD*%
%TO.P,MX1,1,COL*%
%TO.N,COL2*%
X54421250Y-86403750D03*
%TO.P,MX1,2,ROW*%
%TO.N,Net-(D17-Pad2)*%
X67348250Y-83863750D03*
%TD*%
%TO.P,.1,1,COL*%
%TO.N,COL10*%
X230633750Y-143553750D03*
%TO.P,.1,2,ROW*%
%TO.N,Net-(.1-Pad2)*%
X243560750Y-141013750D03*
%TD*%
%TO.P,F6,1,COL*%
%TO.N,COL7*%
X159217678Y-57828750D03*
%TO.P,F6,2,ROW*%
%TO.N,Net-(D7-Pad2)*%
X172144678Y-55288750D03*
%TD*%
%TO.P,CAPS1,1,COL*%
%TO.N,COL1*%
X42515000Y-124503750D03*
%TO.P,CAPS1,2,ROW*%
%TO.N,Net-(CAPS1-Pad2)*%
X55442000Y-121963750D03*
%TD*%
%TO.P,RIGHT1,1,COL*%
%TO.N,COL15*%
X325883750Y-167366250D03*
%TO.P,RIGHT1,2,ROW*%
%TO.N,Net-(D84-Pad2)*%
X338810750Y-164826250D03*
%TD*%
%TO.P,L_SHIFT1,1,COL*%
%TO.N,COL1*%
X47277500Y-143553750D03*
%TO.P,L_SHIFT1,2,ROW*%
%TO.N,Net-(D61-Pad2)*%
X60204500Y-141013750D03*
%TD*%
%TO.P,F10,1,COL*%
%TO.N,COL11*%
X240158750Y-57828750D03*
%TO.P,F10,2,ROW*%
%TO.N,Net-(D11-Pad2)*%
X253085750Y-55288750D03*
%TD*%
%TO.P,M1,1,COL*%
%TO.N,COL8*%
X192533750Y-143553750D03*
%TO.P,M1,2,ROW*%
%TO.N,Net-(D68-Pad2)*%
X205460750Y-141013750D03*
%TD*%
%TO.P,+1,1,COL*%
%TO.N,COL13*%
X263971250Y-86403750D03*
%TO.P,+1,2,ROW*%
%TO.N,Net-(+1-Pad2)*%
X276898250Y-83863750D03*
%TD*%
D15*
%TO.P,TP2,1,1*%
%TO.N,GND*%
X194600000Y-178400000D03*
%TD*%
D10*
%TO.P,F2,1,COL*%
%TO.N,COL3*%
X78233750Y-57828750D03*
%TO.P,F2,2,ROW*%
%TO.N,Net-(D3-Pad2)*%
X91160750Y-55288750D03*
%TD*%
%TO.P,N1,1,COL*%
%TO.N,COL7*%
X173483750Y-143553750D03*
%TO.P,N1,2,ROW*%
%TO.N,Net-(D67-Pad2)*%
X186410750Y-141013750D03*
%TD*%
%TO.P,MX10,1,COL*%
%TO.N,COL11*%
X225871250Y-86403750D03*
%TO.P,MX10,2,ROW*%
%TO.N,Net-(D26-Pad2)*%
X238798250Y-83863750D03*
%TD*%
%TO.P,-1,1,COL*%
%TO.N,COL12*%
X244921250Y-86403750D03*
%TO.P,-1,2,ROW*%
%TO.N,Net-(-1-Pad2)*%
X257848250Y-83863750D03*
%TD*%
%TO.P,CLT1,1,COL*%
%TO.N,COL1*%
X37752500Y-162603750D03*
%TO.P,CLT1,2,ROW*%
%TO.N,Net-(CLT1-Pad2)*%
X50679500Y-160063750D03*
%TD*%
%TO.P,S1,1,COL*%
%TO.N,COL3*%
X87758750Y-124503750D03*
%TO.P,S1,2,ROW*%
%TO.N,Net-(D49-Pad2)*%
X100685750Y-121963750D03*
%TD*%
%TO.P,T1,1,COL*%
%TO.N,COL6*%
X140146250Y-105453750D03*
%TO.P,T1,2,ROW*%
%TO.N,Net-(D36-Pad2)*%
X153073250Y-102913750D03*
%TD*%
%TO.P,OPT1,1,COL*%
%TO.N,COL15*%
X330646250Y-57828750D03*
%TO.P,OPT1,2,ROW*%
%TO.N,/ROT1*%
X343573250Y-55288750D03*
%TD*%
D16*
%TO.P,D11,1,K*%
%TO.N,ROW1*%
X255672322Y-61996250D03*
%TO.P,D11,2,A*%
%TO.N,Net-(D11-Pad2)*%
X255672322Y-58696250D03*
%TD*%
%TO.P,D9,1,K*%
%TO.N,ROW1*%
X212881250Y-61996250D03*
%TO.P,D9,2,A*%
%TO.N,Net-(D9-Pad2)*%
X212881250Y-58696250D03*
%TD*%
%TO.P,D49,1,K*%
%TO.N,ROW4*%
X103168750Y-128671250D03*
%TO.P,D49,2,A*%
%TO.N,Net-(D49-Pad2)*%
X103168750Y-125371250D03*
%TD*%
%TO.P,D78,1,K*%
%TO.N,ROW6*%
X172300000Y-167093750D03*
%TO.P,D78,2,A*%
%TO.N,Net-(D78-Pad2)*%
X172300000Y-163793750D03*
%TD*%
%TO.P,D24,1,K*%
%TO.N,ROW2*%
X203281250Y-90571250D03*
%TO.P,D24,2,A*%
%TO.N,Net-(D24-Pad2)*%
X203281250Y-87271250D03*
%TD*%
D17*
%TO.P,TP13,1,1*%
%TO.N,COL11*%
X190131250Y-76043750D03*
%TD*%
D16*
%TO.P,D19,1,K*%
%TO.N,ROW2*%
X107556250Y-90571250D03*
%TO.P,D19,2,A*%
%TO.N,Net-(D19-Pad2)*%
X107556250Y-87271250D03*
%TD*%
%TO.P,D82,1,K*%
%TO.N,ROW6*%
X303268750Y-171515000D03*
%TO.P,D82,2,A*%
%TO.N,Net-(D82-Pad2)*%
X303268750Y-168215000D03*
%TD*%
%TO.P,D61,1,K*%
%TO.N,ROW5*%
X62487500Y-147721250D03*
%TO.P,D61,2,A*%
%TO.N,Net-(D61-Pad2)*%
X62487500Y-144421250D03*
%TD*%
%TO.P,D34,1,K*%
%TO.N,ROW3*%
X117506250Y-109621250D03*
%TO.P,D34,2,A*%
%TO.N,Net-(D34-Pad2)*%
X117506250Y-106321250D03*
%TD*%
%TO.P,D43,1,K*%
%TO.N,ROW3*%
X288956250Y-109621250D03*
%TO.P,D43,2,A*%
%TO.N,Net-(D43-Pad2)*%
X288956250Y-106321250D03*
%TD*%
D17*
%TO.P,TP4,1,1*%
%TO.N,COL2*%
X155224111Y-75943750D03*
%TD*%
D16*
%TO.P,D53,1,K*%
%TO.N,ROW4*%
X179293750Y-128671250D03*
%TO.P,D53,2,A*%
%TO.N,Net-(D53-Pad2)*%
X179293750Y-125371250D03*
%TD*%
%TO.P,D57,1,K*%
%TO.N,ROW4*%
X255668750Y-128671250D03*
%TO.P,D57,2,A*%
%TO.N,Net-(;1-Pad2)*%
X255668750Y-125371250D03*
%TD*%
%TO.P,D14,1,K*%
%TO.N,ROW1*%
X317625000Y-62012500D03*
%TO.P,D14,2,A*%
%TO.N,Net-(D14-Pad2)*%
X317625000Y-58712500D03*
%TD*%
%TO.P,D3,1,K*%
%TO.N,ROW1*%
X93803869Y-61996250D03*
%TO.P,D3,2,A*%
%TO.N,Net-(D3-Pad2)*%
X93803869Y-58696250D03*
%TD*%
%TO.P,D2,1,K*%
%TO.N,ROW1*%
X74706250Y-62037500D03*
%TO.P,D2,2,A*%
%TO.N,Net-(D2-Pad2)*%
X74706250Y-58737500D03*
%TD*%
%TO.P,D52,1,K*%
%TO.N,ROW4*%
X160318750Y-128671250D03*
%TO.P,D52,2,A*%
%TO.N,Net-(D52-Pad2)*%
X160318750Y-125371250D03*
%TD*%
%TO.P,D75,1,K*%
%TO.N,ROW6*%
X53237500Y-166968750D03*
%TO.P,D75,2,A*%
%TO.N,Net-(CLT1-Pad2)*%
X53237500Y-163668750D03*
%TD*%
%TO.P,D54,1,K*%
%TO.N,ROW4*%
X198468750Y-128671250D03*
%TO.P,D54,2,A*%
%TO.N,Net-(D54-Pad2)*%
X198468750Y-125371250D03*
%TD*%
%TO.P,D56,1,K*%
%TO.N,ROW4*%
X236468750Y-128671250D03*
%TO.P,D56,2,A*%
%TO.N,Net-(D56-Pad2)*%
X236468750Y-125371250D03*
%TD*%
%TO.P,D79,1,K*%
%TO.N,ROW6*%
X241181250Y-167193750D03*
%TO.P,D79,2,A*%
%TO.N,Net-(ALT2-Pad2)*%
X241181250Y-163893750D03*
%TD*%
%TO.P,D80,1,K*%
%TO.N,ROW6*%
X260206250Y-167243750D03*
%TO.P,D80,2,A*%
%TO.N,Net-(D80-Pad2)*%
X260206250Y-163943750D03*
%TD*%
%TO.P,D35,1,K*%
%TO.N,ROW3*%
X136556250Y-109621250D03*
%TO.P,D35,2,A*%
%TO.N,Net-(D35-Pad2)*%
X136556250Y-106321250D03*
%TD*%
%TO.P,D16,1,K*%
%TO.N,ROW2*%
X50856250Y-90571250D03*
%TO.P,D16,2,A*%
%TO.N,Net-(D16-Pad2)*%
X50856250Y-87271250D03*
%TD*%
%TO.P,D48,1,K*%
%TO.N,ROW4*%
X84318750Y-128671250D03*
%TO.P,D48,2,A*%
%TO.N,Net-(A1-Pad2)*%
X84318750Y-125371250D03*
%TD*%
D18*
%TO.P,TP3,1,1*%
%TO.N,COL1*%
X151345540Y-75943750D03*
%TD*%
D16*
%TO.P,D30,1,K*%
%TO.N,ROW2*%
X346193750Y-90556250D03*
%TO.P,D30,2,A*%
%TO.N,Net-(D30-Pad2)*%
X346193750Y-87256250D03*
%TD*%
D17*
%TO.P,TP9,1,1*%
%TO.N,COL7*%
X174616966Y-76043750D03*
%TD*%
%TO.P,TP7,1,1*%
%TO.N,COL5*%
X166859824Y-76043750D03*
%TD*%
D16*
%TO.P,D83,1,K*%
%TO.N,ROW6*%
X322368750Y-171481250D03*
%TO.P,D83,2,A*%
%TO.N,Net-(D83-Pad2)*%
X322368750Y-168181250D03*
%TD*%
%TO.P,D13,1,K*%
%TO.N,ROW1*%
X293805656Y-61996250D03*
%TO.P,D13,2,A*%
%TO.N,Net-(D13-Pad2)*%
X293805656Y-58696250D03*
%TD*%
%TO.P,D41,1,K*%
%TO.N,ROW3*%
X250856250Y-109621250D03*
%TO.P,D41,2,A*%
%TO.N,Net-(D41-Pad2)*%
X250856250Y-106321250D03*
%TD*%
D19*
%TO.P,R2,1*%
%TO.N,+5V*%
X192275000Y-174787500D03*
%TO.P,R2,2*%
%TO.N,Net-(R2-Pad2)*%
X193925000Y-174787500D03*
%TD*%
D16*
%TO.P,D21,1,K*%
%TO.N,ROW2*%
X146106250Y-90571250D03*
%TO.P,D21,2,A*%
%TO.N,Net-(D21-Pad2)*%
X146106250Y-87271250D03*
%TD*%
%TO.P,D71,1,K*%
%TO.N,ROW5*%
X265193750Y-147721250D03*
%TO.P,D71,2,A*%
%TO.N,Net-(/1-Pad2)*%
X265193750Y-144421250D03*
%TD*%
D20*
%TO.P,R4,1*%
%TO.N,D-*%
X210750000Y-176787500D03*
%TO.P,R4,2*%
%TO.N,Net-(R4-Pad2)*%
X209100000Y-176787500D03*
%TD*%
D16*
%TO.P,D32,1,K*%
%TO.N,ROW3*%
X79406250Y-109621250D03*
%TO.P,D32,2,A*%
%TO.N,Net-(D32-Pad2)*%
X79406250Y-106321250D03*
%TD*%
%TO.P,D40,1,K*%
%TO.N,ROW3*%
X231756250Y-109621250D03*
%TO.P,D40,2,A*%
%TO.N,Net-(D40-Pad2)*%
X231756250Y-106321250D03*
%TD*%
%TO.P,D51,1,K*%
%TO.N,ROW4*%
X141293750Y-128671250D03*
%TO.P,D51,2,A*%
%TO.N,Net-(D51-Pad2)*%
X141293750Y-125371250D03*
%TD*%
D17*
%TO.P,TP14,1,1*%
%TO.N,COL12*%
X194009821Y-76043750D03*
%TD*%
D16*
%TO.P,D47,1,K*%
%TO.N,ROW4*%
X57725000Y-128671250D03*
%TO.P,D47,2,A*%
%TO.N,Net-(CAPS1-Pad2)*%
X57725000Y-125371250D03*
%TD*%
D19*
%TO.P,R5,1*%
%TO.N,Net-(R5-Pad1)*%
X207925000Y-159787500D03*
%TO.P,R5,2*%
%TO.N,GND*%
X209575000Y-159787500D03*
%TD*%
D16*
%TO.P,D27,1,K*%
%TO.N,ROW2*%
X260406250Y-90571250D03*
%TO.P,D27,2,A*%
%TO.N,Net-(-1-Pad2)*%
X260406250Y-87271250D03*
%TD*%
%TO.P,D29,1,K*%
%TO.N,ROW2*%
X307931250Y-90571250D03*
%TO.P,D29,2,A*%
%TO.N,Net-(BACK1-Pad2)*%
X307931250Y-87271250D03*
%TD*%
D21*
%TO.P,C6,1*%
%TO.N,+5V*%
X215958750Y-162462500D03*
%TO.P,C6,2*%
%TO.N,GND*%
X215958750Y-160912500D03*
%TD*%
D16*
%TO.P,D7,1,K*%
%TO.N,ROW1*%
X174714582Y-61996250D03*
%TO.P,D7,2,A*%
%TO.N,Net-(D7-Pad2)*%
X174714582Y-58696250D03*
%TD*%
D22*
%TO.P,C3,1*%
%TO.N,GND*%
X185850000Y-172368750D03*
%TO.P,C3,2*%
%TO.N,Net-(C3-Pad2)*%
X184300000Y-172368750D03*
%TD*%
D16*
%TO.P,D84,1,K*%
%TO.N,ROW6*%
X341418750Y-171515000D03*
%TO.P,D84,2,A*%
%TO.N,Net-(D84-Pad2)*%
X341418750Y-168215000D03*
%TD*%
D23*
%TO.P,F14,1*%
%TO.N,+5V*%
X222500000Y-161800000D03*
%TO.P,F14,2*%
%TO.N,VCC*%
X222500000Y-159000000D03*
%TD*%
D17*
%TO.P,TP5,1,1*%
%TO.N,COL3*%
X159102682Y-75943750D03*
%TD*%
D16*
%TO.P,D81,1,K*%
%TO.N,ROW6*%
X279256250Y-167293750D03*
%TO.P,D81,2,A*%
%TO.N,Net-(CTL1-Pad2)*%
X279256250Y-163993750D03*
%TD*%
%TO.P,D1,1,K*%
%TO.N,ROW1*%
X50816250Y-61996250D03*
%TO.P,D1,2,A*%
%TO.N,Net-(D1-Pad2)*%
X50816250Y-58696250D03*
%TD*%
%TO.P,D70,1,K*%
%TO.N,ROW5*%
X246132630Y-147721250D03*
%TO.P,D70,2,A*%
%TO.N,Net-(.1-Pad2)*%
X246132630Y-144421250D03*
%TD*%
D21*
%TO.P,C5,1*%
%TO.N,+5V*%
X218368750Y-162462500D03*
%TO.P,C5,2*%
%TO.N,GND*%
X218368750Y-160912500D03*
%TD*%
D16*
%TO.P,D12,1,K*%
%TO.N,ROW1*%
X274738988Y-61996250D03*
%TO.P,D12,2,A*%
%TO.N,Net-(D12-Pad2)*%
X274738988Y-58696250D03*
%TD*%
%TO.P,D45,1,K*%
%TO.N,ROW3*%
X346193750Y-109618750D03*
%TO.P,D45,2,A*%
%TO.N,Net-(D45-Pad2)*%
X346193750Y-106318750D03*
%TD*%
%TO.P,D36,1,K*%
%TO.N,ROW3*%
X155731250Y-109621250D03*
%TO.P,D36,2,A*%
%TO.N,Net-(D36-Pad2)*%
X155731250Y-106321250D03*
%TD*%
%TO.P,D68,1,K*%
%TO.N,ROW5*%
X208035410Y-147721250D03*
%TO.P,D68,2,A*%
%TO.N,Net-(D68-Pad2)*%
X208035410Y-144421250D03*
%TD*%
D17*
%TO.P,TP11,1,1*%
%TO.N,COL9*%
X182374108Y-76043750D03*
%TD*%
%TO.P,TP10,1,1*%
%TO.N,COL8*%
X178495537Y-76043750D03*
%TD*%
D16*
%TO.P,D73,1,K*%
%TO.N,ROW5*%
X322368750Y-152515000D03*
%TO.P,D73,2,A*%
%TO.N,Net-(D73-Pad2)*%
X322368750Y-149215000D03*
%TD*%
%TO.P,D6,1,K*%
%TO.N,ROW1*%
X155631250Y-61996250D03*
%TO.P,D6,2,A*%
%TO.N,Net-(D6-Pad2)*%
X155631250Y-58696250D03*
%TD*%
%TO.P,D5,1,K*%
%TO.N,ROW1*%
X131953869Y-61996250D03*
%TO.P,D5,2,A*%
%TO.N,Net-(D5-Pad2)*%
X131953869Y-58696250D03*
%TD*%
D18*
%TO.P,SW1,A,A*%
%TO.N,ROT_A*%
X340250000Y-67887500D03*
D17*
%TO.P,SW1,B,B*%
%TO.N,ROT_B*%
X335250000Y-67887500D03*
%TO.P,SW1,C,C*%
%TO.N,GND*%
X337750000Y-67887500D03*
%TO.P,SW1,S1,S1*%
%TO.N,COL15*%
X335250000Y-53387500D03*
%TO.P,SW1,S2,S2*%
%TO.N,/ROT1*%
X340250000Y-53387500D03*
%TD*%
D16*
%TO.P,D15,1,K*%
%TO.N,ROW1*%
X346131250Y-61943750D03*
%TO.P,D15,2,A*%
%TO.N,/ROT1*%
X346131250Y-58643750D03*
%TD*%
%TO.P,D60,1,K*%
%TO.N,ROW4*%
X346193750Y-128681250D03*
%TO.P,D60,2,A*%
%TO.N,Net-(D60-Pad2)*%
X346193750Y-125381250D03*
%TD*%
%TO.P,D42,1,K*%
%TO.N,ROW3*%
X269931250Y-109621250D03*
%TO.P,D42,2,A*%
%TO.N,Net-(D42-Pad2)*%
X269931250Y-106321250D03*
%TD*%
%TO.P,D65,1,K*%
%TO.N,ROW5*%
X150877080Y-147721250D03*
%TO.P,D65,2,A*%
%TO.N,Net-(D65-Pad2)*%
X150877080Y-144421250D03*
%TD*%
%TO.P,D50,1,K*%
%TO.N,ROW4*%
X122268750Y-128671250D03*
%TO.P,D50,2,A*%
%TO.N,Net-(D46-Pad2)*%
X122268750Y-125371250D03*
%TD*%
D19*
%TO.P,R3,1*%
%TO.N,Net-(R3-Pad1)*%
X209100000Y-178787500D03*
%TO.P,R3,2*%
%TO.N,D+*%
X210750000Y-178787500D03*
%TD*%
D17*
%TO.P,TP15,1,1*%
%TO.N,COL13*%
X197888392Y-76043750D03*
%TD*%
%TO.P,TP20,1,1*%
%TO.N,ROW3*%
X240171250Y-154343750D03*
%TD*%
D21*
%TO.P,C7,1*%
%TO.N,+5V*%
X213618750Y-162462500D03*
%TO.P,C7,2*%
%TO.N,GND*%
X213618750Y-160912500D03*
%TD*%
D17*
%TO.P,TP16,1,1*%
%TO.N,COL14*%
X201766963Y-76043750D03*
%TD*%
D22*
%TO.P,C2,1*%
%TO.N,Net-(C2-Pad1)*%
X185850000Y-165225000D03*
%TO.P,C2,2*%
%TO.N,GND*%
X184300000Y-165225000D03*
%TD*%
D16*
%TO.P,D72,1,K*%
%TO.N,ROW5*%
X291112500Y-147721250D03*
%TO.P,D72,2,A*%
%TO.N,Net-(D72-Pad2)*%
X291112500Y-144421250D03*
%TD*%
%TO.P,D31,1,K*%
%TO.N,ROW3*%
X55518750Y-109621250D03*
%TO.P,D31,2,A*%
%TO.N,Net-(D31-Pad2)*%
X55518750Y-106321250D03*
%TD*%
%TO.P,D4,1,K*%
%TO.N,ROW1*%
X112753869Y-61996250D03*
%TO.P,D4,2,A*%
%TO.N,Net-(D4-Pad2)*%
X112753869Y-58696250D03*
%TD*%
%TO.P,D55,1,K*%
%TO.N,ROW4*%
X217468750Y-128671250D03*
%TO.P,D55,2,A*%
%TO.N,Net-(D55-Pad2)*%
X217468750Y-125371250D03*
%TD*%
%TO.P,D26,1,K*%
%TO.N,ROW2*%
X241406250Y-90571250D03*
%TO.P,D26,2,A*%
%TO.N,Net-(D26-Pad2)*%
X241406250Y-87271250D03*
%TD*%
%TO.P,D67,1,K*%
%TO.N,ROW5*%
X188999300Y-147721250D03*
%TO.P,D67,2,A*%
%TO.N,Net-(D67-Pad2)*%
X188999300Y-144421250D03*
%TD*%
D24*
%TO.P,C4,1*%
%TO.N,Net-(C4-Pad1)*%
X198150000Y-177787500D03*
%TO.P,C4,2*%
%TO.N,GND*%
X199700000Y-177787500D03*
%TD*%
D17*
%TO.P,TP23,1,1*%
%TO.N,ROW6*%
X251631250Y-154343750D03*
%TD*%
D16*
%TO.P,D44,1,K*%
%TO.N,ROW3*%
X312618750Y-109621250D03*
%TO.P,D44,2,A*%
%TO.N,Net-(D44-Pad2)*%
X312618750Y-106321250D03*
%TD*%
%TO.P,D38,1,K*%
%TO.N,ROW3*%
X193731250Y-109621250D03*
%TO.P,D38,2,A*%
%TO.N,Net-(D38-Pad2)*%
X193731250Y-106321250D03*
%TD*%
%TO.P,D22,1,K*%
%TO.N,ROW2*%
X165156250Y-90571250D03*
%TO.P,D22,2,A*%
%TO.N,Net-(D22-Pad2)*%
X165156250Y-87271250D03*
%TD*%
D17*
%TO.P,TP22,1,1*%
%TO.N,ROW5*%
X247811250Y-154343750D03*
%TD*%
D16*
%TO.P,D62,1,K*%
%TO.N,ROW5*%
X93743750Y-147743750D03*
%TO.P,D62,2,A*%
%TO.N,Net-(D62-Pad2)*%
X93743750Y-144443750D03*
%TD*%
%TO.P,D28,1,K*%
%TO.N,ROW2*%
X279381250Y-90571250D03*
%TO.P,D28,2,A*%
%TO.N,Net-(+1-Pad2)*%
X279381250Y-87271250D03*
%TD*%
D17*
%TO.P,TP19,1,1*%
%TO.N,ROW2*%
X236351250Y-154343750D03*
%TD*%
D16*
%TO.P,D58,1,K*%
%TO.N,ROW4*%
X274518750Y-128671250D03*
%TO.P,D58,2,A*%
%TO.N,Net-('1-Pad2)*%
X274518750Y-125371250D03*
%TD*%
%TO.P,D25,1,K*%
%TO.N,ROW2*%
X222231250Y-90571250D03*
%TO.P,D25,2,A*%
%TO.N,Net-(D25-Pad2)*%
X222231250Y-87271250D03*
%TD*%
%TO.P,D77,1,K*%
%TO.N,ROW6*%
X101112500Y-166968750D03*
%TO.P,D77,2,A*%
%TO.N,Net-(ALT1-Pad2)*%
X101112500Y-163668750D03*
%TD*%
%TO.P,D39,1,K*%
%TO.N,ROW3*%
X212806250Y-109621250D03*
%TO.P,D39,2,A*%
%TO.N,Net-(D39-Pad2)*%
X212806250Y-106321250D03*
%TD*%
D17*
%TO.P,TP6,1,1*%
%TO.N,COL4*%
X162981253Y-75943750D03*
%TD*%
D25*
%TO.P,Y2,1,1*%
%TO.N,Net-(C3-Pad2)*%
X184225000Y-169987500D03*
%TO.P,Y2,2,2*%
%TO.N,GND*%
X184225000Y-167787500D03*
%TO.P,Y2,3,3*%
%TO.N,Net-(C2-Pad1)*%
X185925000Y-167787500D03*
%TO.P,Y2,4,4*%
%TO.N,GND*%
X185925000Y-169987500D03*
%TD*%
D16*
%TO.P,D64,1,K*%
%TO.N,ROW5*%
X131840970Y-147721250D03*
%TO.P,D64,2,A*%
%TO.N,Net-(C1-Pad2)*%
X131840970Y-144421250D03*
%TD*%
%TO.P,D63,1,K*%
%TO.N,ROW5*%
X112804860Y-147721250D03*
%TO.P,D63,2,A*%
%TO.N,Net-(D63-Pad2)*%
X112804860Y-144421250D03*
%TD*%
%TO.P,D23,1,K*%
%TO.N,ROW2*%
X184206250Y-90571250D03*
%TO.P,D23,2,A*%
%TO.N,Net-(D23-Pad2)*%
X184206250Y-87271250D03*
%TD*%
%TO.P,D69,1,K*%
%TO.N,ROW5*%
X227071520Y-147721250D03*
%TO.P,D69,2,A*%
%TO.N,Net-(\u002C1-Pad2)*%
X227071520Y-144421250D03*
%TD*%
%TO.P,D76,1,K*%
%TO.N,ROW6*%
X77125000Y-166968750D03*
%TO.P,D76,2,A*%
%TO.N,Net-(D76-Pad2)*%
X77125000Y-163668750D03*
%TD*%
D26*
%TO.P,U2,1,PE6*%
%TO.N,unconnected-(U2-Pad1)*%
X203925000Y-172487500D03*
%TO.P,U2,2,UVCC*%
%TO.N,+5V*%
X203125000Y-172487500D03*
%TO.P,U2,3,D-*%
%TO.N,Net-(R4-Pad2)*%
X202325000Y-172487500D03*
%TO.P,U2,4,D+*%
%TO.N,Net-(R3-Pad1)*%
X201525000Y-172487500D03*
%TO.P,U2,5,UGND*%
%TO.N,GND*%
X200725000Y-172487500D03*
%TO.P,U2,6,UCAP*%
%TO.N,Net-(C4-Pad1)*%
X199925000Y-172487500D03*
%TO.P,U2,7,VBUS*%
%TO.N,+5V*%
X199125000Y-172487500D03*
%TO.P,U2,8,PB0*%
%TO.N,ROT_B*%
X198325000Y-172487500D03*
%TO.P,U2,9,PB1*%
%TO.N,ROT_A*%
X197525000Y-172487500D03*
%TO.P,U2,10,PB2*%
%TO.N,unconnected-(U2-Pad10)*%
X196725000Y-172487500D03*
%TO.P,U2,11,PB3*%
%TO.N,ROW1*%
X195925000Y-172487500D03*
D27*
%TO.P,U2,12,PB7*%
%TO.N,COL1*%
X194225000Y-170787500D03*
%TO.P,U2,13,~{RESET}*%
%TO.N,Net-(R2-Pad2)*%
X194225000Y-169987500D03*
%TO.P,U2,14,VCC*%
%TO.N,+5V*%
X194225000Y-169187500D03*
%TO.P,U2,15,GND*%
%TO.N,GND*%
X194225000Y-168387500D03*
%TO.P,U2,16,XTAL2*%
%TO.N,Net-(C3-Pad2)*%
X194225000Y-167587500D03*
%TO.P,U2,17,XTAL1*%
%TO.N,Net-(C2-Pad1)*%
X194225000Y-166787500D03*
%TO.P,U2,18,PD0*%
%TO.N,COL2*%
X194225000Y-165987500D03*
%TO.P,U2,19,PD1*%
%TO.N,COL3*%
X194225000Y-165187500D03*
%TO.P,U2,20,PD2*%
%TO.N,COL4*%
X194225000Y-164387500D03*
%TO.P,U2,21,PD3*%
%TO.N,COL5*%
X194225000Y-163587500D03*
%TO.P,U2,22,PD5*%
%TO.N,COL6*%
X194225000Y-162787500D03*
D26*
%TO.P,U2,23,GND*%
%TO.N,GND*%
X195925000Y-161087500D03*
%TO.P,U2,24,AVCC*%
%TO.N,+5V*%
X196725000Y-161087500D03*
%TO.P,U2,25,PD4*%
%TO.N,COL7*%
X197525000Y-161087500D03*
%TO.P,U2,26,PD6*%
%TO.N,COL8*%
X198325000Y-161087500D03*
%TO.P,U2,27,PD7*%
%TO.N,COL9*%
X199125000Y-161087500D03*
%TO.P,U2,28,PB4*%
%TO.N,ROW6*%
X199925000Y-161087500D03*
%TO.P,U2,29,PB5*%
%TO.N,ROW5*%
X200725000Y-161087500D03*
%TO.P,U2,30,PB6*%
%TO.N,ROW4*%
X201525000Y-161087500D03*
%TO.P,U2,31,PC6*%
%TO.N,ROW3*%
X202325000Y-161087500D03*
%TO.P,U2,32,PC7*%
%TO.N,ROW2*%
X203125000Y-161087500D03*
%TO.P,U2,33,~{HWB}/PE2*%
%TO.N,Net-(R5-Pad1)*%
X203925000Y-161087500D03*
D27*
%TO.P,U2,34,VCC*%
%TO.N,+5V*%
X205625000Y-162787500D03*
%TO.P,U2,35,GND*%
%TO.N,GND*%
X205625000Y-163587500D03*
%TO.P,U2,36,PF7*%
%TO.N,COL10*%
X205625000Y-164387500D03*
%TO.P,U2,37,PF6*%
%TO.N,COL11*%
X205625000Y-165187500D03*
%TO.P,U2,38,PF5*%
%TO.N,COL12*%
X205625000Y-165987500D03*
%TO.P,U2,39,PF4*%
%TO.N,COL13*%
X205625000Y-166787500D03*
%TO.P,U2,40,PF1*%
%TO.N,COL14*%
X205625000Y-167587500D03*
%TO.P,U2,41,PF0*%
%TO.N,COL15*%
X205625000Y-168387500D03*
%TO.P,U2,42,AREF*%
%TO.N,unconnected-(U2-Pad42)*%
X205625000Y-169187500D03*
%TO.P,U2,43,GND*%
%TO.N,GND*%
X205625000Y-169987500D03*
%TO.P,U2,44,AVCC*%
%TO.N,+5V*%
X205625000Y-170787500D03*
%TD*%
D16*
%TO.P,D20,1,K*%
%TO.N,ROW2*%
X127056250Y-90571250D03*
%TO.P,D20,2,A*%
%TO.N,Net-(D20-Pad2)*%
X127056250Y-87271250D03*
%TD*%
%TO.P,D33,1,K*%
%TO.N,ROW3*%
X98481250Y-109621250D03*
%TO.P,D33,2,A*%
%TO.N,Net-(D33-Pad2)*%
X98481250Y-106321250D03*
%TD*%
D17*
%TO.P,TP12,1,1*%
%TO.N,COL10*%
X186252679Y-76043750D03*
%TD*%
D16*
%TO.P,D59,1,K*%
%TO.N,ROW4*%
X305500000Y-128671250D03*
%TO.P,D59,2,A*%
%TO.N,Net-(D59-Pad2)*%
X305500000Y-125371250D03*
%TD*%
D18*
%TO.P,TP18,1,1*%
%TO.N,ROW1*%
X232531250Y-154343750D03*
%TD*%
D16*
%TO.P,D8,1,K*%
%TO.N,ROW1*%
X193797914Y-61996250D03*
%TO.P,D8,2,A*%
%TO.N,Net-(D8-Pad2)*%
X193797914Y-58696250D03*
%TD*%
D21*
%TO.P,C8,1*%
%TO.N,+5V*%
X211368750Y-162462500D03*
%TO.P,C8,2*%
%TO.N,GND*%
X211368750Y-160912500D03*
%TD*%
D16*
%TO.P,D18,1,K*%
%TO.N,ROW2*%
X89006250Y-90571250D03*
%TO.P,D18,2,A*%
%TO.N,Net-(D18-Pad2)*%
X89006250Y-87271250D03*
%TD*%
%TO.P,D66,1,K*%
%TO.N,ROW5*%
X169938190Y-147721250D03*
%TO.P,D66,2,A*%
%TO.N,Net-(B1-Pad2)*%
X169938190Y-144421250D03*
%TD*%
%TO.P,D10,1,K*%
%TO.N,ROW1*%
X236605656Y-61996250D03*
%TO.P,D10,2,A*%
%TO.N,Net-(D10-Pad2)*%
X236605656Y-58696250D03*
%TD*%
%TO.P,D17,1,K*%
%TO.N,ROW2*%
X69806250Y-90571250D03*
%TO.P,D17,2,A*%
%TO.N,Net-(D17-Pad2)*%
X69806250Y-87271250D03*
%TD*%
D17*
%TO.P,TP21,1,1*%
%TO.N,ROW4*%
X243991250Y-154343750D03*
%TD*%
D16*
%TO.P,D74,1,K*%
%TO.N,ROW5*%
X346193750Y-147743750D03*
%TO.P,D74,2,A*%
%TO.N,Net-(D74-Pad2)*%
X346193750Y-144443750D03*
%TD*%
D17*
%TO.P,TP17,1,1*%
%TO.N,COL15*%
X205645540Y-76043750D03*
%TD*%
D16*
%TO.P,D37,1,K*%
%TO.N,ROW3*%
X174606250Y-109621250D03*
%TO.P,D37,2,A*%
%TO.N,Net-(D37-Pad2)*%
X174606250Y-106321250D03*
%TD*%
D17*
%TO.P,TP8,1,1*%
%TO.N,COL6*%
X170738395Y-76043750D03*
%TD*%
D28*
%TO.N,COL12*%
X244925000Y-89593750D03*
X217925000Y-165787500D03*
X275925000Y-146593750D03*
X254815625Y-102678125D03*
X263925000Y-158787500D03*
X258925000Y-127568750D03*
X258925000Y-60787500D03*
%TO.N,COL13*%
X263925000Y-88787500D03*
X289925000Y-126787500D03*
X277925000Y-60787500D03*
X272925000Y-107787500D03*
X217925000Y-166787500D03*
X287925000Y-162787500D03*
%TO.N,COL9*%
X196925000Y-60787500D03*
X196565625Y-103428125D03*
X201925000Y-122068750D03*
X210925000Y-140787500D03*
X197955533Y-156768837D03*
X187925000Y-89593750D03*
%TO.N,COL10*%
X215925000Y-108787500D03*
X220925000Y-127787500D03*
X226925000Y-159787500D03*
X229925000Y-139787500D03*
X206925000Y-89787500D03*
X219925000Y-60787500D03*
%TO.N,COL11*%
X249925000Y-145787500D03*
X239925000Y-60787500D03*
X234925000Y-107787500D03*
X239925000Y-127787500D03*
X225925000Y-88787500D03*
X217925000Y-164787500D03*
X244925000Y-160787500D03*
%TO.N,COL2*%
X67925000Y-121787500D03*
X67925000Y-127787500D03*
X62925000Y-108787500D03*
X76925000Y-146787500D03*
X70925000Y-152787500D03*
X188925000Y-166787500D03*
X76925000Y-140787500D03*
X53925000Y-88787500D03*
X54925000Y-61787500D03*
X58081250Y-64917250D03*
X62925000Y-102787500D03*
%TO.N,COL3*%
X81243331Y-64105831D03*
X82925000Y-108568750D03*
X102925000Y-152787500D03*
X96925000Y-140787500D03*
X188925000Y-165787500D03*
X73660000Y-90170000D03*
X77925000Y-60787500D03*
X87925000Y-122787500D03*
%TO.N,COL6*%
X139925000Y-102787500D03*
X144925000Y-127787500D03*
X131376729Y-90239229D03*
X152925000Y-145787500D03*
X138925000Y-61787500D03*
X188924998Y-162776274D03*
X154925000Y-162787500D03*
%TO.N,COL14*%
X296925000Y-108787500D03*
X306925000Y-167787500D03*
X300925000Y-60787500D03*
X291925000Y-89787500D03*
X277925000Y-171787500D03*
X306925000Y-150787500D03*
%TO.N,COL4*%
X96925000Y-60787500D03*
X99925000Y-103787500D03*
X104925000Y-122787500D03*
X91925000Y-88787500D03*
X115925000Y-140787500D03*
X188912701Y-164775201D03*
%TO.N,COL1*%
X40133750Y-122122500D03*
X35371250Y-89203750D03*
X190925000Y-170787500D03*
X38231250Y-160343750D03*
X40133750Y-107546250D03*
X43881250Y-143293750D03*
%TO.N,ROW1*%
X228331250Y-154443750D03*
X190731250Y-176243750D03*
X195331250Y-174143750D03*
X131831250Y-166543750D03*
X134931250Y-169543750D03*
X180831250Y-157743750D03*
%TO.N,ROW2*%
X278925000Y-130787500D03*
X269925000Y-146787500D03*
X286925000Y-93787500D03*
X290925000Y-111787500D03*
X281925000Y-127787500D03*
X264925000Y-151787500D03*
%TO.N,ROW3*%
X274925000Y-130787500D03*
X277925000Y-127787500D03*
X239175000Y-150787500D03*
X264925000Y-150787500D03*
X268925000Y-146787500D03*
%TO.N,ROW4*%
X267925000Y-146787500D03*
X242887500Y-149787500D03*
X264925000Y-149787500D03*
%TO.N,ROW5*%
X246879651Y-148468271D03*
%TO.N,ROW6*%
X237925000Y-167787500D03*
X168925000Y-172787500D03*
X251531250Y-158943750D03*
%TO.N,COL5*%
X125925000Y-126787500D03*
X120925000Y-108787500D03*
X133815625Y-141678125D03*
X188925146Y-163775776D03*
X112326729Y-90385771D03*
X114925000Y-60787500D03*
%TO.N,COL7*%
X163925000Y-122068750D03*
X149925000Y-88593750D03*
X158925000Y-103568750D03*
X172925000Y-141787500D03*
X158925000Y-61787500D03*
X196925000Y-157787500D03*
%TO.N,COL8*%
X191925000Y-140787500D03*
X182925000Y-126787500D03*
X177925000Y-60787500D03*
X196937299Y-156775201D03*
X168925000Y-88787500D03*
X177925000Y-107787500D03*
%TO.N,COL15*%
X329925000Y-127787500D03*
X329925000Y-145787500D03*
X329925000Y-153787500D03*
X329925000Y-89787500D03*
X329925000Y-60787500D03*
X291200500Y-77843750D03*
X329925000Y-108787500D03*
%TO.N,GND*%
X200898998Y-171251497D03*
X184225000Y-167787500D03*
X185925003Y-169987493D03*
X195925000Y-162787500D03*
X209575000Y-159787500D03*
X203925000Y-164287500D03*
X195925000Y-168287500D03*
X203937299Y-169775201D03*
X313800000Y-156400000D03*
%TO.N,D+*%
X232000000Y-178525000D03*
%TO.N,D-*%
X232000000Y-177475000D03*
%TO.N,ROT_A*%
X197625461Y-174369816D03*
%TO.N,ROT_B*%
X199200000Y-175100000D03*
%TO.N,VCC*%
X317800000Y-157600000D03*
%TD*%
D29*
%TO.N,COL12*%
X254446250Y-103047500D02*
X254815625Y-102678125D01*
X259196844Y-57828750D02*
X259196844Y-60515656D01*
X275877500Y-146546250D02*
X275925000Y-146593750D01*
X244921250Y-86403750D02*
X244921250Y-89590000D01*
X263925000Y-158787500D02*
X263971250Y-158833750D01*
X263971250Y-158833750D02*
X263971250Y-162603750D01*
X259208750Y-127285000D02*
X258925000Y-127568750D01*
X254446250Y-105453750D02*
X254446250Y-103047500D01*
X217725000Y-165987500D02*
X217925000Y-165787500D01*
X244921250Y-89590000D02*
X244925000Y-89593750D01*
X275877500Y-143553750D02*
X275877500Y-146546250D01*
X205625000Y-165987500D02*
X217725000Y-165987500D01*
X259208750Y-124503750D02*
X259208750Y-127285000D01*
X259196844Y-60515656D02*
X258925000Y-60787500D01*
%TO.N,Net-('1-Pad2)*%
X274518750Y-124346750D02*
X274518750Y-125371250D01*
X272135750Y-121963750D02*
X274518750Y-124346750D01*
%TO.N,Net-(+1-Pad2)*%
X279381250Y-86346750D02*
X279381250Y-87271250D01*
X276898250Y-83863750D02*
X279381250Y-86346750D01*
%TO.N,COL13*%
X287765000Y-162947500D02*
X287765000Y-167347500D01*
X263971250Y-86403750D02*
X263971250Y-88741250D01*
X290165000Y-126547500D02*
X289925000Y-126787500D01*
X278234938Y-60477562D02*
X277925000Y-60787500D01*
X263971250Y-88741250D02*
X263925000Y-88787500D01*
X273496250Y-105453750D02*
X273496250Y-107216250D01*
X217925000Y-166787500D02*
X205625000Y-166787500D01*
X290165000Y-124503750D02*
X290165000Y-126547500D01*
X278234938Y-57828750D02*
X278234938Y-60477562D01*
X287925000Y-162787500D02*
X287765000Y-162947500D01*
X273496250Y-107216250D02*
X272925000Y-107787500D01*
%TO.N,Net-(\u002C1-Pad2)*%
X227071520Y-143574520D02*
X227071520Y-144421250D01*
X224510750Y-141013750D02*
X227071520Y-143574520D01*
%TO.N,Net-(-1-Pad2)*%
X257848250Y-83863750D02*
X260406250Y-86421750D01*
X260406250Y-86421750D02*
X260406250Y-87271250D01*
%TO.N,COL9*%
X197296250Y-104158750D02*
X196565625Y-103428125D01*
X197360534Y-60351966D02*
X196925000Y-60787500D01*
X202058750Y-122202500D02*
X201925000Y-122068750D01*
X197360534Y-57828750D02*
X197360534Y-60351966D01*
X202058750Y-124503750D02*
X202058750Y-122202500D01*
X210925000Y-140787500D02*
X211583750Y-141446250D01*
X187771250Y-86403750D02*
X187771250Y-89440000D01*
X211583750Y-141446250D02*
X211583750Y-143553750D01*
X199125000Y-157938304D02*
X199125000Y-161087500D01*
X187771250Y-89440000D02*
X187925000Y-89593750D01*
X197296250Y-105453750D02*
X197296250Y-104158750D01*
X197955533Y-156768837D02*
X199125000Y-157938304D01*
%TO.N,Net-(.1-Pad2)*%
X246132630Y-143585630D02*
X246132630Y-144421250D01*
X243560750Y-141013750D02*
X246132630Y-143585630D01*
%TO.N,COL10*%
X224687500Y-163787500D02*
X225871250Y-162603750D01*
X206821250Y-86403750D02*
X206821250Y-89683750D01*
X221108750Y-127603750D02*
X220925000Y-127787500D01*
X216346250Y-105453750D02*
X216346250Y-108366250D01*
X226925000Y-159787500D02*
X225871250Y-160841250D01*
X205625000Y-164387500D02*
X206789282Y-164387500D01*
X216346250Y-108366250D02*
X215925000Y-108787500D01*
X225871250Y-160841250D02*
X225871250Y-162603750D01*
X206789282Y-164387500D02*
X207389282Y-163787500D01*
X207389282Y-163787500D02*
X224687500Y-163787500D01*
X230633750Y-143553750D02*
X230633750Y-140496250D01*
X221120656Y-59591844D02*
X219925000Y-60787500D01*
X230633750Y-140496250D02*
X229925000Y-139787500D01*
X221120656Y-57828750D02*
X221120656Y-59591844D01*
X206821250Y-89683750D02*
X206925000Y-89787500D01*
X221108750Y-124503750D02*
X221108750Y-127603750D01*
%TO.N,Net-(/1-Pad2)*%
X262610750Y-141013750D02*
X265193750Y-143596750D01*
X265193750Y-143596750D02*
X265193750Y-144421250D01*
%TO.N,Net-(;1-Pad2)*%
X253085750Y-121963750D02*
X255668750Y-124546750D01*
X255668750Y-124546750D02*
X255668750Y-125371250D01*
%TO.N,COL11*%
X225871250Y-88733750D02*
X225925000Y-88787500D01*
X240158750Y-127553750D02*
X239925000Y-127787500D01*
X235396250Y-107316250D02*
X234925000Y-107787500D01*
X244925000Y-162600000D02*
X244921250Y-162603750D01*
X206625000Y-165187500D02*
X205625000Y-165187500D01*
X240158750Y-57828750D02*
X240158750Y-60553750D01*
X240158750Y-124503750D02*
X240158750Y-127553750D01*
X240158750Y-60553750D02*
X239925000Y-60787500D01*
X249683750Y-145546250D02*
X249925000Y-145787500D01*
X217925000Y-164787500D02*
X207025000Y-164787500D01*
X225871250Y-86403750D02*
X225871250Y-88733750D01*
X249683750Y-143553750D02*
X249683750Y-145546250D01*
X244925000Y-160787500D02*
X244925000Y-162600000D01*
X235396250Y-105453750D02*
X235396250Y-107316250D01*
X207025000Y-164787500D02*
X206625000Y-165187500D01*
%TO.N,Net-(A1-Pad2)*%
X81635750Y-121963750D02*
X84318750Y-124646750D01*
X84318750Y-124646750D02*
X84318750Y-125371250D01*
%TO.N,COL2*%
X62925000Y-102787500D02*
X63946250Y-103808750D01*
X190125000Y-165987500D02*
X189325000Y-166787500D01*
X61565000Y-158147500D02*
X61565000Y-162603750D01*
X189325000Y-166787500D02*
X188925000Y-166787500D01*
X63946250Y-107766250D02*
X62925000Y-108787500D01*
X63946250Y-103808750D02*
X63946250Y-105453750D01*
X54421250Y-84283750D02*
X54421250Y-86403750D01*
X54421250Y-86403750D02*
X54421250Y-88291250D01*
X62925000Y-156787500D02*
X66925000Y-156787500D01*
X68708750Y-124503750D02*
X68708750Y-127003750D01*
X63946250Y-105453750D02*
X63946250Y-107766250D01*
X78233750Y-145478750D02*
X76925000Y-146787500D01*
D30*
X54421250Y-68577250D02*
X58081250Y-64917250D01*
D29*
X59183750Y-57828750D02*
X58883750Y-57828750D01*
X68708750Y-122571250D02*
X68708750Y-124503750D01*
X68708750Y-127003750D02*
X67925000Y-127787500D01*
X78233750Y-143553750D02*
X78233750Y-145478750D01*
X54421250Y-88291250D02*
X53925000Y-88787500D01*
X76925000Y-140787500D02*
X78233750Y-142096250D01*
X58883750Y-57828750D02*
X54925000Y-61787500D01*
D30*
X54421250Y-86403750D02*
X54421250Y-68577250D01*
D29*
X190125000Y-165987500D02*
X194225000Y-165987500D01*
X67925000Y-121787500D02*
X68708750Y-122571250D01*
X62925000Y-156787500D02*
X61565000Y-158147500D01*
X53925000Y-83787500D02*
X54421250Y-84283750D01*
X78233750Y-142096250D02*
X78233750Y-143553750D01*
X66925000Y-156787500D02*
X70925000Y-152787500D01*
%TO.N,Net-(ALT1-Pad2)*%
X98304500Y-160063750D02*
X101112500Y-162871750D01*
X101112500Y-162871750D02*
X101112500Y-163668750D01*
%TO.N,Net-(ALT2-Pad2)*%
X241181250Y-162446750D02*
X241181250Y-163893750D01*
X238798250Y-160063750D02*
X241181250Y-162446750D01*
%TO.N,COL3*%
X97283750Y-143553750D02*
X97283750Y-141146250D01*
X78233750Y-60478750D02*
X77925000Y-60787500D01*
X85377500Y-162603750D02*
X85377500Y-158335000D01*
D30*
X73471250Y-86403750D02*
X73471250Y-71877912D01*
X73471250Y-71877912D02*
X81243331Y-64105831D01*
X73471250Y-89981250D02*
X73660000Y-90170000D01*
D29*
X87758750Y-122953750D02*
X87925000Y-122787500D01*
X82996250Y-108497500D02*
X82925000Y-108568750D01*
X85377500Y-158335000D02*
X90925000Y-152787500D01*
X189525000Y-165187500D02*
X194225000Y-165187500D01*
X90925000Y-152787500D02*
X102925000Y-152787500D01*
X78233750Y-57828750D02*
X78233750Y-60478750D01*
D30*
X73471250Y-86403750D02*
X73471250Y-89981250D01*
D29*
X87758750Y-124503750D02*
X87758750Y-122953750D01*
X97283750Y-141146250D02*
X96925000Y-140787500D01*
X188925000Y-165787500D02*
X189525000Y-165187500D01*
X82996250Y-105453750D02*
X82996250Y-108497500D01*
%TO.N,Net-(B1-Pad2)*%
X169938190Y-143591190D02*
X169938190Y-144421250D01*
X167360750Y-141013750D02*
X169938190Y-143591190D01*
%TO.N,COL6*%
X130621250Y-86403750D02*
X130621250Y-89483750D01*
X140146250Y-57828750D02*
X140146250Y-60566250D01*
D30*
X168031355Y-78750790D02*
X170738395Y-76043750D01*
D29*
X188924998Y-162776274D02*
X188936224Y-162787500D01*
X144908750Y-124503750D02*
X144908750Y-127771250D01*
X156631250Y-162787500D02*
X156815000Y-162603750D01*
X130621250Y-89483750D02*
X131376729Y-90239229D01*
X188936224Y-162787500D02*
X194225000Y-162787500D01*
X140146250Y-105453750D02*
X140146250Y-103008750D01*
X144908750Y-127771250D02*
X144925000Y-127787500D01*
X140146250Y-60566250D02*
X138925000Y-61787500D01*
X140146250Y-103008750D02*
X139925000Y-102787500D01*
X154433750Y-143553750D02*
X154433750Y-144278750D01*
D30*
X138274210Y-78750790D02*
X168031355Y-78750790D01*
X130621250Y-86403750D02*
X138274210Y-78750790D01*
D29*
X154925000Y-162787500D02*
X156631250Y-162787500D01*
X154433750Y-144278750D02*
X152925000Y-145787500D01*
%TO.N,Net-(BACK1-Pad2)*%
X307931250Y-86321750D02*
X307931250Y-87271250D01*
X305473250Y-83863750D02*
X307931250Y-86321750D01*
%TO.N,COL14*%
X296925000Y-105787500D02*
X296925000Y-108787500D01*
X302071250Y-59641250D02*
X300925000Y-60787500D01*
X302071250Y-57828750D02*
X302071250Y-59641250D01*
X205625000Y-167587500D02*
X205725000Y-167587500D01*
X205725000Y-167587500D02*
X215725000Y-167587500D01*
X215725000Y-167587500D02*
X219925000Y-171787500D01*
X306833750Y-148316250D02*
X306833750Y-150696250D01*
X297308750Y-105453750D02*
X297258750Y-105453750D01*
X297258750Y-105453750D02*
X296925000Y-105787500D01*
X219925000Y-171787500D02*
X277925000Y-171787500D01*
X306833750Y-150696250D02*
X306925000Y-150787500D01*
X292546250Y-86403750D02*
X292546250Y-89166250D01*
X292546250Y-89166250D02*
X291925000Y-89787500D01*
%TO.N,Net-(C1-Pad2)*%
X129260750Y-141013750D02*
X131840970Y-143593970D01*
X131840970Y-143593970D02*
X131840970Y-144421250D01*
%TO.N,COL4*%
X188949922Y-164737980D02*
X188912701Y-164775201D01*
X194225000Y-164387500D02*
X193275480Y-164387500D01*
X97301309Y-60411191D02*
X96925000Y-60787500D01*
X92521250Y-86403750D02*
X92521250Y-88191250D01*
X92521250Y-88191250D02*
X91925000Y-88787500D01*
X106808750Y-124503750D02*
X106641250Y-124503750D01*
X116333750Y-141196250D02*
X116333750Y-143553750D01*
X97301309Y-57828750D02*
X97301309Y-60411191D01*
D30*
X92521250Y-86403750D02*
X101081250Y-77843750D01*
X101081250Y-77843750D02*
X161081253Y-77843750D01*
D29*
X192925000Y-164737980D02*
X188949922Y-164737980D01*
X106641250Y-124503750D02*
X104925000Y-122787500D01*
D30*
X161081253Y-77843750D02*
X162981253Y-75943750D01*
D29*
X115925000Y-140787500D02*
X116333750Y-141196250D01*
X193275480Y-164387500D02*
X192925000Y-164737980D01*
X102046250Y-105453750D02*
X100380000Y-103787500D01*
X100380000Y-103787500D02*
X99925000Y-103787500D01*
%TO.N,Net-(CAPS1-Pad2)*%
X55442000Y-121963750D02*
X57725000Y-124246750D01*
X57725000Y-124246750D02*
X57725000Y-125371250D01*
%TO.N,Net-(CLT1-Pad2)*%
X53237500Y-162621750D02*
X53237500Y-163668750D01*
X50679500Y-160063750D02*
X53237500Y-162621750D01*
%TO.N,Net-(CTL1-Pad2)*%
X276898250Y-161635750D02*
X279256250Y-163993750D01*
X276898250Y-160063750D02*
X276898250Y-161635750D01*
D30*
%TO.N,COL1*%
X44141250Y-143553750D02*
X43881250Y-143293750D01*
X47277500Y-143553750D02*
X44141250Y-143553750D01*
D29*
X190925000Y-170787500D02*
X194225000Y-170787500D01*
D30*
X35371250Y-86403750D02*
X35371250Y-89203750D01*
X40133750Y-105453750D02*
X40133750Y-107546250D01*
X37752500Y-162603750D02*
X37752500Y-160822500D01*
X37752500Y-160822500D02*
X38231250Y-160343750D01*
X42515000Y-124503750D02*
X40133750Y-122122500D01*
D29*
%TO.N,ROW1*%
X213628271Y-62743271D02*
X235858635Y-62743271D01*
X74000479Y-62743271D02*
X74706250Y-62037500D01*
X112753869Y-61996250D02*
X113500890Y-62743271D01*
X51563271Y-62743271D02*
X74000479Y-62743271D01*
D30*
X68031250Y-149743750D02*
X70265829Y-151978329D01*
X43119729Y-69692771D02*
X43119729Y-86246320D01*
X46431250Y-103845341D02*
X50263479Y-107677570D01*
D29*
X75412021Y-62743271D02*
X93056848Y-62743271D01*
X194544935Y-62743271D02*
X212134229Y-62743271D01*
X175461603Y-62743271D02*
X193050893Y-62743271D01*
X255672322Y-61996250D02*
X256419343Y-62743271D01*
X256419343Y-62743271D02*
X273991967Y-62743271D01*
X174714582Y-61996250D02*
X175461603Y-62743271D01*
D30*
X70265829Y-151978329D02*
X117265829Y-151978329D01*
X117265829Y-151978329D02*
X121031250Y-155743750D01*
D29*
X317625000Y-62012500D02*
X318355771Y-62743271D01*
D30*
X62806978Y-149743750D02*
X68031250Y-149743750D01*
D29*
X93803869Y-61996250D02*
X94550890Y-62743271D01*
X131206848Y-62743271D02*
X131953869Y-61996250D01*
X131953869Y-61996250D02*
X132700890Y-62743271D01*
X273991967Y-62743271D02*
X274738988Y-61996250D01*
X254925301Y-62743271D02*
X255672322Y-61996250D01*
D30*
X121031250Y-155743750D02*
X178831250Y-155743750D01*
X50263479Y-123975979D02*
X53331250Y-127043750D01*
D29*
X235858635Y-62743271D02*
X236605656Y-61996250D01*
X94550890Y-62743271D02*
X112006848Y-62743271D01*
D30*
X58077176Y-144842229D02*
X61256728Y-144842229D01*
X134931250Y-169543750D02*
X141631250Y-176243750D01*
D29*
X93056848Y-62743271D02*
X93803869Y-61996250D01*
X293058635Y-62743271D02*
X293805656Y-61996250D01*
X154884229Y-62743271D02*
X155631250Y-61996250D01*
D30*
X50263479Y-107677570D02*
X50263479Y-123975979D01*
D29*
X237352677Y-62743271D02*
X254925301Y-62743271D01*
D30*
X46431250Y-89557841D02*
X46431250Y-103845341D01*
X50816250Y-61996250D02*
X43119729Y-69692771D01*
X53331250Y-140096303D02*
X58077176Y-144842229D01*
X228331250Y-154443750D02*
X228431250Y-154343750D01*
D29*
X50816250Y-61996250D02*
X51563271Y-62743271D01*
D30*
X141631250Y-176243750D02*
X190731250Y-176243750D01*
D29*
X132700890Y-62743271D02*
X154884229Y-62743271D01*
X112006848Y-62743271D02*
X112753869Y-61996250D01*
D30*
X228431250Y-154343750D02*
X232531250Y-154343750D01*
X43119729Y-86246320D02*
X46431250Y-89557841D01*
D29*
X173967561Y-62743271D02*
X174714582Y-61996250D01*
D30*
X53331250Y-127043750D02*
X53331250Y-140096303D01*
X195331250Y-174143750D02*
X195331250Y-173081250D01*
D29*
X193797914Y-61996250D02*
X194544935Y-62743271D01*
D30*
X61256728Y-148193500D02*
X62806978Y-149743750D01*
D29*
X345331729Y-62743271D02*
X346131250Y-61943750D01*
X294552677Y-62743271D02*
X316894229Y-62743271D01*
X274738988Y-61996250D02*
X275486009Y-62743271D01*
D30*
X195331250Y-173081250D02*
X195925000Y-172487500D01*
D29*
X74706250Y-62037500D02*
X75412021Y-62743271D01*
D30*
X178831250Y-155743750D02*
X180831250Y-157743750D01*
D29*
X316894229Y-62743271D02*
X317625000Y-62012500D01*
X212134229Y-62743271D02*
X212881250Y-61996250D01*
X318355771Y-62743271D02*
X345331729Y-62743271D01*
X193050893Y-62743271D02*
X193797914Y-61996250D01*
X155631250Y-61996250D02*
X156378271Y-62743271D01*
X236605656Y-61996250D02*
X237352677Y-62743271D01*
X113500890Y-62743271D02*
X131206848Y-62743271D01*
X293805656Y-61996250D02*
X294552677Y-62743271D01*
D30*
X61256728Y-144842229D02*
X61256728Y-148193500D01*
D29*
X275486009Y-62743271D02*
X293058635Y-62743271D01*
D30*
X121031250Y-155743750D02*
X131831250Y-166543750D01*
D29*
X212881250Y-61996250D02*
X213628271Y-62743271D01*
X156378271Y-62743271D02*
X173967561Y-62743271D01*
%TO.N,Net-(D1-Pad2)*%
X50816250Y-57806750D02*
X50816250Y-58696250D01*
X48298250Y-55288750D02*
X50816250Y-57806750D01*
%TO.N,Net-(D2-Pad2)*%
X72110750Y-55288750D02*
X74706250Y-57884250D01*
X74706250Y-57884250D02*
X74706250Y-58737500D01*
%TO.N,Net-(D3-Pad2)*%
X93803869Y-57931869D02*
X93803869Y-58696250D01*
X91160750Y-55288750D02*
X93803869Y-57931869D01*
%TO.N,Net-(D4-Pad2)*%
X112753869Y-57814310D02*
X112753869Y-58696250D01*
X110228309Y-55288750D02*
X112753869Y-57814310D01*
%TO.N,Net-(D5-Pad2)*%
X129295868Y-55288750D02*
X131953869Y-57946751D01*
X131953869Y-57946751D02*
X131953869Y-58696250D01*
%TO.N,Net-(D6-Pad2)*%
X155631250Y-57846750D02*
X155631250Y-58696250D01*
X153073250Y-55288750D02*
X155631250Y-57846750D01*
%TO.N,Net-(D7-Pad2)*%
X172144678Y-55288750D02*
X174714582Y-57858654D01*
X174714582Y-57858654D02*
X174714582Y-58696250D01*
%TO.N,Net-(D8-Pad2)*%
X193797914Y-57870558D02*
X193797914Y-58696250D01*
X191216106Y-55288750D02*
X193797914Y-57870558D01*
%TO.N,Net-(D9-Pad2)*%
X210287534Y-55288750D02*
X212881250Y-57882466D01*
X212881250Y-57882466D02*
X212881250Y-58696250D01*
%TO.N,Net-(D10-Pad2)*%
X236605656Y-57846750D02*
X236605656Y-58696250D01*
X234047656Y-55288750D02*
X236605656Y-57846750D01*
%TO.N,Net-(D11-Pad2)*%
X255672322Y-57875322D02*
X255672322Y-58696250D01*
X253085750Y-55288750D02*
X255672322Y-57875322D01*
%TO.N,Net-(D12-Pad2)*%
X272123844Y-55288750D02*
X274738988Y-57903894D01*
X274738988Y-57903894D02*
X274738988Y-58696250D01*
%TO.N,Net-(D13-Pad2)*%
X293805656Y-57932468D02*
X293805656Y-58696250D01*
X291161938Y-55288750D02*
X293805656Y-57932468D01*
%TO.N,Net-(D14-Pad2)*%
X317625000Y-57915500D02*
X317625000Y-58712500D01*
X314998250Y-55288750D02*
X317625000Y-57915500D01*
%TO.N,ROW2*%
X281925000Y-127787500D02*
X281925000Y-121150000D01*
X108303271Y-91318271D02*
X126309229Y-91318271D01*
X260406250Y-90571250D02*
X261153271Y-91318271D01*
X269925000Y-139787500D02*
X278925000Y-130787500D01*
D30*
X236351250Y-152811250D02*
X237375000Y-151787500D01*
D29*
X69059229Y-91318271D02*
X69806250Y-90571250D01*
X345431729Y-91318271D02*
X346193750Y-90556250D01*
X146106250Y-90571250D02*
X146853271Y-91318271D01*
X183459229Y-91318271D02*
X184206250Y-90571250D01*
X259659229Y-91318271D02*
X260406250Y-90571250D01*
X221484229Y-91318271D02*
X222231250Y-90571250D01*
X290394229Y-91318271D02*
X307184229Y-91318271D01*
X126309229Y-91318271D02*
X127056250Y-90571250D01*
X206925000Y-151787500D02*
X237375000Y-151787500D01*
X165903271Y-91318271D02*
X183459229Y-91318271D01*
X283455771Y-91318271D02*
X290394229Y-91318271D01*
X204028271Y-91318271D02*
X221484229Y-91318271D01*
X237375000Y-151787500D02*
X264925000Y-151787500D01*
X127056250Y-90571250D02*
X127803271Y-91318271D01*
X203125000Y-160087500D02*
X203125000Y-155587500D01*
X203125000Y-155587500D02*
X206925000Y-151787500D01*
X184206250Y-90571250D02*
X184953271Y-91318271D01*
X106809229Y-91318271D02*
X107556250Y-90571250D01*
X89753271Y-91318271D02*
X106809229Y-91318271D01*
X89006250Y-90571250D02*
X89753271Y-91318271D01*
X308678271Y-91318271D02*
X345431729Y-91318271D01*
X280128271Y-91318271D02*
X283455771Y-91318271D01*
D30*
X281925000Y-118823467D02*
X284985967Y-115762500D01*
X236351250Y-154343750D02*
X236351250Y-152811250D01*
X281925000Y-121150000D02*
X281925000Y-118823467D01*
D29*
X127803271Y-91318271D02*
X145359229Y-91318271D01*
X203281250Y-90571250D02*
X204028271Y-91318271D01*
X222231250Y-90571250D02*
X222978271Y-91318271D01*
X107556250Y-90571250D02*
X108303271Y-91318271D01*
X307931250Y-90571250D02*
X308678271Y-91318271D01*
X284455771Y-91318271D02*
X283455771Y-91318271D01*
D30*
X284985967Y-115762500D02*
X286950000Y-115762500D01*
D29*
X184953271Y-91318271D02*
X202534229Y-91318271D01*
X165156250Y-90571250D02*
X165903271Y-91318271D01*
X69806250Y-90571250D02*
X70553271Y-91318271D01*
X164409229Y-91318271D02*
X165156250Y-90571250D01*
X88259229Y-91318271D02*
X89006250Y-90571250D01*
X202534229Y-91318271D02*
X203281250Y-90571250D01*
X51603271Y-91318271D02*
X69059229Y-91318271D01*
X145359229Y-91318271D02*
X146106250Y-90571250D01*
X70553271Y-91318271D02*
X88259229Y-91318271D01*
X242153271Y-91318271D02*
X259659229Y-91318271D01*
X222978271Y-91318271D02*
X240659229Y-91318271D01*
X50856250Y-90571250D02*
X51603271Y-91318271D01*
X241406250Y-90571250D02*
X242153271Y-91318271D01*
X261153271Y-91318271D02*
X278634229Y-91318271D01*
X203125000Y-161087500D02*
X203125000Y-160087500D01*
X307184229Y-91318271D02*
X307931250Y-90571250D01*
X269925000Y-146787500D02*
X269925000Y-139787500D01*
X278634229Y-91318271D02*
X279381250Y-90571250D01*
X279381250Y-90571250D02*
X280128271Y-91318271D01*
X286925000Y-93787500D02*
X284455771Y-91318271D01*
X146853271Y-91318271D02*
X164409229Y-91318271D01*
X286950000Y-115762500D02*
X290925000Y-111787500D01*
X240659229Y-91318271D02*
X241406250Y-90571250D01*
%TO.N,Net-(D18-Pad2)*%
X86398250Y-83863750D02*
X89006250Y-86471750D01*
X89006250Y-86471750D02*
X89006250Y-87271250D01*
%TO.N,Net-(D19-Pad2)*%
X107556250Y-85971750D02*
X107556250Y-87271250D01*
X105448250Y-83863750D02*
X107556250Y-85971750D01*
%TO.N,Net-(D20-Pad2)*%
X124498250Y-83863750D02*
X127056250Y-86421750D01*
X127056250Y-86421750D02*
X127056250Y-87271250D01*
%TO.N,Net-(D21-Pad2)*%
X146106250Y-86421750D02*
X146106250Y-87271250D01*
X143548250Y-83863750D02*
X146106250Y-86421750D01*
%TO.N,Net-(D22-Pad2)*%
X162598250Y-83863750D02*
X165156250Y-86421750D01*
X165156250Y-86421750D02*
X165156250Y-87271250D01*
%TO.N,Net-(D23-Pad2)*%
X181648250Y-83863750D02*
X184206250Y-86421750D01*
X184206250Y-86421750D02*
X184206250Y-87271250D01*
%TO.N,Net-(D24-Pad2)*%
X200698250Y-83863750D02*
X203281250Y-86446750D01*
X203281250Y-86446750D02*
X203281250Y-87271250D01*
%TO.N,Net-(D25-Pad2)*%
X222231250Y-86346750D02*
X222231250Y-87271250D01*
X219748250Y-83863750D02*
X222231250Y-86346750D01*
%TO.N,Net-(D26-Pad2)*%
X238798250Y-83863750D02*
X241406250Y-86471750D01*
X241406250Y-86471750D02*
X241406250Y-87271250D01*
%TO.N,Net-(D30-Pad2)*%
X343573250Y-83863750D02*
X346193750Y-86484250D01*
X346193750Y-86484250D02*
X346193750Y-87256250D01*
%TO.N,ROW3*%
X312618750Y-109621250D02*
X313378271Y-110380771D01*
X137303271Y-110368271D02*
X154984229Y-110368271D01*
X288209229Y-110368271D02*
X288956250Y-109621250D01*
X251603271Y-110368271D02*
X269184229Y-110368271D01*
X155731250Y-109621250D02*
X156478271Y-110368271D01*
X288956250Y-109621250D02*
X289703271Y-110368271D01*
X269184229Y-110368271D02*
X269931250Y-109621250D01*
X289703271Y-110368271D02*
X311871729Y-110368271D01*
X277925000Y-123664022D02*
X277925000Y-127787500D01*
X99228271Y-110368271D02*
X116759229Y-110368271D01*
X97734229Y-110368271D02*
X98481250Y-109621250D01*
X206925000Y-150787500D02*
X202325000Y-155387500D01*
X278505771Y-110368271D02*
X278505771Y-123083251D01*
X56265771Y-110368271D02*
X78659229Y-110368271D01*
X237687500Y-150787500D02*
X206925000Y-150787500D01*
X250856250Y-109621250D02*
X251603271Y-110368271D01*
X192984229Y-110368271D02*
X193731250Y-109621250D01*
X173859229Y-110368271D02*
X174606250Y-109621250D01*
X270678271Y-110368271D02*
X278505771Y-110368271D01*
X154984229Y-110368271D02*
X155731250Y-109621250D01*
X136556250Y-109621250D02*
X137303271Y-110368271D01*
X98481250Y-109621250D02*
X99228271Y-110368271D01*
X212806250Y-109621250D02*
X213553271Y-110368271D01*
X55518750Y-109621250D02*
X56265771Y-110368271D01*
X345431729Y-110380771D02*
X346193750Y-109618750D01*
X264925000Y-150787500D02*
X239175000Y-150787500D01*
X175353271Y-110368271D02*
X192984229Y-110368271D01*
X135809229Y-110368271D02*
X136556250Y-109621250D01*
X268925000Y-136787500D02*
X268925000Y-146787500D01*
X232503271Y-110368271D02*
X250109229Y-110368271D01*
X156478271Y-110368271D02*
X173859229Y-110368271D01*
X174606250Y-109621250D02*
X175353271Y-110368271D01*
X202325000Y-155387500D02*
X202325000Y-161087500D01*
X269931250Y-109621250D02*
X270678271Y-110368271D01*
X231756250Y-109621250D02*
X232503271Y-110368271D01*
X212059229Y-110368271D02*
X212806250Y-109621250D01*
X313378271Y-110380771D02*
X345431729Y-110380771D01*
X194478271Y-110368271D02*
X212059229Y-110368271D01*
X311871729Y-110368271D02*
X312618750Y-109621250D01*
X250109229Y-110368271D02*
X250856250Y-109621250D01*
X278505771Y-110368271D02*
X288209229Y-110368271D01*
X274925000Y-130787500D02*
X268925000Y-136787500D01*
X80153271Y-110368271D02*
X97734229Y-110368271D01*
X239175000Y-150787500D02*
X237687500Y-150787500D01*
X231009229Y-110368271D02*
X231756250Y-109621250D01*
X213553271Y-110368271D02*
X231009229Y-110368271D01*
X278505771Y-123083251D02*
X277925000Y-123664022D01*
X78659229Y-110368271D02*
X79406250Y-109621250D01*
X116759229Y-110368271D02*
X117506250Y-109621250D01*
X118253271Y-110368271D02*
X135809229Y-110368271D01*
X79406250Y-109621250D02*
X80153271Y-110368271D01*
X193731250Y-109621250D02*
X194478271Y-110368271D01*
X117506250Y-109621250D02*
X118253271Y-110368271D01*
%TO.N,Net-(D33-Pad2)*%
X98481250Y-105471750D02*
X98481250Y-106321250D01*
X95923250Y-102913750D02*
X98481250Y-105471750D01*
%TO.N,Net-(D34-Pad2)*%
X114973250Y-102913750D02*
X117506250Y-105446750D01*
X117506250Y-105446750D02*
X117506250Y-106321250D01*
%TO.N,Net-(D35-Pad2)*%
X136556250Y-105446750D02*
X136556250Y-106321250D01*
X134023250Y-102913750D02*
X136556250Y-105446750D01*
%TO.N,Net-(D36-Pad2)*%
X153073250Y-102913750D02*
X155731250Y-105571750D01*
X155731250Y-105571750D02*
X155731250Y-106321250D01*
%TO.N,Net-(D37-Pad2)*%
X174606250Y-105396750D02*
X174606250Y-106321250D01*
X172123250Y-102913750D02*
X174606250Y-105396750D01*
%TO.N,Net-(D38-Pad2)*%
X191173250Y-102913750D02*
X193731250Y-105471750D01*
X193731250Y-105471750D02*
X193731250Y-106321250D01*
%TO.N,Net-(D39-Pad2)*%
X210223250Y-102913750D02*
X212806250Y-105496750D01*
X212806250Y-105496750D02*
X212806250Y-106321250D01*
%TO.N,Net-(D40-Pad2)*%
X231756250Y-105396750D02*
X231756250Y-106321250D01*
X229273250Y-102913750D02*
X231756250Y-105396750D01*
%TO.N,Net-(D41-Pad2)*%
X250856250Y-105446750D02*
X250856250Y-106321250D01*
X248323250Y-102913750D02*
X250856250Y-105446750D01*
%TO.N,Net-(D42-Pad2)*%
X269931250Y-105471750D02*
X269931250Y-106321250D01*
X267373250Y-102913750D02*
X269931250Y-105471750D01*
%TO.N,Net-(D43-Pad2)*%
X288956250Y-105446750D02*
X288956250Y-106321250D01*
X286423250Y-102913750D02*
X288956250Y-105446750D01*
%TO.N,Net-(D44-Pad2)*%
X310235750Y-102913750D02*
X312618750Y-105296750D01*
X312618750Y-105296750D02*
X312618750Y-106321250D01*
%TO.N,Net-(D46-Pad2)*%
X122268750Y-124496750D02*
X122268750Y-125371250D01*
X119735750Y-121963750D02*
X122268750Y-124496750D01*
%TO.N,Net-(D45-Pad2)*%
X346193750Y-105546750D02*
X346193750Y-106318750D01*
X343573250Y-102926250D02*
X346193750Y-105546750D01*
%TO.N,ROW4*%
X274518750Y-128671250D02*
X275265771Y-129418271D01*
X159571729Y-129418271D02*
X160318750Y-128671250D01*
X85065771Y-129418271D02*
X102421729Y-129418271D01*
X123015771Y-129418271D02*
X140546729Y-129418271D01*
X269294229Y-129418271D02*
X267925000Y-130787500D01*
X264925000Y-149787500D02*
X246087500Y-149787500D01*
X160318750Y-128671250D02*
X161065771Y-129418271D01*
X275265771Y-129418271D02*
X304752979Y-129418271D01*
X58472021Y-129418271D02*
X83571729Y-129418271D01*
X141293750Y-128671250D02*
X142040771Y-129418271D01*
X121521729Y-129418271D02*
X122268750Y-128671250D01*
X217468750Y-128671250D02*
X218215771Y-129418271D01*
X180040771Y-129418271D02*
X197721729Y-129418271D01*
X345431729Y-129443271D02*
X346193750Y-128681250D01*
X122268750Y-128671250D02*
X123015771Y-129418271D01*
X267925000Y-130787500D02*
X267925000Y-146787500D01*
X256415771Y-129418271D02*
X269294229Y-129418271D01*
X235721729Y-129418271D02*
X236468750Y-128671250D01*
X254921729Y-129418271D02*
X255668750Y-128671250D01*
D30*
X245875000Y-149787500D02*
X246087500Y-149787500D01*
D29*
X273771729Y-129418271D02*
X274518750Y-128671250D01*
X242887500Y-149787500D02*
X206925000Y-149787500D01*
X199215771Y-129418271D02*
X216721729Y-129418271D01*
X305500000Y-128671250D02*
X306272021Y-129443271D01*
X197721729Y-129418271D02*
X198468750Y-128671250D01*
X201525000Y-155187500D02*
X201525000Y-161087500D01*
X142040771Y-129418271D02*
X159571729Y-129418271D01*
X84318750Y-128671250D02*
X85065771Y-129418271D01*
X179293750Y-128671250D02*
X180040771Y-129418271D01*
X206925000Y-149787500D02*
X201525000Y-155187500D01*
X236468750Y-128671250D02*
X237215771Y-129418271D01*
X245875000Y-149787500D02*
X242887500Y-149787500D01*
X255668750Y-128671250D02*
X256415771Y-129418271D01*
X178546729Y-129418271D02*
X179293750Y-128671250D01*
X237215771Y-129418271D02*
X254921729Y-129418271D01*
X103168750Y-128671250D02*
X103915771Y-129418271D01*
X83571729Y-129418271D02*
X84318750Y-128671250D01*
X306272021Y-129443271D02*
X345431729Y-129443271D01*
X161065771Y-129418271D02*
X178546729Y-129418271D01*
X198468750Y-128671250D02*
X199215771Y-129418271D01*
X304752979Y-129418271D02*
X305500000Y-128671250D01*
X103915771Y-129418271D02*
X121521729Y-129418271D01*
X216721729Y-129418271D02*
X217468750Y-128671250D01*
X57725000Y-128671250D02*
X58472021Y-129418271D01*
X218215771Y-129418271D02*
X235721729Y-129418271D01*
X269294229Y-129418271D02*
X273771729Y-129418271D01*
X140546729Y-129418271D02*
X141293750Y-128671250D01*
X102421729Y-129418271D02*
X103168750Y-128671250D01*
%TO.N,Net-(D49-Pad2)*%
X100685750Y-121963750D02*
X103168750Y-124446750D01*
X103168750Y-124446750D02*
X103168750Y-125371250D01*
%TO.N,Net-(D51-Pad2)*%
X141293750Y-124471750D02*
X141293750Y-125371250D01*
X138785750Y-121963750D02*
X141293750Y-124471750D01*
%TO.N,Net-(D52-Pad2)*%
X157835750Y-121963750D02*
X160318750Y-124446750D01*
X160318750Y-124446750D02*
X160318750Y-125371250D01*
%TO.N,Net-(D53-Pad2)*%
X176885750Y-121963750D02*
X179293750Y-124371750D01*
X179293750Y-124371750D02*
X179293750Y-125371250D01*
%TO.N,Net-(D54-Pad2)*%
X198468750Y-124496750D02*
X198468750Y-125371250D01*
X195935750Y-121963750D02*
X198468750Y-124496750D01*
%TO.N,Net-(D55-Pad2)*%
X217468750Y-124446750D02*
X217468750Y-125371250D01*
X214985750Y-121963750D02*
X217468750Y-124446750D01*
%TO.N,Net-(D56-Pad2)*%
X236468750Y-124396750D02*
X236468750Y-125371250D01*
X234035750Y-121963750D02*
X236468750Y-124396750D01*
%TO.N,Net-(D59-Pad2)*%
X305500000Y-124371750D02*
X305500000Y-125371250D01*
X303092000Y-121963750D02*
X305500000Y-124371750D01*
%TO.N,Net-(D60-Pad2)*%
X346193750Y-124609250D02*
X346193750Y-125381250D01*
X343573250Y-121988750D02*
X346193750Y-124609250D01*
%TO.N,ROW5*%
X132587991Y-148468271D02*
X150130059Y-148468271D01*
X62487500Y-147721250D02*
X63234521Y-148468271D01*
X245385609Y-148468271D02*
X246132630Y-147721250D01*
X131840970Y-147721250D02*
X132587991Y-148468271D01*
X131093949Y-148468271D02*
X131840970Y-147721250D01*
X226324499Y-148468271D02*
X227071520Y-147721250D01*
D30*
X200725000Y-155337500D02*
X200725000Y-155031660D01*
D29*
X208035410Y-147721250D02*
X208782431Y-148468271D01*
X311606730Y-152105771D02*
X312731730Y-153230771D01*
X227818541Y-148468271D02*
X245385609Y-148468271D01*
X264446729Y-148468271D02*
X265193750Y-147721250D01*
X202244229Y-148468271D02*
X207288389Y-148468271D01*
X341422500Y-152515000D02*
X322368750Y-152515000D01*
X113551881Y-148468271D02*
X131093949Y-148468271D01*
X220605771Y-148468271D02*
X226324499Y-148468271D01*
X169938190Y-147721250D02*
X170685211Y-148468271D01*
X227071520Y-147721250D02*
X227818541Y-148468271D01*
X112804860Y-147721250D02*
X113551881Y-148468271D01*
X150877080Y-147721250D02*
X151624101Y-148468271D01*
X265940771Y-148468271D02*
X290365479Y-148468271D01*
X150130059Y-148468271D02*
X150877080Y-147721250D01*
X290365479Y-148468271D02*
X291112500Y-147721250D01*
X207288389Y-148468271D02*
X208035410Y-147721250D01*
X189746321Y-148468271D02*
X202244229Y-148468271D01*
D30*
X200725000Y-155031660D02*
X207288389Y-148468271D01*
D29*
X295497021Y-152105771D02*
X311606730Y-152105771D01*
X321652979Y-153230771D02*
X322368750Y-152515000D01*
X246879651Y-148468271D02*
X264446729Y-148468271D01*
X265193750Y-147721250D02*
X265940771Y-148468271D01*
X208782431Y-148468271D02*
X220605771Y-148468271D01*
X112057839Y-148468271D02*
X112804860Y-147721250D01*
X170685211Y-148468271D02*
X188252279Y-148468271D01*
X246132630Y-147721250D02*
X246879651Y-148468271D01*
X169191169Y-148468271D02*
X169938190Y-147721250D01*
X188999300Y-147721250D02*
X189746321Y-148468271D01*
X93019229Y-148468271D02*
X93743750Y-147743750D01*
X94468271Y-148468271D02*
X112057839Y-148468271D01*
X93743750Y-147743750D02*
X94468271Y-148468271D01*
X200725000Y-161087500D02*
X200725000Y-155337500D01*
X312731730Y-153230771D02*
X321652979Y-153230771D01*
X291112500Y-147721250D02*
X295497021Y-152105771D01*
X346193750Y-147743750D02*
X341422500Y-152515000D01*
X63234521Y-148468271D02*
X93019229Y-148468271D01*
X151624101Y-148468271D02*
X169191169Y-148468271D01*
X188252279Y-148468271D02*
X188999300Y-147721250D01*
%TO.N,Net-(D61-Pad2)*%
X60204500Y-141013750D02*
X62487500Y-143296750D01*
X62487500Y-143296750D02*
X62487500Y-144421250D01*
%TO.N,Net-(D62-Pad2)*%
X93743750Y-143596750D02*
X93743750Y-144443750D01*
X91160750Y-141013750D02*
X93743750Y-143596750D01*
%TO.N,Net-(D63-Pad2)*%
X110210750Y-141013750D02*
X112804860Y-143607860D01*
X112804860Y-143607860D02*
X112804860Y-144421250D01*
%TO.N,Net-(D65-Pad2)*%
X148310750Y-141013750D02*
X150877080Y-143580080D01*
X150877080Y-143580080D02*
X150877080Y-144421250D01*
%TO.N,Net-(D67-Pad2)*%
X188999300Y-143602300D02*
X188999300Y-144421250D01*
X186410750Y-141013750D02*
X188999300Y-143602300D01*
%TO.N,Net-(D68-Pad2)*%
X208035410Y-143588410D02*
X208035410Y-144421250D01*
X205460750Y-141013750D02*
X208035410Y-143588410D01*
%TO.N,Net-(D72-Pad2)*%
X288804500Y-141013750D02*
X291112500Y-143321750D01*
X291112500Y-143321750D02*
X291112500Y-144421250D01*
%TO.N,Net-(D73-Pad2)*%
X319760750Y-145776250D02*
X322368750Y-148384250D01*
X322368750Y-148384250D02*
X322368750Y-149215000D01*
%TO.N,Net-(D74-Pad2)*%
X343573250Y-141051250D02*
X346193750Y-143671750D01*
X346193750Y-143671750D02*
X346193750Y-144443750D01*
%TO.N,ROW6*%
X284224521Y-172262021D02*
X279256250Y-167293750D01*
D30*
X254382771Y-162554074D02*
X251531250Y-159702553D01*
D29*
X77674521Y-167518271D02*
X100562979Y-167518271D01*
X304034521Y-172280771D02*
X303268750Y-171515000D01*
X302521729Y-172262021D02*
X284224521Y-172262021D01*
X323168271Y-172280771D02*
X322368750Y-171481250D01*
X260480771Y-167518271D02*
X260206250Y-167243750D01*
X53237500Y-166968750D02*
X53787021Y-167518271D01*
X168925000Y-172787500D02*
X163655771Y-167518271D01*
X260206250Y-167243750D02*
X259931729Y-167518271D01*
X240587500Y-167787500D02*
X237925000Y-167787500D01*
X171875479Y-167518271D02*
X172300000Y-167093750D01*
D30*
X260206250Y-167243750D02*
X257416331Y-167243750D01*
D29*
X259931729Y-167518271D02*
X241505771Y-167518271D01*
X340652979Y-172280771D02*
X323168271Y-172280771D01*
X198255636Y-156044326D02*
X183668174Y-156044326D01*
X279256250Y-167293750D02*
X279031729Y-167518271D01*
D30*
X251531250Y-159702553D02*
X251531250Y-158943750D01*
D29*
X322368750Y-171481250D02*
X321569229Y-172280771D01*
X199925000Y-161087500D02*
X199925000Y-157713690D01*
X163655771Y-167518271D02*
X171875479Y-167518271D01*
X241181250Y-167193750D02*
X240587500Y-167787500D01*
X76575479Y-167518271D02*
X77125000Y-166968750D01*
X172618750Y-167093750D02*
X172300000Y-167093750D01*
X77125000Y-166968750D02*
X77674521Y-167518271D01*
X101112500Y-166968750D02*
X101662021Y-167518271D01*
X321569229Y-172280771D02*
X304034521Y-172280771D01*
X199925000Y-157713690D02*
X198255636Y-156044326D01*
X100562979Y-167518271D02*
X101112500Y-166968750D01*
D30*
X257416331Y-167243750D02*
X254382771Y-164210190D01*
D29*
X241505771Y-167518271D02*
X241181250Y-167193750D01*
D30*
X254382771Y-164210190D02*
X254382771Y-162554074D01*
D29*
X341418750Y-171515000D02*
X340652979Y-172280771D01*
X53787021Y-167518271D02*
X76575479Y-167518271D01*
X101662021Y-167518271D02*
X163655771Y-167518271D01*
X279031729Y-167518271D02*
X260480771Y-167518271D01*
X183668174Y-156044326D02*
X172618750Y-167093750D01*
X303268750Y-171515000D02*
X302521729Y-172262021D01*
%TO.N,Net-(D76-Pad2)*%
X74492000Y-160063750D02*
X77125000Y-162696750D01*
X77125000Y-162696750D02*
X77125000Y-163668750D01*
%TO.N,Net-(D78-Pad2)*%
X172300000Y-162621750D02*
X172300000Y-163793750D01*
X169742000Y-160063750D02*
X172300000Y-162621750D01*
%TO.N,Net-(D80-Pad2)*%
X257848250Y-160063750D02*
X257848250Y-161585750D01*
X257848250Y-161585750D02*
X260206250Y-163943750D01*
%TO.N,Net-(D82-Pad2)*%
X300692000Y-164807500D02*
X303268750Y-167384250D01*
X303268750Y-167384250D02*
X303268750Y-168215000D01*
%TO.N,Net-(D83-Pad2)*%
X322368750Y-167434250D02*
X322368750Y-168181250D01*
X319760750Y-164826250D02*
X322368750Y-167434250D01*
%TO.N,Net-(D84-Pad2)*%
X338810750Y-164826250D02*
X341418750Y-167434250D01*
X341418750Y-167434250D02*
X341418750Y-168215000D01*
%TO.N,COL5*%
X116368868Y-57828750D02*
X116368868Y-59343632D01*
X121096250Y-108616250D02*
X120925000Y-108787500D01*
X135383750Y-143553750D02*
X135383750Y-143246250D01*
X135383750Y-143246250D02*
X133815625Y-141678125D01*
X125858750Y-124503750D02*
X125858750Y-126721250D01*
X121096250Y-105453750D02*
X121096250Y-108616250D01*
X194225000Y-163587500D02*
X189113422Y-163587500D01*
D30*
X111571250Y-86403750D02*
X119677730Y-78297270D01*
X119677730Y-78297270D02*
X164606304Y-78297270D01*
D29*
X135383750Y-142246250D02*
X135383750Y-143553750D01*
X111571250Y-86403750D02*
X111571250Y-89630292D01*
D30*
X164606304Y-78297270D02*
X166859824Y-76043750D01*
D29*
X189113422Y-163587500D02*
X188925146Y-163775776D01*
X116368868Y-59343632D02*
X114925000Y-60787500D01*
X111571250Y-89630292D02*
X112326729Y-90385771D01*
X125858750Y-126721250D02*
X125925000Y-126787500D01*
%TO.N,COL7*%
X159196250Y-105453750D02*
X159196250Y-103840000D01*
X197525000Y-158387500D02*
X197525000Y-161087500D01*
X163958750Y-122102500D02*
X163925000Y-122068750D01*
X196925000Y-157787500D02*
X197525000Y-158387500D01*
D30*
X156870690Y-79204310D02*
X171456406Y-79204310D01*
X149671250Y-86403750D02*
X156870690Y-79204310D01*
D29*
X159217678Y-61494822D02*
X158925000Y-61787500D01*
X149671250Y-88340000D02*
X149925000Y-88593750D01*
X159196250Y-103840000D02*
X158925000Y-103568750D01*
X159217678Y-57828750D02*
X159217678Y-61494822D01*
D30*
X171456406Y-79204310D02*
X174616966Y-76043750D01*
D29*
X163958750Y-124503750D02*
X163958750Y-122102500D01*
X173483750Y-143553750D02*
X173483750Y-142346250D01*
X173483750Y-142346250D02*
X172925000Y-141787500D01*
X149671250Y-86403750D02*
X149671250Y-88340000D01*
D30*
X174616966Y-76043750D02*
X173831250Y-76043750D01*
D29*
%TO.N,COL8*%
X183008750Y-126703750D02*
X182925000Y-126787500D01*
D30*
X168721250Y-88583750D02*
X168925000Y-88787500D01*
D29*
X178289106Y-57828750D02*
X178289106Y-60423394D01*
X198325000Y-158162902D02*
X198325000Y-161087500D01*
X192533750Y-143553750D02*
X192533750Y-141396250D01*
X198225000Y-161087500D02*
X198124511Y-160987011D01*
X178246250Y-107466250D02*
X177925000Y-107787500D01*
X198325000Y-161087500D02*
X198225000Y-161087500D01*
X178246250Y-105453750D02*
X178246250Y-107466250D01*
D30*
X168721250Y-86403750D02*
X168721250Y-88583750D01*
D29*
X196937299Y-156775201D02*
X198325000Y-158162902D01*
X178289106Y-60423394D02*
X177925000Y-60787500D01*
X192533750Y-141396250D02*
X191925000Y-140787500D01*
X183008750Y-124503750D02*
X183008750Y-126703750D01*
%TO.N,Net-(D16-Pad2)*%
X50856250Y-86421750D02*
X50856250Y-87271250D01*
X48298250Y-83863750D02*
X50856250Y-86421750D01*
%TO.N,Net-(D17-Pad2)*%
X67348250Y-83863750D02*
X69806250Y-86321750D01*
X69806250Y-86321750D02*
X69806250Y-87271250D01*
%TO.N,Net-(D31-Pad2)*%
X53060750Y-102913750D02*
X55518750Y-105371750D01*
X55518750Y-105371750D02*
X55518750Y-106321250D01*
%TO.N,Net-(D32-Pad2)*%
X76873250Y-102913750D02*
X79406250Y-105446750D01*
X79406250Y-105446750D02*
X79406250Y-106321250D01*
%TO.N,COL15*%
X330646250Y-86403750D02*
X330646250Y-89066250D01*
X329925000Y-155287500D02*
X329925000Y-153787500D01*
X325883750Y-167366250D02*
X330298271Y-162951729D01*
X337589229Y-162951729D02*
X331925000Y-157287500D01*
X330646250Y-57828750D02*
X330808750Y-57828750D01*
X219925000Y-172787500D02*
X215525000Y-168387500D01*
D30*
X291200500Y-77843750D02*
X322086250Y-77843750D01*
D29*
X330646250Y-57828750D02*
X330646250Y-60066250D01*
X330646250Y-124528750D02*
X330646250Y-127066250D01*
X341925000Y-172787500D02*
X219925000Y-172787500D01*
X330646250Y-127066250D02*
X329925000Y-127787500D01*
X342343261Y-165205761D02*
X342343261Y-172369239D01*
X331925000Y-157287500D02*
X329925000Y-155287500D01*
X337589229Y-162951729D02*
X340089229Y-162951729D01*
X330646250Y-145066250D02*
X329925000Y-145787500D01*
X330646250Y-89066250D02*
X329925000Y-89787500D01*
X330646250Y-60066250D02*
X329925000Y-60787500D01*
D30*
X322086250Y-77843750D02*
X330646250Y-86403750D01*
D29*
X215525000Y-168387500D02*
X205625000Y-168387500D01*
X330298271Y-162951729D02*
X337589229Y-162951729D01*
X330646250Y-108066250D02*
X329925000Y-108787500D01*
X330646250Y-143591250D02*
X330646250Y-145066250D01*
X330808750Y-57828750D02*
X335250000Y-53387500D01*
X330646250Y-105466250D02*
X330646250Y-108066250D01*
X342343261Y-172369239D02*
X341925000Y-172787500D01*
X340089229Y-162951729D02*
X342343261Y-165205761D01*
D31*
%TO.N,+5V*%
X196725000Y-162025000D02*
X196725000Y-161087500D01*
X192275003Y-174787509D02*
X190200483Y-172712990D01*
X203125000Y-172487500D02*
X203125000Y-171356500D01*
X199952246Y-169187500D02*
X198712500Y-169187500D01*
X205625000Y-170787500D02*
X201552246Y-170787500D01*
X211368750Y-162462500D02*
X211043750Y-162787500D01*
X197487500Y-162787500D02*
X196725000Y-162025000D01*
X215958750Y-162462500D02*
X218368750Y-162462500D01*
D29*
X203125000Y-172487500D02*
X203125000Y-171685222D01*
X196725000Y-162087500D02*
X196725000Y-161087500D01*
D31*
X201552246Y-170787500D02*
X199952246Y-169187500D01*
X222500000Y-161800000D02*
X219031250Y-161800000D01*
X191500379Y-169187495D02*
X194225012Y-169187495D01*
X199125000Y-169600000D02*
X198712500Y-169187500D01*
X202556000Y-170787500D02*
X201552246Y-170787500D01*
X198712500Y-169187500D02*
X196612500Y-169187500D01*
X219031250Y-161800000D02*
X218368750Y-162462500D01*
D29*
X205625000Y-162787500D02*
X197425000Y-162787500D01*
D31*
X196612500Y-169187500D02*
X194225000Y-169187500D01*
X190200483Y-170487391D02*
X191500379Y-169187495D01*
X199125000Y-172487500D02*
X199125000Y-169600000D01*
X197487500Y-162787500D02*
X197487500Y-168399022D01*
X213618750Y-162462500D02*
X211368750Y-162462500D01*
D29*
X197425000Y-162787500D02*
X196725000Y-162087500D01*
D31*
X197487500Y-168399022D02*
X196699022Y-169187500D01*
X190200483Y-172712990D02*
X190200483Y-170487391D01*
X211043750Y-162787500D02*
X205625000Y-162787500D01*
X203125000Y-171356500D02*
X202556000Y-170787500D01*
X215958750Y-162462500D02*
X213618750Y-162462500D01*
X196699022Y-169187500D02*
X196612500Y-169187500D01*
X205625000Y-162787500D02*
X197487500Y-162787500D01*
D29*
%TO.N,Net-(R4-Pad2)*%
X208587500Y-176787500D02*
X207812500Y-177562500D01*
X202325000Y-173675000D02*
X202325000Y-172487500D01*
X207812500Y-177562500D02*
X206212500Y-177562500D01*
X206212500Y-177562500D02*
X202325000Y-173675000D01*
X209100000Y-176787500D02*
X208587500Y-176787500D01*
%TO.N,Net-(R3-Pad1)*%
X206026302Y-178012020D02*
X201525000Y-173510718D01*
X209100000Y-178787500D02*
X208537500Y-178787500D01*
X207762020Y-178012020D02*
X206026302Y-178012020D01*
X208537500Y-178787500D02*
X207762020Y-178012020D01*
X201525000Y-173510718D02*
X201525000Y-172487500D01*
D31*
%TO.N,GND*%
X319143750Y-50177500D02*
X319143750Y-53557500D01*
X213618750Y-160912500D02*
X215958750Y-160912500D01*
X313800000Y-156400000D02*
X222881250Y-156400000D01*
X320123750Y-53557500D02*
X320493750Y-53187500D01*
X209575000Y-159787500D02*
X210243750Y-159787500D01*
X222881250Y-156400000D02*
X218368750Y-160912500D01*
X194225000Y-168387500D02*
X189960718Y-168387500D01*
D29*
X184300000Y-165225000D02*
X184225000Y-165300000D01*
X203937299Y-164275201D02*
X203925000Y-164287500D01*
X194325000Y-168287500D02*
X194225000Y-168387500D01*
D31*
X326443750Y-53187500D02*
X327423750Y-53187500D01*
X185925003Y-169987493D02*
X185925003Y-172293763D01*
X327793750Y-50177500D02*
X327793750Y-53557500D01*
X198487500Y-179000000D02*
X195200000Y-179000000D01*
X327423750Y-53187500D02*
X327793750Y-53557500D01*
X188360710Y-169987493D02*
X185925003Y-169987493D01*
X203937299Y-164299799D02*
X203937299Y-169775201D01*
X200725000Y-171425495D02*
X200898998Y-171251497D01*
X189960718Y-168387500D02*
X188360718Y-169987500D01*
X319143750Y-50177500D02*
X327793750Y-50177500D01*
X199700000Y-177787500D02*
X198487500Y-179000000D01*
X203925000Y-164287500D02*
X203937299Y-164299799D01*
X215958750Y-160912500D02*
X218368750Y-160912500D01*
D29*
X204149598Y-169987500D02*
X205625000Y-169987500D01*
D31*
X184225006Y-165300000D02*
X184225006Y-167787498D01*
X320493750Y-54537500D02*
X320493750Y-53187500D01*
X205625000Y-163587500D02*
X204625000Y-163587500D01*
X211368750Y-160912500D02*
X213618750Y-160912500D01*
X195925008Y-168400000D02*
X194325011Y-168400000D01*
D29*
X203937299Y-169775201D02*
X203937299Y-164275201D01*
X195925000Y-162787500D02*
X195925000Y-161087500D01*
D31*
X204625000Y-163587500D02*
X203925000Y-164287500D01*
X326443750Y-54537500D02*
X326443750Y-53187500D01*
D29*
X185925000Y-172293750D02*
X185850000Y-172368750D01*
X203937299Y-169775201D02*
X204149598Y-169987500D01*
D31*
X200725000Y-172487500D02*
X200725000Y-171425495D01*
X210243750Y-159787500D02*
X211368750Y-160912500D01*
D29*
X200725000Y-176762500D02*
X200725000Y-172487500D01*
D31*
X319143750Y-53557500D02*
X320123750Y-53557500D01*
X195200000Y-179000000D02*
X194600000Y-178400000D01*
D29*
X199700000Y-177787500D02*
X200725000Y-176762500D01*
%TO.N,Net-(C4-Pad1)*%
X198150000Y-177787500D02*
X199925000Y-176012500D01*
X199925000Y-176012500D02*
X199925000Y-172487500D01*
D30*
%TO.N,Net-(R2-Pad2)*%
X193925000Y-175625000D02*
X194600000Y-176300000D01*
D29*
X195299511Y-171387011D02*
X193925000Y-172761522D01*
D30*
X193925000Y-174787500D02*
X193925000Y-175625000D01*
D29*
X195299511Y-170162011D02*
X195125000Y-169987500D01*
X195299511Y-171387011D02*
X195299511Y-170162011D01*
X195125000Y-169987500D02*
X194225000Y-169987500D01*
X193925000Y-172761522D02*
X193925000Y-174787500D01*
%TO.N,Net-(C3-Pad2)*%
X184225000Y-169987500D02*
X184225000Y-169037500D01*
D30*
X184225006Y-169987493D02*
X184225006Y-172293763D01*
D29*
X188900489Y-168812011D02*
X190125000Y-167587500D01*
X184450489Y-168812011D02*
X188900489Y-168812011D01*
X190125000Y-167587500D02*
X194225000Y-167587500D01*
X184225000Y-172293750D02*
X184300000Y-172368750D01*
X184225000Y-169037500D02*
X184450489Y-168812011D01*
%TO.N,Net-(C2-Pad1)*%
X185925000Y-167787500D02*
X185925000Y-165300000D01*
X194225000Y-166787500D02*
X189960718Y-166787500D01*
X188960718Y-167787500D02*
X185925000Y-167787500D01*
X185925000Y-165300000D02*
X185850000Y-165225000D01*
X189960718Y-166787500D02*
X188960718Y-167787500D01*
%TO.N,Net-(R5-Pad1)*%
X206625000Y-161087500D02*
X207925000Y-159787500D01*
X203925000Y-161087500D02*
X206625000Y-161087500D01*
D32*
%TO.N,D+*%
X211524999Y-178012501D02*
X210750000Y-178787500D01*
X226106801Y-178225001D02*
X225894301Y-178012501D01*
X225894301Y-178012501D02*
X211524999Y-178012501D01*
X231700001Y-178225001D02*
X226106801Y-178225001D01*
X232000000Y-178525000D02*
X231700001Y-178225001D01*
%TO.N,D-*%
X211524999Y-177562499D02*
X210750000Y-176787500D01*
X210750000Y-176787500D02*
X210925000Y-176787500D01*
X323043750Y-54468952D02*
X323893750Y-53618952D01*
X226293199Y-177774999D02*
X226080699Y-177562499D01*
X232000000Y-177475000D02*
X231700001Y-177774999D01*
X226080699Y-177562499D02*
X211524999Y-177562499D01*
X323043750Y-54537500D02*
X323043750Y-54468952D01*
X323893750Y-53618952D02*
X323893750Y-53187500D01*
X231700001Y-177774999D02*
X226293199Y-177774999D01*
D29*
%TO.N,/ROT1*%
X340250000Y-53387500D02*
X341672000Y-53387500D01*
X343573250Y-55288750D02*
X346131250Y-57846750D01*
X341672000Y-53387500D02*
X343573250Y-55288750D01*
X346131250Y-57846750D02*
X346131250Y-58643750D01*
D30*
%TO.N,ROT_A*%
X197525000Y-174269355D02*
X197625461Y-174369816D01*
X197525000Y-172487500D02*
X197525000Y-174269355D01*
%TO.N,ROT_B*%
X198300000Y-174100000D02*
X198300000Y-172512500D01*
X198300000Y-172512500D02*
X198325000Y-172487500D01*
X199200000Y-175000000D02*
X199200000Y-175100000D01*
X198300000Y-174100000D02*
X199200000Y-175000000D01*
D31*
%TO.N,VCC*%
X325593750Y-53187500D02*
X325593750Y-54537500D01*
X321343750Y-53187500D02*
X321343750Y-54537500D01*
X322236276Y-51800000D02*
X324701224Y-51800000D01*
X223900000Y-157600000D02*
X222500000Y-159000000D01*
X321343750Y-53187500D02*
X321343750Y-52692526D01*
X324701224Y-51800000D02*
X325593750Y-52692526D01*
X325593750Y-52692526D02*
X325593750Y-53187500D01*
X321343750Y-52692526D02*
X322236276Y-51800000D01*
X317800000Y-157600000D02*
X223900000Y-157600000D01*
%TD*%
M02*
