%TF.GenerationSoftware,KiCad,Pcbnew,(6.0.0)*%
%TF.CreationDate,2022-01-14T20:24:59+07:00*%
%TF.ProjectId,fese75,66657365-3735-42e6-9b69-6361645f7063,rev?*%
%TF.SameCoordinates,Original*%
%TF.FileFunction,Paste,Bot*%
%TF.FilePolarity,Positive*%
%FSLAX46Y46*%
G04 Gerber Fmt 4.6, Leading zero omitted, Abs format (unit mm)*
G04 Created by KiCad (PCBNEW (6.0.0)) date 2022-01-14 20:24:59*
%MOMM*%
%LPD*%
G01*
G04 APERTURE LIST*
G04 Aperture macros list*
%AMRoundRect*
0 Rectangle with rounded corners*
0 $1 Rounding radius*
0 $2 $3 $4 $5 $6 $7 $8 $9 X,Y pos of 4 corners*
0 Add a 4 corners polygon primitive as box body*
4,1,4,$2,$3,$4,$5,$6,$7,$8,$9,$2,$3,0*
0 Add four circle primitives for the rounded corners*
1,1,$1+$1,$2,$3*
1,1,$1+$1,$4,$5*
1,1,$1+$1,$6,$7*
1,1,$1+$1,$8,$9*
0 Add four rect primitives between the rounded corners*
20,1,$1+$1,$2,$3,$4,$5,0*
20,1,$1+$1,$4,$5,$6,$7,0*
20,1,$1+$1,$6,$7,$8,$9,0*
20,1,$1+$1,$8,$9,$2,$3,0*%
G04 Aperture macros list end*
%ADD10R,2.550000X2.500000*%
%ADD11R,1.200000X0.900000*%
%ADD12RoundRect,0.200000X-0.200000X-0.275000X0.200000X-0.275000X0.200000X0.275000X-0.200000X0.275000X0*%
%ADD13RoundRect,0.200000X0.200000X0.275000X-0.200000X0.275000X-0.200000X-0.275000X0.200000X-0.275000X0*%
%ADD14RoundRect,0.225000X0.250000X-0.225000X0.250000X0.225000X-0.250000X0.225000X-0.250000X-0.225000X0*%
%ADD15RoundRect,0.225000X0.225000X0.250000X-0.225000X0.250000X-0.225000X-0.250000X0.225000X-0.250000X0*%
%ADD16RoundRect,0.250000X0.625000X-0.375000X0.625000X0.375000X-0.625000X0.375000X-0.625000X-0.375000X0*%
%ADD17RoundRect,0.225000X-0.225000X-0.250000X0.225000X-0.250000X0.225000X0.250000X-0.225000X0.250000X0*%
%ADD18R,1.200000X1.400000*%
%ADD19R,0.550000X1.500000*%
%ADD20R,1.500000X0.550000*%
G04 APERTURE END LIST*
D10*
%TO.C,R1*%
X121096250Y-105453750D03*
X134023250Y-102913750D03*
%TD*%
%TO.C,H1*%
X163958750Y-124503750D03*
X176885750Y-121963750D03*
%TD*%
%TO.C,/1*%
X249683750Y-143553750D03*
X262610750Y-141013750D03*
%TD*%
%TO.C,[1*%
X254446250Y-105453750D03*
X267373250Y-102913750D03*
%TD*%
%TO.C,MX8*%
X187771250Y-86403750D03*
X200698250Y-83863750D03*
%TD*%
%TO.C,UP1*%
X306833750Y-148316250D03*
X319760750Y-145776250D03*
%TD*%
%TO.C,F7*%
X178289106Y-57828750D03*
X191216106Y-55288750D03*
%TD*%
%TO.C,WIN1*%
X61565000Y-162603750D03*
X74492000Y-160063750D03*
%TD*%
%TO.C,MX6*%
X149671250Y-86403750D03*
X162598250Y-83863750D03*
%TD*%
%TO.C,TAB1*%
X40133750Y-105453750D03*
X53060750Y-102913750D03*
%TD*%
%TO.C,MX7*%
X168721250Y-86403750D03*
X181648250Y-83863750D03*
%TD*%
%TO.C,MX5*%
X130621250Y-86403750D03*
X143548250Y-83863750D03*
%TD*%
%TO.C,Q1*%
X63946250Y-105453750D03*
X76873250Y-102913750D03*
%TD*%
%TO.C,BACK1*%
X292546250Y-86403750D03*
X305473250Y-83863750D03*
%TD*%
%TO.C,E1*%
X102046250Y-105453750D03*
X114973250Y-102913750D03*
%TD*%
%TO.C,;1*%
X240158750Y-124503750D03*
X253085750Y-121963750D03*
%TD*%
%TO.C,\u002C1*%
X211583750Y-143553750D03*
X224510750Y-141013750D03*
%TD*%
%TO.C,P1*%
X235396250Y-105453750D03*
X248323250Y-102913750D03*
%TD*%
%TO.C,ALT2*%
X225871250Y-162603750D03*
X238798250Y-160063750D03*
%TD*%
%TO.C,X1*%
X97283750Y-143553750D03*
X110210750Y-141013750D03*
%TD*%
%TO.C,ENTER1*%
X290165000Y-124503750D03*
X303092000Y-121963750D03*
%TD*%
%TO.C,OPT3*%
X330646250Y-105466250D03*
X343573250Y-102926250D03*
%TD*%
%TO.C,F5*%
X140146250Y-57828750D03*
X153073250Y-55288750D03*
%TD*%
%TO.C,F9*%
X221120656Y-57828750D03*
X234047656Y-55288750D03*
%TD*%
%TO.C,OPT2*%
X330646250Y-86403750D03*
X343573250Y-83863750D03*
%TD*%
%TO.C,ALT1*%
X85377500Y-162603750D03*
X98304500Y-160063750D03*
%TD*%
%TO.C,`~1*%
X35371250Y-86403750D03*
X48298250Y-83863750D03*
%TD*%
%TO.C,J1*%
X183008750Y-124503750D03*
X195935750Y-121963750D03*
%TD*%
%TO.C,O1*%
X216346250Y-105453750D03*
X229273250Y-102913750D03*
%TD*%
%TO.C,F13*%
X125858750Y-124503750D03*
X138785750Y-121963750D03*
%TD*%
%TO.C,L1*%
X221108750Y-124503750D03*
X234035750Y-121963750D03*
%TD*%
%TO.C,B1*%
X154433750Y-143553750D03*
X167360750Y-141013750D03*
%TD*%
%TO.C,MX9*%
X206821250Y-86403750D03*
X219748250Y-83863750D03*
%TD*%
%TO.C,SPACE1*%
X156815000Y-162603750D03*
X169742000Y-160063750D03*
%TD*%
%TO.C,F1*%
X59183750Y-57828750D03*
X72110750Y-55288750D03*
%TD*%
%TO.C,DEL1*%
X302071250Y-57828750D03*
X314998250Y-55288750D03*
%TD*%
%TO.C,D46*%
X106808750Y-124503750D03*
X119735750Y-121963750D03*
%TD*%
%TO.C,U1*%
X178246250Y-105453750D03*
X191173250Y-102913750D03*
%TD*%
%TO.C,V1*%
X135383750Y-143553750D03*
X148310750Y-141013750D03*
%TD*%
%TO.C,G1*%
X144908750Y-124503750D03*
X157835750Y-121963750D03*
%TD*%
%TO.C,Z1*%
X78233750Y-143553750D03*
X91160750Y-141013750D03*
%TD*%
%TO.C,'1*%
X259208750Y-124503750D03*
X272135750Y-121963750D03*
%TD*%
%TO.C,CTL1*%
X263971250Y-162603750D03*
X276898250Y-160063750D03*
%TD*%
%TO.C,Y1*%
X159196250Y-105453750D03*
X172123250Y-102913750D03*
%TD*%
%TO.C,W1*%
X82996250Y-105453750D03*
X95923250Y-102913750D03*
%TD*%
%TO.C,F3*%
X97301309Y-57828750D03*
X110228309Y-55288750D03*
%TD*%
%TO.C,LEFT1*%
X287765000Y-167347500D03*
X300692000Y-164807500D03*
%TD*%
%TO.C,C1*%
X116333750Y-143553750D03*
X129260750Y-141013750D03*
%TD*%
%TO.C,F8*%
X197360534Y-57828750D03*
X210287534Y-55288750D03*
%TD*%
%TO.C,]1*%
X273496250Y-105453750D03*
X286423250Y-102913750D03*
%TD*%
%TO.C,K1*%
X202058750Y-124503750D03*
X214985750Y-121963750D03*
%TD*%
%TO.C,F4*%
X116368868Y-57828750D03*
X129295868Y-55288750D03*
%TD*%
%TO.C,DOWN1*%
X306833750Y-167366250D03*
X319760750Y-164826250D03*
%TD*%
%TO.C,OPT5*%
X330646250Y-143591250D03*
X343573250Y-141051250D03*
%TD*%
%TO.C,FN1*%
X244921250Y-162603750D03*
X257848250Y-160063750D03*
%TD*%
%TO.C,F12*%
X278234938Y-57828750D03*
X291161938Y-55288750D03*
%TD*%
%TO.C,R_SHIFT1*%
X275877500Y-143553750D03*
X288804500Y-141013750D03*
%TD*%
%TO.C,esc1*%
X35371250Y-57828750D03*
X48298250Y-55288750D03*
%TD*%
%TO.C,\u005C1*%
X297308750Y-105453750D03*
X310235750Y-102913750D03*
%TD*%
%TO.C,OPT4*%
X330646250Y-124528750D03*
X343573250Y-121988750D03*
%TD*%
%TO.C,F11*%
X259196844Y-57828750D03*
X272123844Y-55288750D03*
%TD*%
%TO.C,A1*%
X68708750Y-124503750D03*
X81635750Y-121963750D03*
%TD*%
%TO.C,MX3*%
X92521250Y-86403750D03*
X105448250Y-83863750D03*
%TD*%
%TO.C,MX4*%
X111571250Y-86403750D03*
X124498250Y-83863750D03*
%TD*%
%TO.C,MX2*%
X73471250Y-86403750D03*
X86398250Y-83863750D03*
%TD*%
%TO.C,I1*%
X197296250Y-105453750D03*
X210223250Y-102913750D03*
%TD*%
%TO.C,MX1*%
X54421250Y-86403750D03*
X67348250Y-83863750D03*
%TD*%
%TO.C,.1*%
X230633750Y-143553750D03*
X243560750Y-141013750D03*
%TD*%
%TO.C,F6*%
X159217678Y-57828750D03*
X172144678Y-55288750D03*
%TD*%
%TO.C,CAPS1*%
X42515000Y-124503750D03*
X55442000Y-121963750D03*
%TD*%
%TO.C,RIGHT1*%
X325883750Y-167366250D03*
X338810750Y-164826250D03*
%TD*%
%TO.C,L_SHIFT1*%
X47277500Y-143553750D03*
X60204500Y-141013750D03*
%TD*%
%TO.C,F10*%
X240158750Y-57828750D03*
X253085750Y-55288750D03*
%TD*%
%TO.C,M1*%
X192533750Y-143553750D03*
X205460750Y-141013750D03*
%TD*%
%TO.C,+1*%
X263971250Y-86403750D03*
X276898250Y-83863750D03*
%TD*%
%TO.C,F2*%
X78233750Y-57828750D03*
X91160750Y-55288750D03*
%TD*%
%TO.C,N1*%
X173483750Y-143553750D03*
X186410750Y-141013750D03*
%TD*%
%TO.C,MX10*%
X225871250Y-86403750D03*
X238798250Y-83863750D03*
%TD*%
%TO.C,-1*%
X244921250Y-86403750D03*
X257848250Y-83863750D03*
%TD*%
%TO.C,CLT1*%
X37752500Y-162603750D03*
X50679500Y-160063750D03*
%TD*%
%TO.C,S1*%
X87758750Y-124503750D03*
X100685750Y-121963750D03*
%TD*%
%TO.C,T1*%
X140146250Y-105453750D03*
X153073250Y-102913750D03*
%TD*%
%TO.C,OPT1*%
X330646250Y-57828750D03*
X343573250Y-55288750D03*
%TD*%
D11*
%TO.C,D11*%
X255672322Y-61996250D03*
X255672322Y-58696250D03*
%TD*%
%TO.C,D9*%
X212881250Y-61996250D03*
X212881250Y-58696250D03*
%TD*%
%TO.C,D49*%
X103168750Y-128671250D03*
X103168750Y-125371250D03*
%TD*%
%TO.C,D78*%
X172300000Y-167093750D03*
X172300000Y-163793750D03*
%TD*%
%TO.C,D24*%
X203281250Y-90571250D03*
X203281250Y-87271250D03*
%TD*%
%TO.C,D19*%
X107556250Y-90571250D03*
X107556250Y-87271250D03*
%TD*%
%TO.C,D82*%
X303268750Y-171515000D03*
X303268750Y-168215000D03*
%TD*%
%TO.C,D61*%
X62487500Y-147721250D03*
X62487500Y-144421250D03*
%TD*%
%TO.C,D34*%
X117506250Y-109621250D03*
X117506250Y-106321250D03*
%TD*%
%TO.C,D43*%
X288956250Y-109621250D03*
X288956250Y-106321250D03*
%TD*%
%TO.C,D53*%
X179293750Y-128671250D03*
X179293750Y-125371250D03*
%TD*%
%TO.C,D57*%
X255668750Y-128671250D03*
X255668750Y-125371250D03*
%TD*%
%TO.C,D14*%
X317625000Y-62012500D03*
X317625000Y-58712500D03*
%TD*%
%TO.C,D3*%
X93803869Y-61996250D03*
X93803869Y-58696250D03*
%TD*%
%TO.C,D2*%
X74706250Y-62037500D03*
X74706250Y-58737500D03*
%TD*%
%TO.C,D52*%
X160318750Y-128671250D03*
X160318750Y-125371250D03*
%TD*%
%TO.C,D75*%
X53237500Y-166968750D03*
X53237500Y-163668750D03*
%TD*%
%TO.C,D54*%
X198468750Y-128671250D03*
X198468750Y-125371250D03*
%TD*%
%TO.C,D56*%
X236468750Y-128671250D03*
X236468750Y-125371250D03*
%TD*%
%TO.C,D79*%
X241181250Y-167193750D03*
X241181250Y-163893750D03*
%TD*%
%TO.C,D80*%
X260206250Y-167243750D03*
X260206250Y-163943750D03*
%TD*%
%TO.C,D35*%
X136556250Y-109621250D03*
X136556250Y-106321250D03*
%TD*%
%TO.C,D16*%
X50856250Y-90571250D03*
X50856250Y-87271250D03*
%TD*%
%TO.C,D48*%
X84318750Y-128671250D03*
X84318750Y-125371250D03*
%TD*%
%TO.C,D30*%
X346193750Y-90556250D03*
X346193750Y-87256250D03*
%TD*%
%TO.C,D83*%
X322368750Y-171481250D03*
X322368750Y-168181250D03*
%TD*%
%TO.C,D13*%
X293805656Y-61996250D03*
X293805656Y-58696250D03*
%TD*%
%TO.C,D41*%
X250856250Y-109621250D03*
X250856250Y-106321250D03*
%TD*%
D12*
%TO.C,R2*%
X192275000Y-174787500D03*
X193925000Y-174787500D03*
%TD*%
D11*
%TO.C,D21*%
X146106250Y-90571250D03*
X146106250Y-87271250D03*
%TD*%
%TO.C,D71*%
X265193750Y-147721250D03*
X265193750Y-144421250D03*
%TD*%
D13*
%TO.C,R4*%
X210750000Y-176787500D03*
X209100000Y-176787500D03*
%TD*%
D11*
%TO.C,D32*%
X79406250Y-109621250D03*
X79406250Y-106321250D03*
%TD*%
%TO.C,D40*%
X231756250Y-109621250D03*
X231756250Y-106321250D03*
%TD*%
%TO.C,D51*%
X141293750Y-128671250D03*
X141293750Y-125371250D03*
%TD*%
%TO.C,D47*%
X57725000Y-128671250D03*
X57725000Y-125371250D03*
%TD*%
D12*
%TO.C,R5*%
X207925000Y-159787500D03*
X209575000Y-159787500D03*
%TD*%
D11*
%TO.C,D27*%
X260406250Y-90571250D03*
X260406250Y-87271250D03*
%TD*%
%TO.C,D29*%
X307931250Y-90571250D03*
X307931250Y-87271250D03*
%TD*%
D14*
%TO.C,C6*%
X215958750Y-162462500D03*
X215958750Y-160912500D03*
%TD*%
D11*
%TO.C,D7*%
X174714582Y-61996250D03*
X174714582Y-58696250D03*
%TD*%
D15*
%TO.C,C3*%
X185850000Y-172368750D03*
X184300000Y-172368750D03*
%TD*%
D11*
%TO.C,D84*%
X341418750Y-171515000D03*
X341418750Y-168215000D03*
%TD*%
D16*
%TO.C,F14*%
X222500000Y-161800000D03*
X222500000Y-159000000D03*
%TD*%
D11*
%TO.C,D81*%
X279256250Y-167293750D03*
X279256250Y-163993750D03*
%TD*%
%TO.C,D1*%
X50816250Y-61996250D03*
X50816250Y-58696250D03*
%TD*%
%TO.C,D70*%
X246132630Y-147721250D03*
X246132630Y-144421250D03*
%TD*%
D14*
%TO.C,C5*%
X218368750Y-162462500D03*
X218368750Y-160912500D03*
%TD*%
D11*
%TO.C,D12*%
X274738988Y-61996250D03*
X274738988Y-58696250D03*
%TD*%
%TO.C,D45*%
X346193750Y-109618750D03*
X346193750Y-106318750D03*
%TD*%
%TO.C,D36*%
X155731250Y-109621250D03*
X155731250Y-106321250D03*
%TD*%
%TO.C,D68*%
X208035410Y-147721250D03*
X208035410Y-144421250D03*
%TD*%
%TO.C,D73*%
X322368750Y-152515000D03*
X322368750Y-149215000D03*
%TD*%
%TO.C,D6*%
X155631250Y-61996250D03*
X155631250Y-58696250D03*
%TD*%
%TO.C,D5*%
X131953869Y-61996250D03*
X131953869Y-58696250D03*
%TD*%
%TO.C,D15*%
X346131250Y-61943750D03*
X346131250Y-58643750D03*
%TD*%
%TO.C,D60*%
X346193750Y-128681250D03*
X346193750Y-125381250D03*
%TD*%
%TO.C,D42*%
X269931250Y-109621250D03*
X269931250Y-106321250D03*
%TD*%
%TO.C,D65*%
X150877080Y-147721250D03*
X150877080Y-144421250D03*
%TD*%
%TO.C,D50*%
X122268750Y-128671250D03*
X122268750Y-125371250D03*
%TD*%
D12*
%TO.C,R3*%
X209100000Y-178787500D03*
X210750000Y-178787500D03*
%TD*%
D14*
%TO.C,C7*%
X213618750Y-162462500D03*
X213618750Y-160912500D03*
%TD*%
D15*
%TO.C,C2*%
X185850000Y-165225000D03*
X184300000Y-165225000D03*
%TD*%
D11*
%TO.C,D72*%
X291112500Y-147721250D03*
X291112500Y-144421250D03*
%TD*%
%TO.C,D31*%
X55518750Y-109621250D03*
X55518750Y-106321250D03*
%TD*%
%TO.C,D4*%
X112753869Y-61996250D03*
X112753869Y-58696250D03*
%TD*%
%TO.C,D55*%
X217468750Y-128671250D03*
X217468750Y-125371250D03*
%TD*%
%TO.C,D26*%
X241406250Y-90571250D03*
X241406250Y-87271250D03*
%TD*%
%TO.C,D67*%
X188999300Y-147721250D03*
X188999300Y-144421250D03*
%TD*%
D17*
%TO.C,C4*%
X198150000Y-177787500D03*
X199700000Y-177787500D03*
%TD*%
D11*
%TO.C,D44*%
X312618750Y-109621250D03*
X312618750Y-106321250D03*
%TD*%
%TO.C,D38*%
X193731250Y-109621250D03*
X193731250Y-106321250D03*
%TD*%
%TO.C,D22*%
X165156250Y-90571250D03*
X165156250Y-87271250D03*
%TD*%
%TO.C,D62*%
X93743750Y-147743750D03*
X93743750Y-144443750D03*
%TD*%
%TO.C,D28*%
X279381250Y-90571250D03*
X279381250Y-87271250D03*
%TD*%
%TO.C,D58*%
X274518750Y-128671250D03*
X274518750Y-125371250D03*
%TD*%
%TO.C,D25*%
X222231250Y-90571250D03*
X222231250Y-87271250D03*
%TD*%
%TO.C,D77*%
X101112500Y-166968750D03*
X101112500Y-163668750D03*
%TD*%
%TO.C,D39*%
X212806250Y-109621250D03*
X212806250Y-106321250D03*
%TD*%
D18*
%TO.C,Y2*%
X184225000Y-169987500D03*
X184225000Y-167787500D03*
X185925000Y-167787500D03*
X185925000Y-169987500D03*
%TD*%
D11*
%TO.C,D64*%
X131840970Y-147721250D03*
X131840970Y-144421250D03*
%TD*%
%TO.C,D63*%
X112804860Y-147721250D03*
X112804860Y-144421250D03*
%TD*%
%TO.C,D23*%
X184206250Y-90571250D03*
X184206250Y-87271250D03*
%TD*%
%TO.C,D69*%
X227071520Y-147721250D03*
X227071520Y-144421250D03*
%TD*%
%TO.C,D76*%
X77125000Y-166968750D03*
X77125000Y-163668750D03*
%TD*%
D19*
%TO.C,U2*%
X203925000Y-172487500D03*
X203125000Y-172487500D03*
X202325000Y-172487500D03*
X201525000Y-172487500D03*
X200725000Y-172487500D03*
X199925000Y-172487500D03*
X199125000Y-172487500D03*
X198325000Y-172487500D03*
X197525000Y-172487500D03*
X196725000Y-172487500D03*
X195925000Y-172487500D03*
D20*
X194225000Y-170787500D03*
X194225000Y-169987500D03*
X194225000Y-169187500D03*
X194225000Y-168387500D03*
X194225000Y-167587500D03*
X194225000Y-166787500D03*
X194225000Y-165987500D03*
X194225000Y-165187500D03*
X194225000Y-164387500D03*
X194225000Y-163587500D03*
X194225000Y-162787500D03*
D19*
X195925000Y-161087500D03*
X196725000Y-161087500D03*
X197525000Y-161087500D03*
X198325000Y-161087500D03*
X199125000Y-161087500D03*
X199925000Y-161087500D03*
X200725000Y-161087500D03*
X201525000Y-161087500D03*
X202325000Y-161087500D03*
X203125000Y-161087500D03*
X203925000Y-161087500D03*
D20*
X205625000Y-162787500D03*
X205625000Y-163587500D03*
X205625000Y-164387500D03*
X205625000Y-165187500D03*
X205625000Y-165987500D03*
X205625000Y-166787500D03*
X205625000Y-167587500D03*
X205625000Y-168387500D03*
X205625000Y-169187500D03*
X205625000Y-169987500D03*
X205625000Y-170787500D03*
%TD*%
D11*
%TO.C,D20*%
X127056250Y-90571250D03*
X127056250Y-87271250D03*
%TD*%
%TO.C,D33*%
X98481250Y-109621250D03*
X98481250Y-106321250D03*
%TD*%
%TO.C,D59*%
X305500000Y-128671250D03*
X305500000Y-125371250D03*
%TD*%
%TO.C,D8*%
X193797914Y-61996250D03*
X193797914Y-58696250D03*
%TD*%
D14*
%TO.C,C8*%
X211368750Y-162462500D03*
X211368750Y-160912500D03*
%TD*%
D11*
%TO.C,D18*%
X89006250Y-90571250D03*
X89006250Y-87271250D03*
%TD*%
%TO.C,D66*%
X169938190Y-147721250D03*
X169938190Y-144421250D03*
%TD*%
%TO.C,D10*%
X236605656Y-61996250D03*
X236605656Y-58696250D03*
%TD*%
%TO.C,D17*%
X69806250Y-90571250D03*
X69806250Y-87271250D03*
%TD*%
%TO.C,D74*%
X346193750Y-147743750D03*
X346193750Y-144443750D03*
%TD*%
%TO.C,D37*%
X174606250Y-109621250D03*
X174606250Y-106321250D03*
%TD*%
M02*
