%TF.GenerationSoftware,KiCad,Pcbnew,(6.0.0)*%
%TF.CreationDate,2022-01-14T20:24:59+07:00*%
%TF.ProjectId,fese75,66657365-3735-42e6-9b69-6361645f7063,rev?*%
%TF.SameCoordinates,Original*%
%TF.FileFunction,Legend,Top*%
%TF.FilePolarity,Positive*%
%FSLAX46Y46*%
G04 Gerber Fmt 4.6, Leading zero omitted, Abs format (unit mm)*
G04 Created by KiCad (PCBNEW (6.0.0)) date 2022-01-14 20:24:59*
%MOMM*%
%LPD*%
G01*
G04 APERTURE LIST*
%ADD10C,0.150000*%
%ADD11C,0.120000*%
G04 APERTURE END LIST*
D10*
%TO.C,TP1*%
X192604380Y-177561904D02*
X192604380Y-176990476D01*
X193604380Y-177276190D02*
X192604380Y-177276190D01*
X193604380Y-176657142D02*
X192604380Y-176657142D01*
X192604380Y-176276190D01*
X192652000Y-176180952D01*
X192699619Y-176133333D01*
X192794857Y-176085714D01*
X192937714Y-176085714D01*
X193032952Y-176133333D01*
X193080571Y-176180952D01*
X193128190Y-176276190D01*
X193128190Y-176657142D01*
X193604380Y-175133333D02*
X193604380Y-175704761D01*
X193604380Y-175419047D02*
X192604380Y-175419047D01*
X192747238Y-175514285D01*
X192842476Y-175609523D01*
X192890095Y-175704761D01*
%TO.C,J2*%
X325435416Y-56689880D02*
X325435416Y-57404166D01*
X325387797Y-57547023D01*
X325292559Y-57642261D01*
X325149702Y-57689880D01*
X325054464Y-57689880D01*
X325863988Y-56785119D02*
X325911607Y-56737500D01*
X326006845Y-56689880D01*
X326244940Y-56689880D01*
X326340178Y-56737500D01*
X326387797Y-56785119D01*
X326435416Y-56880357D01*
X326435416Y-56975595D01*
X326387797Y-57118452D01*
X325816369Y-57689880D01*
X326435416Y-57689880D01*
%TO.C,REF\u002A\u002A*%
X298297916Y-86396130D02*
X297964583Y-85919940D01*
X297726488Y-86396130D02*
X297726488Y-85396130D01*
X298107440Y-85396130D01*
X298202678Y-85443750D01*
X298250297Y-85491369D01*
X298297916Y-85586607D01*
X298297916Y-85729464D01*
X298250297Y-85824702D01*
X298202678Y-85872321D01*
X298107440Y-85919940D01*
X297726488Y-85919940D01*
X298726488Y-85872321D02*
X299059821Y-85872321D01*
X299202678Y-86396130D02*
X298726488Y-86396130D01*
X298726488Y-85396130D01*
X299202678Y-85396130D01*
X299964583Y-85872321D02*
X299631250Y-85872321D01*
X299631250Y-86396130D02*
X299631250Y-85396130D01*
X300107440Y-85396130D01*
X300631250Y-85396130D02*
X300631250Y-85634226D01*
X300393154Y-85538988D02*
X300631250Y-85634226D01*
X300869345Y-85538988D01*
X300488392Y-85824702D02*
X300631250Y-85634226D01*
X300774107Y-85824702D01*
X301393154Y-85396130D02*
X301393154Y-85634226D01*
X301155059Y-85538988D02*
X301393154Y-85634226D01*
X301631250Y-85538988D01*
X301250297Y-85824702D02*
X301393154Y-85634226D01*
X301536011Y-85824702D01*
X53029166Y-149546130D02*
X52695833Y-149069940D01*
X52457738Y-149546130D02*
X52457738Y-148546130D01*
X52838690Y-148546130D01*
X52933928Y-148593750D01*
X52981547Y-148641369D01*
X53029166Y-148736607D01*
X53029166Y-148879464D01*
X52981547Y-148974702D01*
X52933928Y-149022321D01*
X52838690Y-149069940D01*
X52457738Y-149069940D01*
X53457738Y-149022321D02*
X53791071Y-149022321D01*
X53933928Y-149546130D02*
X53457738Y-149546130D01*
X53457738Y-148546130D01*
X53933928Y-148546130D01*
X54695833Y-149022321D02*
X54362500Y-149022321D01*
X54362500Y-149546130D02*
X54362500Y-148546130D01*
X54838690Y-148546130D01*
X55362500Y-148546130D02*
X55362500Y-148784226D01*
X55124404Y-148688988D02*
X55362500Y-148784226D01*
X55600595Y-148688988D01*
X55219642Y-148974702D02*
X55362500Y-148784226D01*
X55505357Y-148974702D01*
X56124404Y-148546130D02*
X56124404Y-148784226D01*
X55886309Y-148688988D02*
X56124404Y-148784226D01*
X56362500Y-148688988D01*
X55981547Y-148974702D02*
X56124404Y-148784226D01*
X56267261Y-148974702D01*
X295916666Y-130496130D02*
X295583333Y-130019940D01*
X295345238Y-130496130D02*
X295345238Y-129496130D01*
X295726190Y-129496130D01*
X295821428Y-129543750D01*
X295869047Y-129591369D01*
X295916666Y-129686607D01*
X295916666Y-129829464D01*
X295869047Y-129924702D01*
X295821428Y-129972321D01*
X295726190Y-130019940D01*
X295345238Y-130019940D01*
X296345238Y-129972321D02*
X296678571Y-129972321D01*
X296821428Y-130496130D02*
X296345238Y-130496130D01*
X296345238Y-129496130D01*
X296821428Y-129496130D01*
X297583333Y-129972321D02*
X297250000Y-129972321D01*
X297250000Y-130496130D02*
X297250000Y-129496130D01*
X297726190Y-129496130D01*
X298250000Y-129496130D02*
X298250000Y-129734226D01*
X298011904Y-129638988D02*
X298250000Y-129734226D01*
X298488095Y-129638988D01*
X298107142Y-129924702D02*
X298250000Y-129734226D01*
X298392857Y-129924702D01*
X299011904Y-129496130D02*
X299011904Y-129734226D01*
X298773809Y-129638988D02*
X299011904Y-129734226D01*
X299250000Y-129638988D01*
X298869047Y-129924702D02*
X299011904Y-129734226D01*
X299154761Y-129924702D01*
%TO.C,TP2*%
X195500380Y-179661904D02*
X195500380Y-179090476D01*
X196500380Y-179376190D02*
X195500380Y-179376190D01*
X196500380Y-178757142D02*
X195500380Y-178757142D01*
X195500380Y-178376190D01*
X195548000Y-178280952D01*
X195595619Y-178233333D01*
X195690857Y-178185714D01*
X195833714Y-178185714D01*
X195928952Y-178233333D01*
X195976571Y-178280952D01*
X196024190Y-178376190D01*
X196024190Y-178757142D01*
X195595619Y-177804761D02*
X195548000Y-177757142D01*
X195500380Y-177661904D01*
X195500380Y-177423809D01*
X195548000Y-177328571D01*
X195595619Y-177280952D01*
X195690857Y-177233333D01*
X195786095Y-177233333D01*
X195928952Y-177280952D01*
X196500380Y-177852380D01*
X196500380Y-177233333D01*
%TO.C,REF\u002A\u002A*%
X162566666Y-168596130D02*
X162233333Y-168119940D01*
X161995238Y-168596130D02*
X161995238Y-167596130D01*
X162376190Y-167596130D01*
X162471428Y-167643750D01*
X162519047Y-167691369D01*
X162566666Y-167786607D01*
X162566666Y-167929464D01*
X162519047Y-168024702D01*
X162471428Y-168072321D01*
X162376190Y-168119940D01*
X161995238Y-168119940D01*
X162995238Y-168072321D02*
X163328571Y-168072321D01*
X163471428Y-168596130D02*
X162995238Y-168596130D01*
X162995238Y-167596130D01*
X163471428Y-167596130D01*
X164233333Y-168072321D02*
X163900000Y-168072321D01*
X163900000Y-168596130D02*
X163900000Y-167596130D01*
X164376190Y-167596130D01*
X164900000Y-167596130D02*
X164900000Y-167834226D01*
X164661904Y-167738988D02*
X164900000Y-167834226D01*
X165138095Y-167738988D01*
X164757142Y-168024702D02*
X164900000Y-167834226D01*
X165042857Y-168024702D01*
X165661904Y-167596130D02*
X165661904Y-167834226D01*
X165423809Y-167738988D02*
X165661904Y-167834226D01*
X165900000Y-167738988D01*
X165519047Y-168024702D02*
X165661904Y-167834226D01*
X165804761Y-168024702D01*
D11*
%TO.C,R1*%
X135281250Y-100893750D02*
X121081250Y-100893750D01*
X121081250Y-100893750D02*
X121081250Y-115093750D01*
X135281250Y-115093750D02*
X135281250Y-100893750D01*
X121081250Y-115093750D02*
X135281250Y-115093750D01*
%TO.C,H1*%
X178143750Y-134143750D02*
X178143750Y-119943750D01*
X178143750Y-119943750D02*
X163943750Y-119943750D01*
X163943750Y-119943750D02*
X163943750Y-134143750D01*
X163943750Y-134143750D02*
X178143750Y-134143750D01*
%TO.C,/1*%
X263868750Y-138993750D02*
X249668750Y-138993750D01*
X249668750Y-138993750D02*
X249668750Y-153193750D01*
X249668750Y-153193750D02*
X263868750Y-153193750D01*
X263868750Y-153193750D02*
X263868750Y-138993750D01*
%TO.C,[1*%
X254431250Y-100893750D02*
X254431250Y-115093750D01*
X268631250Y-100893750D02*
X254431250Y-100893750D01*
X254431250Y-115093750D02*
X268631250Y-115093750D01*
X268631250Y-115093750D02*
X268631250Y-100893750D01*
%TO.C,MX8*%
X187756250Y-81843750D02*
X187756250Y-96043750D01*
X201956250Y-81843750D02*
X187756250Y-81843750D01*
X187756250Y-96043750D02*
X201956250Y-96043750D01*
X201956250Y-96043750D02*
X201956250Y-81843750D01*
%TO.C,UP1*%
X321018750Y-157956250D02*
X321018750Y-143756250D01*
X306818750Y-157956250D02*
X321018750Y-157956250D01*
X321018750Y-143756250D02*
X306818750Y-143756250D01*
X306818750Y-143756250D02*
X306818750Y-157956250D01*
%TO.C,F7*%
X178274106Y-53268750D02*
X178274106Y-67468750D01*
X178274106Y-67468750D02*
X192474106Y-67468750D01*
X192474106Y-53268750D02*
X178274106Y-53268750D01*
X192474106Y-67468750D02*
X192474106Y-53268750D01*
%TO.C,WIN1*%
X75750000Y-172243750D02*
X75750000Y-158043750D01*
X61550000Y-158043750D02*
X61550000Y-172243750D01*
X75750000Y-158043750D02*
X61550000Y-158043750D01*
X61550000Y-172243750D02*
X75750000Y-172243750D01*
%TO.C,MX6*%
X149656250Y-81843750D02*
X149656250Y-96043750D01*
X163856250Y-81843750D02*
X149656250Y-81843750D01*
X149656250Y-96043750D02*
X163856250Y-96043750D01*
X163856250Y-96043750D02*
X163856250Y-81843750D01*
%TO.C,TAB1*%
X54318750Y-115093750D02*
X54318750Y-100893750D01*
X40118750Y-115093750D02*
X54318750Y-115093750D01*
X54318750Y-100893750D02*
X40118750Y-100893750D01*
X40118750Y-100893750D02*
X40118750Y-115093750D01*
%TO.C,MX7*%
X182906250Y-81843750D02*
X168706250Y-81843750D01*
X182906250Y-96043750D02*
X182906250Y-81843750D01*
X168706250Y-96043750D02*
X182906250Y-96043750D01*
X168706250Y-81843750D02*
X168706250Y-96043750D01*
%TO.C,MX5*%
X130606250Y-81843750D02*
X130606250Y-96043750D01*
X144806250Y-81843750D02*
X130606250Y-81843750D01*
X144806250Y-96043750D02*
X144806250Y-81843750D01*
X130606250Y-96043750D02*
X144806250Y-96043750D01*
%TO.C,Q1*%
X78131250Y-115093750D02*
X78131250Y-100893750D01*
X63931250Y-115093750D02*
X78131250Y-115093750D01*
X63931250Y-100893750D02*
X63931250Y-115093750D01*
X78131250Y-100893750D02*
X63931250Y-100893750D01*
%TO.C,BACK1*%
X306731250Y-81843750D02*
X292531250Y-81843750D01*
X292531250Y-81843750D02*
X292531250Y-96043750D01*
X292531250Y-96043750D02*
X306731250Y-96043750D01*
X306731250Y-96043750D02*
X306731250Y-81843750D01*
%TO.C,E1*%
X116231250Y-100893750D02*
X102031250Y-100893750D01*
X116231250Y-115093750D02*
X116231250Y-100893750D01*
X102031250Y-100893750D02*
X102031250Y-115093750D01*
X102031250Y-115093750D02*
X116231250Y-115093750D01*
%TO.C,;1*%
X254343750Y-134143750D02*
X254343750Y-119943750D01*
X254343750Y-119943750D02*
X240143750Y-119943750D01*
X240143750Y-134143750D02*
X254343750Y-134143750D01*
X240143750Y-119943750D02*
X240143750Y-134143750D01*
%TO.C,\u002C1*%
X225768750Y-138993750D02*
X211568750Y-138993750D01*
X225768750Y-153193750D02*
X225768750Y-138993750D01*
X211568750Y-153193750D02*
X225768750Y-153193750D01*
X211568750Y-138993750D02*
X211568750Y-153193750D01*
%TO.C,P1*%
X249581250Y-115093750D02*
X249581250Y-100893750D01*
X235381250Y-100893750D02*
X235381250Y-115093750D01*
X249581250Y-100893750D02*
X235381250Y-100893750D01*
X235381250Y-115093750D02*
X249581250Y-115093750D01*
%TO.C,ALT2*%
X225856250Y-172243750D02*
X240056250Y-172243750D01*
X240056250Y-172243750D02*
X240056250Y-158043750D01*
X225856250Y-158043750D02*
X225856250Y-172243750D01*
X240056250Y-158043750D02*
X225856250Y-158043750D01*
%TO.C,X1*%
X111468750Y-138993750D02*
X97268750Y-138993750D01*
X111468750Y-153193750D02*
X111468750Y-138993750D01*
X97268750Y-153193750D02*
X111468750Y-153193750D01*
X97268750Y-138993750D02*
X97268750Y-153193750D01*
%TO.C,ENTER1*%
X290150000Y-134143750D02*
X304350000Y-134143750D01*
X290150000Y-119943750D02*
X290150000Y-134143750D01*
X304350000Y-134143750D02*
X304350000Y-119943750D01*
X304350000Y-119943750D02*
X290150000Y-119943750D01*
%TO.C,TP1*%
X195300000Y-176300000D02*
G75*
G03*
X195300000Y-176300000I-700000J0D01*
G01*
%TO.C,OPT3*%
X330631250Y-100906250D02*
X330631250Y-115106250D01*
X344831250Y-115106250D02*
X344831250Y-100906250D01*
X330631250Y-115106250D02*
X344831250Y-115106250D01*
X344831250Y-100906250D02*
X330631250Y-100906250D01*
%TO.C,F5*%
X140131250Y-53268750D02*
X140131250Y-67468750D01*
X140131250Y-67468750D02*
X154331250Y-67468750D01*
X154331250Y-67468750D02*
X154331250Y-53268750D01*
X154331250Y-53268750D02*
X140131250Y-53268750D01*
%TO.C,F9*%
X235305656Y-67468750D02*
X235305656Y-53268750D01*
X221105656Y-67468750D02*
X235305656Y-67468750D01*
X235305656Y-53268750D02*
X221105656Y-53268750D01*
X221105656Y-53268750D02*
X221105656Y-67468750D01*
%TO.C,OPT2*%
X344831250Y-96043750D02*
X344831250Y-81843750D01*
X330631250Y-81843750D02*
X330631250Y-96043750D01*
X330631250Y-96043750D02*
X344831250Y-96043750D01*
X344831250Y-81843750D02*
X330631250Y-81843750D01*
%TO.C,ALT1*%
X85362500Y-158043750D02*
X85362500Y-172243750D01*
X99562500Y-158043750D02*
X85362500Y-158043750D01*
X99562500Y-172243750D02*
X99562500Y-158043750D01*
X85362500Y-172243750D02*
X99562500Y-172243750D01*
%TO.C,`~1*%
X35356250Y-81843750D02*
X35356250Y-96043750D01*
X49556250Y-96043750D02*
X49556250Y-81843750D01*
X35356250Y-96043750D02*
X49556250Y-96043750D01*
X49556250Y-81843750D02*
X35356250Y-81843750D01*
%TO.C,J1*%
X197193750Y-119943750D02*
X182993750Y-119943750D01*
X197193750Y-134143750D02*
X197193750Y-119943750D01*
X182993750Y-119943750D02*
X182993750Y-134143750D01*
X182993750Y-134143750D02*
X197193750Y-134143750D01*
%TO.C,O1*%
X230531250Y-115093750D02*
X230531250Y-100893750D01*
X216331250Y-100893750D02*
X216331250Y-115093750D01*
X216331250Y-115093750D02*
X230531250Y-115093750D01*
X230531250Y-100893750D02*
X216331250Y-100893750D01*
%TO.C,F13*%
X140043750Y-134143750D02*
X140043750Y-119943750D01*
X125843750Y-134143750D02*
X140043750Y-134143750D01*
X125843750Y-119943750D02*
X125843750Y-134143750D01*
X140043750Y-119943750D02*
X125843750Y-119943750D01*
%TO.C,L1*%
X221093750Y-119943750D02*
X221093750Y-134143750D01*
X221093750Y-134143750D02*
X235293750Y-134143750D01*
X235293750Y-119943750D02*
X221093750Y-119943750D01*
X235293750Y-134143750D02*
X235293750Y-119943750D01*
%TO.C,B1*%
X168618750Y-138993750D02*
X154418750Y-138993750D01*
X168618750Y-153193750D02*
X168618750Y-138993750D01*
X154418750Y-153193750D02*
X168618750Y-153193750D01*
X154418750Y-138993750D02*
X154418750Y-153193750D01*
%TO.C,J2*%
X328063750Y-48537500D02*
X328063750Y-45807500D01*
X318873750Y-52137500D02*
X318873750Y-51237500D01*
X318873750Y-48537500D02*
X318873750Y-45807500D01*
X328063750Y-52137500D02*
X328063750Y-51237500D01*
X328063750Y-45807500D02*
X318873750Y-45807500D01*
X327943750Y-55217500D02*
X318993750Y-55217500D01*
%TO.C,MX9*%
X206806250Y-81843750D02*
X206806250Y-96043750D01*
X221006250Y-96043750D02*
X221006250Y-81843750D01*
X206806250Y-96043750D02*
X221006250Y-96043750D01*
X221006250Y-81843750D02*
X206806250Y-81843750D01*
%TO.C,SPACE1*%
X171000000Y-158043750D02*
X156800000Y-158043750D01*
X156800000Y-158043750D02*
X156800000Y-172243750D01*
X156800000Y-172243750D02*
X171000000Y-172243750D01*
X171000000Y-172243750D02*
X171000000Y-158043750D01*
%TO.C,F1*%
X59168750Y-67468750D02*
X73368750Y-67468750D01*
X73368750Y-67468750D02*
X73368750Y-53268750D01*
X59168750Y-53268750D02*
X59168750Y-67468750D01*
X73368750Y-53268750D02*
X59168750Y-53268750D01*
%TO.C,DEL1*%
X316256250Y-53268750D02*
X302056250Y-53268750D01*
X302056250Y-53268750D02*
X302056250Y-67468750D01*
X302056250Y-67468750D02*
X316256250Y-67468750D01*
X316256250Y-67468750D02*
X316256250Y-53268750D01*
%TO.C,D46*%
X106793750Y-134143750D02*
X120993750Y-134143750D01*
X106793750Y-119943750D02*
X106793750Y-134143750D01*
X120993750Y-134143750D02*
X120993750Y-119943750D01*
X120993750Y-119943750D02*
X106793750Y-119943750D01*
%TO.C,U1*%
X192431250Y-115093750D02*
X192431250Y-100893750D01*
X178231250Y-100893750D02*
X178231250Y-115093750D01*
X192431250Y-100893750D02*
X178231250Y-100893750D01*
X178231250Y-115093750D02*
X192431250Y-115093750D01*
%TO.C,V1*%
X149568750Y-153193750D02*
X149568750Y-138993750D01*
X135368750Y-153193750D02*
X149568750Y-153193750D01*
X135368750Y-138993750D02*
X135368750Y-153193750D01*
X149568750Y-138993750D02*
X135368750Y-138993750D01*
%TO.C,G1*%
X144893750Y-119943750D02*
X144893750Y-134143750D01*
X159093750Y-134143750D02*
X159093750Y-119943750D01*
X159093750Y-119943750D02*
X144893750Y-119943750D01*
X144893750Y-134143750D02*
X159093750Y-134143750D01*
%TO.C,Z1*%
X78218750Y-138993750D02*
X78218750Y-153193750D01*
X92418750Y-138993750D02*
X78218750Y-138993750D01*
X92418750Y-153193750D02*
X92418750Y-138993750D01*
X78218750Y-153193750D02*
X92418750Y-153193750D01*
%TO.C,'1*%
X273393750Y-119943750D02*
X259193750Y-119943750D01*
X273393750Y-134143750D02*
X273393750Y-119943750D01*
X259193750Y-134143750D02*
X273393750Y-134143750D01*
X259193750Y-119943750D02*
X259193750Y-134143750D01*
%TO.C,CTL1*%
X278156250Y-158043750D02*
X263956250Y-158043750D01*
X263956250Y-172243750D02*
X278156250Y-172243750D01*
X278156250Y-172243750D02*
X278156250Y-158043750D01*
X263956250Y-158043750D02*
X263956250Y-172243750D01*
%TO.C,Y1*%
X159181250Y-100893750D02*
X159181250Y-115093750D01*
X173381250Y-100893750D02*
X159181250Y-100893750D01*
X173381250Y-115093750D02*
X173381250Y-100893750D01*
X159181250Y-115093750D02*
X173381250Y-115093750D01*
%TO.C,W1*%
X97181250Y-100893750D02*
X82981250Y-100893750D01*
X82981250Y-100893750D02*
X82981250Y-115093750D01*
X82981250Y-115093750D02*
X97181250Y-115093750D01*
X97181250Y-115093750D02*
X97181250Y-100893750D01*
%TO.C,F3*%
X97286309Y-53268750D02*
X97286309Y-67468750D01*
X111486309Y-53268750D02*
X97286309Y-53268750D01*
X111486309Y-67468750D02*
X111486309Y-53268750D01*
X97286309Y-67468750D02*
X111486309Y-67468750D01*
%TO.C,LEFT1*%
X301950000Y-162787500D02*
X287750000Y-162787500D01*
X287750000Y-162787500D02*
X287750000Y-176987500D01*
X287750000Y-176987500D02*
X301950000Y-176987500D01*
X301950000Y-176987500D02*
X301950000Y-162787500D01*
%TO.C,C1*%
X130518750Y-153193750D02*
X130518750Y-138993750D01*
X116318750Y-153193750D02*
X130518750Y-153193750D01*
X130518750Y-138993750D02*
X116318750Y-138993750D01*
X116318750Y-138993750D02*
X116318750Y-153193750D01*
%TO.C,F8*%
X211545534Y-67468750D02*
X211545534Y-53268750D01*
X197345534Y-67468750D02*
X211545534Y-67468750D01*
X197345534Y-53268750D02*
X197345534Y-67468750D01*
X211545534Y-53268750D02*
X197345534Y-53268750D01*
%TO.C,]1*%
X273481250Y-115093750D02*
X287681250Y-115093750D01*
X287681250Y-115093750D02*
X287681250Y-100893750D01*
X287681250Y-100893750D02*
X273481250Y-100893750D01*
X273481250Y-100893750D02*
X273481250Y-115093750D01*
%TO.C,K1*%
X202043750Y-119943750D02*
X202043750Y-134143750D01*
X202043750Y-134143750D02*
X216243750Y-134143750D01*
X216243750Y-119943750D02*
X202043750Y-119943750D01*
X216243750Y-134143750D02*
X216243750Y-119943750D01*
%TO.C,F4*%
X116353868Y-67468750D02*
X130553868Y-67468750D01*
X116353868Y-53268750D02*
X116353868Y-67468750D01*
X130553868Y-53268750D02*
X116353868Y-53268750D01*
X130553868Y-67468750D02*
X130553868Y-53268750D01*
%TO.C,DOWN1*%
X306818750Y-177006250D02*
X321018750Y-177006250D01*
X306818750Y-162806250D02*
X306818750Y-177006250D01*
X321018750Y-162806250D02*
X306818750Y-162806250D01*
X321018750Y-177006250D02*
X321018750Y-162806250D01*
%TO.C,OPT5*%
X330631250Y-139031250D02*
X330631250Y-153231250D01*
X344831250Y-139031250D02*
X330631250Y-139031250D01*
X330631250Y-153231250D02*
X344831250Y-153231250D01*
X344831250Y-153231250D02*
X344831250Y-139031250D01*
%TO.C,FN1*%
X259106250Y-158043750D02*
X244906250Y-158043750D01*
X244906250Y-158043750D02*
X244906250Y-172243750D01*
X244906250Y-172243750D02*
X259106250Y-172243750D01*
X259106250Y-172243750D02*
X259106250Y-158043750D01*
%TO.C,F12*%
X292419938Y-67468750D02*
X292419938Y-53268750D01*
X292419938Y-53268750D02*
X278219938Y-53268750D01*
X278219938Y-67468750D02*
X292419938Y-67468750D01*
X278219938Y-53268750D02*
X278219938Y-67468750D01*
%TO.C,R_SHIFT1*%
X275862500Y-138993750D02*
X275862500Y-153193750D01*
X290062500Y-153193750D02*
X290062500Y-138993750D01*
X290062500Y-138993750D02*
X275862500Y-138993750D01*
X275862500Y-153193750D02*
X290062500Y-153193750D01*
%TO.C,esc1*%
X35356250Y-67468750D02*
X49556250Y-67468750D01*
X49556250Y-67468750D02*
X49556250Y-53268750D01*
X35356250Y-53268750D02*
X35356250Y-67468750D01*
X49556250Y-53268750D02*
X35356250Y-53268750D01*
%TO.C,\u005C1*%
X297293750Y-115093750D02*
X311493750Y-115093750D01*
X311493750Y-115093750D02*
X311493750Y-100893750D01*
X311493750Y-100893750D02*
X297293750Y-100893750D01*
X297293750Y-100893750D02*
X297293750Y-115093750D01*
%TO.C,OPT4*%
X330631250Y-134168750D02*
X344831250Y-134168750D01*
X344831250Y-119968750D02*
X330631250Y-119968750D01*
X344831250Y-134168750D02*
X344831250Y-119968750D01*
X330631250Y-119968750D02*
X330631250Y-134168750D01*
%TO.C,F11*%
X259181844Y-53268750D02*
X259181844Y-67468750D01*
X273381844Y-53268750D02*
X259181844Y-53268750D01*
X259181844Y-67468750D02*
X273381844Y-67468750D01*
X273381844Y-67468750D02*
X273381844Y-53268750D01*
%TO.C,A1*%
X82893750Y-134143750D02*
X82893750Y-119943750D01*
X82893750Y-119943750D02*
X68693750Y-119943750D01*
X68693750Y-134143750D02*
X82893750Y-134143750D01*
X68693750Y-119943750D02*
X68693750Y-134143750D01*
%TO.C,MX3*%
X92506250Y-96043750D02*
X106706250Y-96043750D01*
X92506250Y-81843750D02*
X92506250Y-96043750D01*
X106706250Y-96043750D02*
X106706250Y-81843750D01*
X106706250Y-81843750D02*
X92506250Y-81843750D01*
%TO.C,MX4*%
X125756250Y-96043750D02*
X125756250Y-81843750D01*
X125756250Y-81843750D02*
X111556250Y-81843750D01*
X111556250Y-96043750D02*
X125756250Y-96043750D01*
X111556250Y-81843750D02*
X111556250Y-96043750D01*
%TO.C,MX2*%
X87656250Y-96043750D02*
X87656250Y-81843750D01*
X87656250Y-81843750D02*
X73456250Y-81843750D01*
X73456250Y-81843750D02*
X73456250Y-96043750D01*
X73456250Y-96043750D02*
X87656250Y-96043750D01*
%TO.C,I1*%
X211481250Y-100893750D02*
X197281250Y-100893750D01*
X197281250Y-100893750D02*
X197281250Y-115093750D01*
X197281250Y-115093750D02*
X211481250Y-115093750D01*
X211481250Y-115093750D02*
X211481250Y-100893750D01*
%TO.C,MX1*%
X68606250Y-96043750D02*
X68606250Y-81843750D01*
X54406250Y-96043750D02*
X68606250Y-96043750D01*
X54406250Y-81843750D02*
X54406250Y-96043750D01*
X68606250Y-81843750D02*
X54406250Y-81843750D01*
%TO.C,.1*%
X230618750Y-138993750D02*
X230618750Y-153193750D01*
X230618750Y-153193750D02*
X244818750Y-153193750D01*
X244818750Y-153193750D02*
X244818750Y-138993750D01*
X244818750Y-138993750D02*
X230618750Y-138993750D01*
%TO.C,F6*%
X173402678Y-67468750D02*
X173402678Y-53268750D01*
X173402678Y-53268750D02*
X159202678Y-53268750D01*
X159202678Y-53268750D02*
X159202678Y-67468750D01*
X159202678Y-67468750D02*
X173402678Y-67468750D01*
%TO.C,CAPS1*%
X56700000Y-119943750D02*
X42500000Y-119943750D01*
X56700000Y-134143750D02*
X56700000Y-119943750D01*
X42500000Y-119943750D02*
X42500000Y-134143750D01*
X42500000Y-134143750D02*
X56700000Y-134143750D01*
%TO.C,RIGHT1*%
X325868750Y-177006250D02*
X340068750Y-177006250D01*
X340068750Y-177006250D02*
X340068750Y-162806250D01*
X325868750Y-162806250D02*
X325868750Y-177006250D01*
X340068750Y-162806250D02*
X325868750Y-162806250D01*
%TO.C,L_SHIFT1*%
X47262500Y-153193750D02*
X61462500Y-153193750D01*
X61462500Y-138993750D02*
X47262500Y-138993750D01*
X47262500Y-138993750D02*
X47262500Y-153193750D01*
X61462500Y-153193750D02*
X61462500Y-138993750D01*
%TO.C,F10*%
X240143750Y-67468750D02*
X254343750Y-67468750D01*
X240143750Y-53268750D02*
X240143750Y-67468750D01*
X254343750Y-53268750D02*
X240143750Y-53268750D01*
X254343750Y-67468750D02*
X254343750Y-53268750D01*
%TO.C,M1*%
X206718750Y-138993750D02*
X192518750Y-138993750D01*
X206718750Y-153193750D02*
X206718750Y-138993750D01*
X192518750Y-138993750D02*
X192518750Y-153193750D01*
X192518750Y-153193750D02*
X206718750Y-153193750D01*
%TO.C,+1*%
X278156250Y-81843750D02*
X263956250Y-81843750D01*
X278156250Y-96043750D02*
X278156250Y-81843750D01*
X263956250Y-81843750D02*
X263956250Y-96043750D01*
X263956250Y-96043750D02*
X278156250Y-96043750D01*
%TO.C,TP2*%
X195300000Y-179100000D02*
X193900000Y-179100000D01*
X193900000Y-177700000D02*
X195300000Y-177700000D01*
X195300000Y-177700000D02*
X195300000Y-179100000D01*
X193900000Y-179100000D02*
X193900000Y-177700000D01*
%TO.C,F2*%
X78218750Y-67468750D02*
X92418750Y-67468750D01*
X92418750Y-53268750D02*
X78218750Y-53268750D01*
X78218750Y-53268750D02*
X78218750Y-67468750D01*
X92418750Y-67468750D02*
X92418750Y-53268750D01*
%TO.C,N1*%
X187668750Y-153193750D02*
X187668750Y-138993750D01*
X173468750Y-138993750D02*
X173468750Y-153193750D01*
X187668750Y-138993750D02*
X173468750Y-138993750D01*
X173468750Y-153193750D02*
X187668750Y-153193750D01*
%TO.C,MX10*%
X240056250Y-81843750D02*
X225856250Y-81843750D01*
X225856250Y-96043750D02*
X240056250Y-96043750D01*
X240056250Y-96043750D02*
X240056250Y-81843750D01*
X225856250Y-81843750D02*
X225856250Y-96043750D01*
%TO.C,-1*%
X244906250Y-96043750D02*
X259106250Y-96043750D01*
X244906250Y-81843750D02*
X244906250Y-96043750D01*
X259106250Y-81843750D02*
X244906250Y-81843750D01*
X259106250Y-96043750D02*
X259106250Y-81843750D01*
%TO.C,CLT1*%
X37737500Y-158043750D02*
X37737500Y-172243750D01*
X37737500Y-172243750D02*
X51937500Y-172243750D01*
X51937500Y-172243750D02*
X51937500Y-158043750D01*
X51937500Y-158043750D02*
X37737500Y-158043750D01*
%TO.C,S1*%
X87743750Y-119943750D02*
X87743750Y-134143750D01*
X101943750Y-119943750D02*
X87743750Y-119943750D01*
X87743750Y-134143750D02*
X101943750Y-134143750D01*
X101943750Y-134143750D02*
X101943750Y-119943750D01*
%TO.C,T1*%
X140131250Y-115093750D02*
X154331250Y-115093750D01*
X140131250Y-100893750D02*
X140131250Y-115093750D01*
X154331250Y-100893750D02*
X140131250Y-100893750D01*
X154331250Y-115093750D02*
X154331250Y-100893750D01*
%TO.C,OPT1*%
X330631250Y-53268750D02*
X330631250Y-67468750D01*
X330631250Y-67468750D02*
X344831250Y-67468750D01*
X344831250Y-53268750D02*
X330631250Y-53268750D01*
X344831250Y-67468750D02*
X344831250Y-53268750D01*
%TD*%
M02*
