%TF.GenerationSoftware,KiCad,Pcbnew,(6.0.0)*%
%TF.CreationDate,2022-01-14T20:24:59+07:00*%
%TF.ProjectId,fese75,66657365-3735-42e6-9b69-6361645f7063,rev?*%
%TF.SameCoordinates,Original*%
%TF.FileFunction,Soldermask,Bot*%
%TF.FilePolarity,Negative*%
%FSLAX46Y46*%
G04 Gerber Fmt 4.6, Leading zero omitted, Abs format (unit mm)*
G04 Created by KiCad (PCBNEW (6.0.0)) date 2022-01-14 20:24:59*
%MOMM*%
%LPD*%
G01*
G04 APERTURE LIST*
G04 Aperture macros list*
%AMRoundRect*
0 Rectangle with rounded corners*
0 $1 Rounding radius*
0 $2 $3 $4 $5 $6 $7 $8 $9 X,Y pos of 4 corners*
0 Add a 4 corners polygon primitive as box body*
4,1,4,$2,$3,$4,$5,$6,$7,$8,$9,$2,$3,0*
0 Add four circle primitives for the rounded corners*
1,1,$1+$1,$2,$3*
1,1,$1+$1,$4,$5*
1,1,$1+$1,$6,$7*
1,1,$1+$1,$8,$9*
0 Add four rect primitives between the rounded corners*
20,1,$1+$1,$2,$3,$4,$5,0*
20,1,$1+$1,$4,$5,$6,$7,0*
20,1,$1+$1,$6,$7,$8,$9,0*
20,1,$1+$1,$8,$9,$2,$3,0*%
G04 Aperture macros list end*
%ADD10C,4.000000*%
%ADD11C,1.750000*%
%ADD12C,3.000000*%
%ADD13R,2.550000X2.500000*%
%ADD14C,1.000000*%
%ADD15C,0.700000*%
%ADD16O,0.900000X2.400000*%
%ADD17O,0.900000X1.700000*%
%ADD18C,3.987800*%
%ADD19C,3.048000*%
%ADD20R,1.000000X1.000000*%
%ADD21R,1.200000X0.900000*%
%ADD22C,2.000000*%
%ADD23R,2.000000X2.000000*%
%ADD24RoundRect,0.200000X-0.200000X-0.275000X0.200000X-0.275000X0.200000X0.275000X-0.200000X0.275000X0*%
%ADD25RoundRect,0.200000X0.200000X0.275000X-0.200000X0.275000X-0.200000X-0.275000X0.200000X-0.275000X0*%
%ADD26RoundRect,0.225000X0.250000X-0.225000X0.250000X0.225000X-0.250000X0.225000X-0.250000X-0.225000X0*%
%ADD27RoundRect,0.225000X0.225000X0.250000X-0.225000X0.250000X-0.225000X-0.250000X0.225000X-0.250000X0*%
%ADD28RoundRect,0.250000X0.625000X-0.375000X0.625000X0.375000X-0.625000X0.375000X-0.625000X-0.375000X0*%
%ADD29RoundRect,0.225000X-0.225000X-0.250000X0.225000X-0.250000X0.225000X0.250000X-0.225000X0.250000X0*%
%ADD30R,1.200000X1.400000*%
%ADD31R,0.550000X1.500000*%
%ADD32R,1.500000X0.550000*%
G04 APERTURE END LIST*
D10*
%TO.C,R1*%
X128181250Y-107993750D03*
D11*
X133261250Y-107993750D03*
D12*
X130721250Y-102913750D03*
D11*
X123101250Y-107993750D03*
D12*
X124371250Y-105453750D03*
D13*
X121096250Y-105453750D03*
X134023250Y-102913750D03*
%TD*%
D12*
%TO.C,H1*%
X173583750Y-121963750D03*
X167233750Y-124503750D03*
D11*
X176123750Y-127043750D03*
D10*
X171043750Y-127043750D03*
D11*
X165963750Y-127043750D03*
D13*
X163958750Y-124503750D03*
X176885750Y-121963750D03*
%TD*%
D10*
%TO.C,/1*%
X256768750Y-146093750D03*
D11*
X251688750Y-146093750D03*
X261848750Y-146093750D03*
D12*
X259308750Y-141013750D03*
X252958750Y-143553750D03*
D13*
X249683750Y-143553750D03*
X262610750Y-141013750D03*
%TD*%
D11*
%TO.C,[1*%
X266611250Y-107993750D03*
X256451250Y-107993750D03*
D10*
X261531250Y-107993750D03*
D12*
X264071250Y-102913750D03*
X257721250Y-105453750D03*
D13*
X254446250Y-105453750D03*
X267373250Y-102913750D03*
%TD*%
D11*
%TO.C,MX8*%
X189776250Y-88943750D03*
D12*
X191046250Y-86403750D03*
D10*
X194856250Y-88943750D03*
D11*
X199936250Y-88943750D03*
D12*
X197396250Y-83863750D03*
D13*
X187771250Y-86403750D03*
X200698250Y-83863750D03*
%TD*%
D10*
%TO.C,UP1*%
X313918750Y-150856250D03*
D12*
X310108750Y-148316250D03*
D11*
X318998750Y-150856250D03*
X308838750Y-150856250D03*
D12*
X316458750Y-145776250D03*
D13*
X306833750Y-148316250D03*
X319760750Y-145776250D03*
%TD*%
D11*
%TO.C,F7*%
X190454106Y-60368750D03*
D12*
X187914106Y-55288750D03*
X181564106Y-57828750D03*
D10*
X185374106Y-60368750D03*
D11*
X180294106Y-60368750D03*
D13*
X178289106Y-57828750D03*
X191216106Y-55288750D03*
%TD*%
D10*
%TO.C,WIN1*%
X68650000Y-165143750D03*
D12*
X71190000Y-160063750D03*
D11*
X63570000Y-165143750D03*
X73730000Y-165143750D03*
D12*
X64840000Y-162603750D03*
D13*
X61565000Y-162603750D03*
X74492000Y-160063750D03*
%TD*%
D10*
%TO.C,MX6*%
X156756250Y-88943750D03*
D12*
X159296250Y-83863750D03*
D11*
X161836250Y-88943750D03*
D12*
X152946250Y-86403750D03*
D11*
X151676250Y-88943750D03*
D13*
X149671250Y-86403750D03*
X162598250Y-83863750D03*
%TD*%
D12*
%TO.C,TAB1*%
X43408750Y-105453750D03*
D11*
X52298750Y-107993750D03*
X42138750Y-107993750D03*
D10*
X47218750Y-107993750D03*
D12*
X49758750Y-102913750D03*
D13*
X40133750Y-105453750D03*
X53060750Y-102913750D03*
%TD*%
D12*
%TO.C,MX7*%
X171996250Y-86403750D03*
D10*
X175806250Y-88943750D03*
D11*
X180886250Y-88943750D03*
X170726250Y-88943750D03*
D12*
X178346250Y-83863750D03*
D13*
X168721250Y-86403750D03*
X181648250Y-83863750D03*
%TD*%
D12*
%TO.C,MX5*%
X140246250Y-83863750D03*
X133896250Y-86403750D03*
D10*
X137706250Y-88943750D03*
D11*
X142786250Y-88943750D03*
X132626250Y-88943750D03*
D13*
X130621250Y-86403750D03*
X143548250Y-83863750D03*
%TD*%
D12*
%TO.C,Q1*%
X67221250Y-105453750D03*
X73571250Y-102913750D03*
D11*
X76111250Y-107993750D03*
D10*
X71031250Y-107993750D03*
D11*
X65951250Y-107993750D03*
D13*
X63946250Y-105453750D03*
X76873250Y-102913750D03*
%TD*%
D10*
%TO.C,BACK1*%
X299631250Y-88943750D03*
D12*
X302171250Y-83863750D03*
D11*
X294551250Y-88943750D03*
X304711250Y-88943750D03*
D12*
X295821250Y-86403750D03*
D13*
X292546250Y-86403750D03*
X305473250Y-83863750D03*
%TD*%
D12*
%TO.C,E1*%
X111671250Y-102913750D03*
D10*
X109131250Y-107993750D03*
D12*
X105321250Y-105453750D03*
D11*
X114211250Y-107993750D03*
X104051250Y-107993750D03*
D13*
X102046250Y-105453750D03*
X114973250Y-102913750D03*
%TD*%
D12*
%TO.C,;1*%
X243433750Y-124503750D03*
D11*
X242163750Y-127043750D03*
X252323750Y-127043750D03*
D10*
X247243750Y-127043750D03*
D12*
X249783750Y-121963750D03*
D13*
X240158750Y-124503750D03*
X253085750Y-121963750D03*
%TD*%
D11*
%TO.C,\u002C1*%
X213588750Y-146093750D03*
X223748750Y-146093750D03*
D12*
X214858750Y-143553750D03*
X221208750Y-141013750D03*
D10*
X218668750Y-146093750D03*
D13*
X211583750Y-143553750D03*
X224510750Y-141013750D03*
%TD*%
D11*
%TO.C,P1*%
X247561250Y-107993750D03*
X237401250Y-107993750D03*
D10*
X242481250Y-107993750D03*
D12*
X238671250Y-105453750D03*
X245021250Y-102913750D03*
D13*
X235396250Y-105453750D03*
X248323250Y-102913750D03*
%TD*%
D11*
%TO.C,ALT2*%
X238036250Y-165143750D03*
D12*
X235496250Y-160063750D03*
D10*
X232956250Y-165143750D03*
D11*
X227876250Y-165143750D03*
D12*
X229146250Y-162603750D03*
D13*
X225871250Y-162603750D03*
X238798250Y-160063750D03*
%TD*%
D12*
%TO.C,X1*%
X106908750Y-141013750D03*
D10*
X104368750Y-146093750D03*
D11*
X99288750Y-146093750D03*
X109448750Y-146093750D03*
D12*
X100558750Y-143553750D03*
D13*
X97283750Y-143553750D03*
X110210750Y-141013750D03*
%TD*%
D11*
%TO.C,ENTER1*%
X302330000Y-127043750D03*
D12*
X293440000Y-124503750D03*
D10*
X297250000Y-127043750D03*
D11*
X292170000Y-127043750D03*
D12*
X299790000Y-121963750D03*
D13*
X290165000Y-124503750D03*
X303092000Y-121963750D03*
%TD*%
D14*
%TO.C,TP1*%
X194600000Y-176300000D03*
%TD*%
D12*
%TO.C,OPT3*%
X340271250Y-102926250D03*
X333921250Y-105466250D03*
D10*
X337731250Y-108006250D03*
D11*
X342811250Y-108006250D03*
X332651250Y-108006250D03*
D13*
X330646250Y-105466250D03*
X343573250Y-102926250D03*
%TD*%
D12*
%TO.C,F5*%
X149771250Y-55288750D03*
X143421250Y-57828750D03*
D10*
X147231250Y-60368750D03*
D11*
X142151250Y-60368750D03*
X152311250Y-60368750D03*
D13*
X140146250Y-57828750D03*
X153073250Y-55288750D03*
%TD*%
D12*
%TO.C,F9*%
X230745656Y-55288750D03*
D11*
X223125656Y-60368750D03*
D10*
X228205656Y-60368750D03*
D12*
X224395656Y-57828750D03*
D11*
X233285656Y-60368750D03*
D13*
X221120656Y-57828750D03*
X234047656Y-55288750D03*
%TD*%
D12*
%TO.C,OPT2*%
X340271250Y-83863750D03*
D11*
X342811250Y-88943750D03*
D12*
X333921250Y-86403750D03*
D10*
X337731250Y-88943750D03*
D11*
X332651250Y-88943750D03*
D13*
X330646250Y-86403750D03*
X343573250Y-83863750D03*
%TD*%
D11*
%TO.C,ALT1*%
X97542500Y-165143750D03*
X87382500Y-165143750D03*
D10*
X92462500Y-165143750D03*
D12*
X95002500Y-160063750D03*
X88652500Y-162603750D03*
D13*
X85377500Y-162603750D03*
X98304500Y-160063750D03*
%TD*%
D11*
%TO.C,`~1*%
X47536250Y-88943750D03*
X37376250Y-88943750D03*
D12*
X44996250Y-83863750D03*
X38646250Y-86403750D03*
D10*
X42456250Y-88943750D03*
D13*
X35371250Y-86403750D03*
X48298250Y-83863750D03*
%TD*%
D10*
%TO.C,J1*%
X190093750Y-127043750D03*
D12*
X192633750Y-121963750D03*
D11*
X185013750Y-127043750D03*
X195173750Y-127043750D03*
D12*
X186283750Y-124503750D03*
D13*
X183008750Y-124503750D03*
X195935750Y-121963750D03*
%TD*%
D11*
%TO.C,O1*%
X228511250Y-107993750D03*
D12*
X219621250Y-105453750D03*
D10*
X223431250Y-107993750D03*
D11*
X218351250Y-107993750D03*
D12*
X225971250Y-102913750D03*
D13*
X216346250Y-105453750D03*
X229273250Y-102913750D03*
%TD*%
D10*
%TO.C,F13*%
X132943750Y-127043750D03*
D11*
X127863750Y-127043750D03*
D12*
X129133750Y-124503750D03*
X135483750Y-121963750D03*
D11*
X138023750Y-127043750D03*
D13*
X125858750Y-124503750D03*
X138785750Y-121963750D03*
%TD*%
D11*
%TO.C,L1*%
X223113750Y-127043750D03*
D12*
X224383750Y-124503750D03*
D11*
X233273750Y-127043750D03*
D10*
X228193750Y-127043750D03*
D12*
X230733750Y-121963750D03*
D13*
X221108750Y-124503750D03*
X234035750Y-121963750D03*
%TD*%
D10*
%TO.C,B1*%
X161518750Y-146093750D03*
D12*
X164058750Y-141013750D03*
X157708750Y-143553750D03*
D11*
X166598750Y-146093750D03*
X156438750Y-146093750D03*
D13*
X154433750Y-143553750D03*
X167360750Y-141013750D03*
%TD*%
D15*
%TO.C,J2*%
X326443750Y-54537500D03*
X325593750Y-54537500D03*
X324743750Y-54537500D03*
X323893750Y-54537500D03*
X323043750Y-54537500D03*
X322193750Y-54537500D03*
X321343750Y-54537500D03*
X320493750Y-54537500D03*
X320493750Y-53187500D03*
X321343750Y-53187500D03*
X322193750Y-53187500D03*
X323043750Y-53187500D03*
X323893750Y-53187500D03*
X324743750Y-53187500D03*
X325593750Y-53187500D03*
X326443750Y-53187500D03*
D16*
X319143750Y-53557500D03*
X327793750Y-53557500D03*
D17*
X319143750Y-50177500D03*
X327793750Y-50177500D03*
%TD*%
D11*
%TO.C,MX9*%
X218986250Y-88943750D03*
D12*
X210096250Y-86403750D03*
D10*
X213906250Y-88943750D03*
D12*
X216446250Y-83863750D03*
D11*
X208826250Y-88943750D03*
D13*
X206821250Y-86403750D03*
X219748250Y-83863750D03*
%TD*%
D12*
%TO.C,SPACE1*%
X160090000Y-162603750D03*
D11*
X168980000Y-165143750D03*
X158820000Y-165143750D03*
D12*
X166440000Y-160063750D03*
D10*
X163900000Y-165143750D03*
D13*
X156815000Y-162603750D03*
X169742000Y-160063750D03*
%TD*%
D11*
%TO.C,F1*%
X61188750Y-60368750D03*
D12*
X62458750Y-57828750D03*
D10*
X66268750Y-60368750D03*
D12*
X68808750Y-55288750D03*
D11*
X71348750Y-60368750D03*
D13*
X59183750Y-57828750D03*
X72110750Y-55288750D03*
%TD*%
D11*
%TO.C,DEL1*%
X314236250Y-60368750D03*
D10*
X309156250Y-60368750D03*
D11*
X304076250Y-60368750D03*
D12*
X305346250Y-57828750D03*
X311696250Y-55288750D03*
D13*
X302071250Y-57828750D03*
X314998250Y-55288750D03*
%TD*%
D10*
%TO.C,D46*%
X113893750Y-127043750D03*
D12*
X110083750Y-124503750D03*
X116433750Y-121963750D03*
D11*
X108813750Y-127043750D03*
X118973750Y-127043750D03*
D13*
X106808750Y-124503750D03*
X119735750Y-121963750D03*
%TD*%
D18*
%TO.C,REF\u002A\u002A*%
X287693250Y-97198750D03*
D19*
X287693250Y-81958750D03*
D18*
X311569250Y-97198750D03*
D19*
X311569250Y-81958750D03*
%TD*%
D12*
%TO.C,U1*%
X181521250Y-105453750D03*
D11*
X190411250Y-107993750D03*
D12*
X187871250Y-102913750D03*
D10*
X185331250Y-107993750D03*
D11*
X180251250Y-107993750D03*
D13*
X178246250Y-105453750D03*
X191173250Y-102913750D03*
%TD*%
D12*
%TO.C,V1*%
X138658750Y-143553750D03*
X145008750Y-141013750D03*
D11*
X137388750Y-146093750D03*
X147548750Y-146093750D03*
D10*
X142468750Y-146093750D03*
D13*
X135383750Y-143553750D03*
X148310750Y-141013750D03*
%TD*%
D12*
%TO.C,G1*%
X148183750Y-124503750D03*
D11*
X157073750Y-127043750D03*
D10*
X151993750Y-127043750D03*
D11*
X146913750Y-127043750D03*
D12*
X154533750Y-121963750D03*
D13*
X144908750Y-124503750D03*
X157835750Y-121963750D03*
%TD*%
D12*
%TO.C,Z1*%
X81508750Y-143553750D03*
D11*
X90398750Y-146093750D03*
D10*
X85318750Y-146093750D03*
D12*
X87858750Y-141013750D03*
D11*
X80238750Y-146093750D03*
D13*
X78233750Y-143553750D03*
X91160750Y-141013750D03*
%TD*%
D11*
%TO.C,'1*%
X271373750Y-127043750D03*
D12*
X268833750Y-121963750D03*
D11*
X261213750Y-127043750D03*
D12*
X262483750Y-124503750D03*
D10*
X266293750Y-127043750D03*
D13*
X259208750Y-124503750D03*
X272135750Y-121963750D03*
%TD*%
D10*
%TO.C,CTL1*%
X271056250Y-165143750D03*
D11*
X265976250Y-165143750D03*
D12*
X267246250Y-162603750D03*
D11*
X276136250Y-165143750D03*
D12*
X273596250Y-160063750D03*
D13*
X263971250Y-162603750D03*
X276898250Y-160063750D03*
%TD*%
D11*
%TO.C,Y1*%
X161201250Y-107993750D03*
D12*
X162471250Y-105453750D03*
X168821250Y-102913750D03*
D10*
X166281250Y-107993750D03*
D11*
X171361250Y-107993750D03*
D13*
X159196250Y-105453750D03*
X172123250Y-102913750D03*
%TD*%
D11*
%TO.C,W1*%
X85001250Y-107993750D03*
D12*
X92621250Y-102913750D03*
X86271250Y-105453750D03*
D10*
X90081250Y-107993750D03*
D11*
X95161250Y-107993750D03*
D13*
X82996250Y-105453750D03*
X95923250Y-102913750D03*
%TD*%
D11*
%TO.C,F3*%
X99306309Y-60368750D03*
X109466309Y-60368750D03*
D10*
X104386309Y-60368750D03*
D12*
X100576309Y-57828750D03*
X106926309Y-55288750D03*
D13*
X97301309Y-57828750D03*
X110228309Y-55288750D03*
%TD*%
D10*
%TO.C,LEFT1*%
X294850000Y-169887500D03*
D11*
X289770000Y-169887500D03*
D12*
X297390000Y-164807500D03*
D11*
X299930000Y-169887500D03*
D12*
X291040000Y-167347500D03*
D13*
X287765000Y-167347500D03*
X300692000Y-164807500D03*
%TD*%
D12*
%TO.C,C1*%
X125958750Y-141013750D03*
D11*
X118338750Y-146093750D03*
D12*
X119608750Y-143553750D03*
D11*
X128498750Y-146093750D03*
D10*
X123418750Y-146093750D03*
D13*
X116333750Y-143553750D03*
X129260750Y-141013750D03*
%TD*%
D11*
%TO.C,F8*%
X199365534Y-60368750D03*
D12*
X206985534Y-55288750D03*
D11*
X209525534Y-60368750D03*
D10*
X204445534Y-60368750D03*
D12*
X200635534Y-57828750D03*
D13*
X197360534Y-57828750D03*
X210287534Y-55288750D03*
%TD*%
D11*
%TO.C,]1*%
X275501250Y-107993750D03*
D12*
X283121250Y-102913750D03*
D10*
X280581250Y-107993750D03*
D12*
X276771250Y-105453750D03*
D11*
X285661250Y-107993750D03*
D13*
X273496250Y-105453750D03*
X286423250Y-102913750D03*
%TD*%
D11*
%TO.C,K1*%
X214223750Y-127043750D03*
D12*
X205333750Y-124503750D03*
X211683750Y-121963750D03*
D10*
X209143750Y-127043750D03*
D11*
X204063750Y-127043750D03*
D13*
X202058750Y-124503750D03*
X214985750Y-121963750D03*
%TD*%
D12*
%TO.C,F4*%
X125993868Y-55288750D03*
D10*
X123453868Y-60368750D03*
D11*
X118373868Y-60368750D03*
D12*
X119643868Y-57828750D03*
D11*
X128533868Y-60368750D03*
D13*
X116368868Y-57828750D03*
X129295868Y-55288750D03*
%TD*%
D10*
%TO.C,DOWN1*%
X313918750Y-169906250D03*
D11*
X318998750Y-169906250D03*
X308838750Y-169906250D03*
D12*
X310108750Y-167366250D03*
X316458750Y-164826250D03*
D13*
X306833750Y-167366250D03*
X319760750Y-164826250D03*
%TD*%
D10*
%TO.C,OPT5*%
X337731250Y-146131250D03*
D11*
X332651250Y-146131250D03*
D12*
X340271250Y-141051250D03*
D11*
X342811250Y-146131250D03*
D12*
X333921250Y-143591250D03*
D13*
X330646250Y-143591250D03*
X343573250Y-141051250D03*
%TD*%
D11*
%TO.C,FN1*%
X257086250Y-165143750D03*
X246926250Y-165143750D03*
D12*
X248196250Y-162603750D03*
D10*
X252006250Y-165143750D03*
D12*
X254546250Y-160063750D03*
D13*
X244921250Y-162603750D03*
X257848250Y-160063750D03*
%TD*%
D18*
%TO.C,REF\u002A\u002A*%
X66300500Y-137838750D03*
D19*
X66300500Y-153078750D03*
D18*
X42424500Y-137838750D03*
D19*
X42424500Y-153078750D03*
%TD*%
D11*
%TO.C,F12*%
X290399938Y-60368750D03*
X280239938Y-60368750D03*
D10*
X285319938Y-60368750D03*
D12*
X281509938Y-57828750D03*
X287859938Y-55288750D03*
D13*
X278234938Y-57828750D03*
X291161938Y-55288750D03*
%TD*%
D11*
%TO.C,R_SHIFT1*%
X288042500Y-146093750D03*
X277882500Y-146093750D03*
D12*
X285502500Y-141013750D03*
X279152500Y-143553750D03*
D10*
X282962500Y-146093750D03*
D13*
X275877500Y-143553750D03*
X288804500Y-141013750D03*
%TD*%
D19*
%TO.C,REF\u002A\u002A*%
X285312000Y-134028750D03*
X309188000Y-134028750D03*
D18*
X309188000Y-118788750D03*
X285312000Y-118788750D03*
%TD*%
D10*
%TO.C,esc1*%
X42456250Y-60368750D03*
D12*
X44996250Y-55288750D03*
D11*
X47536250Y-60368750D03*
D12*
X38646250Y-57828750D03*
D11*
X37376250Y-60368750D03*
D13*
X35371250Y-57828750D03*
X48298250Y-55288750D03*
%TD*%
D11*
%TO.C,\u005C1*%
X299313750Y-107993750D03*
X309473750Y-107993750D03*
D10*
X304393750Y-107993750D03*
D12*
X306933750Y-102913750D03*
X300583750Y-105453750D03*
D13*
X297308750Y-105453750D03*
X310235750Y-102913750D03*
%TD*%
D11*
%TO.C,OPT4*%
X342811250Y-127068750D03*
X332651250Y-127068750D03*
D12*
X340271250Y-121988750D03*
X333921250Y-124528750D03*
D10*
X337731250Y-127068750D03*
D13*
X330646250Y-124528750D03*
X343573250Y-121988750D03*
%TD*%
D12*
%TO.C,F11*%
X262471844Y-57828750D03*
X268821844Y-55288750D03*
D10*
X266281844Y-60368750D03*
D11*
X271361844Y-60368750D03*
X261201844Y-60368750D03*
D13*
X259196844Y-57828750D03*
X272123844Y-55288750D03*
%TD*%
D11*
%TO.C,A1*%
X80873750Y-127043750D03*
D12*
X78333750Y-121963750D03*
X71983750Y-124503750D03*
D11*
X70713750Y-127043750D03*
D10*
X75793750Y-127043750D03*
D13*
X68708750Y-124503750D03*
X81635750Y-121963750D03*
%TD*%
D12*
%TO.C,MX3*%
X95796250Y-86403750D03*
D10*
X99606250Y-88943750D03*
D11*
X94526250Y-88943750D03*
D12*
X102146250Y-83863750D03*
D11*
X104686250Y-88943750D03*
D13*
X92521250Y-86403750D03*
X105448250Y-83863750D03*
%TD*%
D11*
%TO.C,MX4*%
X123736250Y-88943750D03*
D10*
X118656250Y-88943750D03*
D12*
X121196250Y-83863750D03*
D11*
X113576250Y-88943750D03*
D12*
X114846250Y-86403750D03*
D13*
X111571250Y-86403750D03*
X124498250Y-83863750D03*
%TD*%
D10*
%TO.C,MX2*%
X80556250Y-88943750D03*
D12*
X76746250Y-86403750D03*
D11*
X75476250Y-88943750D03*
D12*
X83096250Y-83863750D03*
D11*
X85636250Y-88943750D03*
D13*
X73471250Y-86403750D03*
X86398250Y-83863750D03*
%TD*%
D11*
%TO.C,I1*%
X209461250Y-107993750D03*
X199301250Y-107993750D03*
D12*
X206921250Y-102913750D03*
D10*
X204381250Y-107993750D03*
D12*
X200571250Y-105453750D03*
D13*
X197296250Y-105453750D03*
X210223250Y-102913750D03*
%TD*%
D11*
%TO.C,MX1*%
X56426250Y-88943750D03*
D10*
X61506250Y-88943750D03*
D11*
X66586250Y-88943750D03*
D12*
X57696250Y-86403750D03*
X64046250Y-83863750D03*
D13*
X54421250Y-86403750D03*
X67348250Y-83863750D03*
%TD*%
D12*
%TO.C,.1*%
X233908750Y-143553750D03*
D11*
X232638750Y-146093750D03*
D12*
X240258750Y-141013750D03*
D11*
X242798750Y-146093750D03*
D10*
X237718750Y-146093750D03*
D13*
X230633750Y-143553750D03*
X243560750Y-141013750D03*
%TD*%
D12*
%TO.C,F6*%
X162492678Y-57828750D03*
D11*
X161222678Y-60368750D03*
X171382678Y-60368750D03*
D10*
X166302678Y-60368750D03*
D12*
X168842678Y-55288750D03*
D13*
X159217678Y-57828750D03*
X172144678Y-55288750D03*
%TD*%
D10*
%TO.C,CAPS1*%
X49600000Y-127043750D03*
D12*
X52140000Y-121963750D03*
D11*
X44520000Y-127043750D03*
D12*
X45790000Y-124503750D03*
D11*
X54680000Y-127043750D03*
D13*
X42515000Y-124503750D03*
X55442000Y-121963750D03*
%TD*%
D12*
%TO.C,RIGHT1*%
X335508750Y-164826250D03*
X329158750Y-167366250D03*
D11*
X327888750Y-169906250D03*
D10*
X332968750Y-169906250D03*
D11*
X338048750Y-169906250D03*
D13*
X325883750Y-167366250D03*
X338810750Y-164826250D03*
%TD*%
D12*
%TO.C,L_SHIFT1*%
X50552500Y-143553750D03*
D11*
X49282500Y-146093750D03*
X59442500Y-146093750D03*
D10*
X54362500Y-146093750D03*
D12*
X56902500Y-141013750D03*
D13*
X47277500Y-143553750D03*
X60204500Y-141013750D03*
%TD*%
D10*
%TO.C,F10*%
X247243750Y-60368750D03*
D12*
X243433750Y-57828750D03*
D11*
X242163750Y-60368750D03*
D12*
X249783750Y-55288750D03*
D11*
X252323750Y-60368750D03*
D13*
X240158750Y-57828750D03*
X253085750Y-55288750D03*
%TD*%
D10*
%TO.C,M1*%
X199618750Y-146093750D03*
D12*
X195808750Y-143553750D03*
D11*
X194538750Y-146093750D03*
D12*
X202158750Y-141013750D03*
D11*
X204698750Y-146093750D03*
D13*
X192533750Y-143553750D03*
X205460750Y-141013750D03*
%TD*%
D11*
%TO.C,+1*%
X276136250Y-88943750D03*
X265976250Y-88943750D03*
D12*
X267246250Y-86403750D03*
X273596250Y-83863750D03*
D10*
X271056250Y-88943750D03*
D13*
X263971250Y-86403750D03*
X276898250Y-83863750D03*
%TD*%
D20*
%TO.C,TP2*%
X194600000Y-178400000D03*
%TD*%
D11*
%TO.C,F2*%
X80238750Y-60368750D03*
D12*
X81508750Y-57828750D03*
D10*
X85318750Y-60368750D03*
D12*
X87858750Y-55288750D03*
D11*
X90398750Y-60368750D03*
D13*
X78233750Y-57828750D03*
X91160750Y-55288750D03*
%TD*%
D10*
%TO.C,N1*%
X180568750Y-146093750D03*
D11*
X185648750Y-146093750D03*
D12*
X176758750Y-143553750D03*
D11*
X175488750Y-146093750D03*
D12*
X183108750Y-141013750D03*
D13*
X173483750Y-143553750D03*
X186410750Y-141013750D03*
%TD*%
D10*
%TO.C,MX10*%
X232956250Y-88943750D03*
D11*
X227876250Y-88943750D03*
D12*
X229146250Y-86403750D03*
X235496250Y-83863750D03*
D11*
X238036250Y-88943750D03*
D13*
X225871250Y-86403750D03*
X238798250Y-83863750D03*
%TD*%
D11*
%TO.C,-1*%
X246926250Y-88943750D03*
D12*
X248196250Y-86403750D03*
X254546250Y-83863750D03*
D10*
X252006250Y-88943750D03*
D11*
X257086250Y-88943750D03*
D13*
X244921250Y-86403750D03*
X257848250Y-83863750D03*
%TD*%
D10*
%TO.C,CLT1*%
X44837500Y-165143750D03*
D12*
X47377500Y-160063750D03*
D11*
X49917500Y-165143750D03*
D12*
X41027500Y-162603750D03*
D11*
X39757500Y-165143750D03*
D13*
X37752500Y-162603750D03*
X50679500Y-160063750D03*
%TD*%
D11*
%TO.C,S1*%
X99923750Y-127043750D03*
D12*
X91033750Y-124503750D03*
D11*
X89763750Y-127043750D03*
D10*
X94843750Y-127043750D03*
D12*
X97383750Y-121963750D03*
D13*
X87758750Y-124503750D03*
X100685750Y-121963750D03*
%TD*%
D10*
%TO.C,T1*%
X147231250Y-107993750D03*
D12*
X143421250Y-105453750D03*
D11*
X152311250Y-107993750D03*
X142151250Y-107993750D03*
D12*
X149771250Y-102913750D03*
D13*
X140146250Y-105453750D03*
X153073250Y-102913750D03*
%TD*%
D11*
%TO.C,OPT1*%
X332651250Y-60368750D03*
D12*
X333921250Y-57828750D03*
D11*
X342811250Y-60368750D03*
D12*
X340271250Y-55288750D03*
D10*
X337731250Y-60368750D03*
D13*
X330646250Y-57828750D03*
X343573250Y-55288750D03*
%TD*%
D19*
%TO.C,REF\u002A\u002A*%
X213900000Y-172128750D03*
D18*
X113900000Y-156888750D03*
X213900000Y-156888750D03*
D19*
X113900000Y-172128750D03*
%TD*%
D21*
%TO.C,D11*%
X255672322Y-61996250D03*
X255672322Y-58696250D03*
%TD*%
%TO.C,D9*%
X212881250Y-61996250D03*
X212881250Y-58696250D03*
%TD*%
%TO.C,D49*%
X103168750Y-128671250D03*
X103168750Y-125371250D03*
%TD*%
%TO.C,D78*%
X172300000Y-167093750D03*
X172300000Y-163793750D03*
%TD*%
%TO.C,D24*%
X203281250Y-90571250D03*
X203281250Y-87271250D03*
%TD*%
D22*
%TO.C,TP13*%
X190131250Y-76043750D03*
%TD*%
D21*
%TO.C,D19*%
X107556250Y-90571250D03*
X107556250Y-87271250D03*
%TD*%
%TO.C,D82*%
X303268750Y-171515000D03*
X303268750Y-168215000D03*
%TD*%
%TO.C,D61*%
X62487500Y-147721250D03*
X62487500Y-144421250D03*
%TD*%
%TO.C,D34*%
X117506250Y-109621250D03*
X117506250Y-106321250D03*
%TD*%
%TO.C,D43*%
X288956250Y-109621250D03*
X288956250Y-106321250D03*
%TD*%
D22*
%TO.C,TP4*%
X155224111Y-75943750D03*
%TD*%
D21*
%TO.C,D53*%
X179293750Y-128671250D03*
X179293750Y-125371250D03*
%TD*%
%TO.C,D57*%
X255668750Y-128671250D03*
X255668750Y-125371250D03*
%TD*%
%TO.C,D14*%
X317625000Y-62012500D03*
X317625000Y-58712500D03*
%TD*%
%TO.C,D3*%
X93803869Y-61996250D03*
X93803869Y-58696250D03*
%TD*%
%TO.C,D2*%
X74706250Y-62037500D03*
X74706250Y-58737500D03*
%TD*%
%TO.C,D52*%
X160318750Y-128671250D03*
X160318750Y-125371250D03*
%TD*%
%TO.C,D75*%
X53237500Y-166968750D03*
X53237500Y-163668750D03*
%TD*%
%TO.C,D54*%
X198468750Y-128671250D03*
X198468750Y-125371250D03*
%TD*%
%TO.C,D56*%
X236468750Y-128671250D03*
X236468750Y-125371250D03*
%TD*%
%TO.C,D79*%
X241181250Y-167193750D03*
X241181250Y-163893750D03*
%TD*%
%TO.C,D80*%
X260206250Y-167243750D03*
X260206250Y-163943750D03*
%TD*%
%TO.C,D35*%
X136556250Y-109621250D03*
X136556250Y-106321250D03*
%TD*%
%TO.C,D16*%
X50856250Y-90571250D03*
X50856250Y-87271250D03*
%TD*%
%TO.C,D48*%
X84318750Y-128671250D03*
X84318750Y-125371250D03*
%TD*%
D23*
%TO.C,TP3*%
X151345540Y-75943750D03*
%TD*%
D21*
%TO.C,D30*%
X346193750Y-90556250D03*
X346193750Y-87256250D03*
%TD*%
D22*
%TO.C,TP9*%
X174616966Y-76043750D03*
%TD*%
%TO.C,TP7*%
X166859824Y-76043750D03*
%TD*%
D21*
%TO.C,D83*%
X322368750Y-171481250D03*
X322368750Y-168181250D03*
%TD*%
%TO.C,D13*%
X293805656Y-61996250D03*
X293805656Y-58696250D03*
%TD*%
%TO.C,D41*%
X250856250Y-109621250D03*
X250856250Y-106321250D03*
%TD*%
D24*
%TO.C,R2*%
X192275000Y-174787500D03*
X193925000Y-174787500D03*
%TD*%
D21*
%TO.C,D21*%
X146106250Y-90571250D03*
X146106250Y-87271250D03*
%TD*%
%TO.C,D71*%
X265193750Y-147721250D03*
X265193750Y-144421250D03*
%TD*%
D25*
%TO.C,R4*%
X210750000Y-176787500D03*
X209100000Y-176787500D03*
%TD*%
D21*
%TO.C,D32*%
X79406250Y-109621250D03*
X79406250Y-106321250D03*
%TD*%
%TO.C,D40*%
X231756250Y-109621250D03*
X231756250Y-106321250D03*
%TD*%
%TO.C,D51*%
X141293750Y-128671250D03*
X141293750Y-125371250D03*
%TD*%
D22*
%TO.C,TP14*%
X194009821Y-76043750D03*
%TD*%
D21*
%TO.C,D47*%
X57725000Y-128671250D03*
X57725000Y-125371250D03*
%TD*%
D24*
%TO.C,R5*%
X207925000Y-159787500D03*
X209575000Y-159787500D03*
%TD*%
D21*
%TO.C,D27*%
X260406250Y-90571250D03*
X260406250Y-87271250D03*
%TD*%
%TO.C,D29*%
X307931250Y-90571250D03*
X307931250Y-87271250D03*
%TD*%
D26*
%TO.C,C6*%
X215958750Y-162462500D03*
X215958750Y-160912500D03*
%TD*%
D21*
%TO.C,D7*%
X174714582Y-61996250D03*
X174714582Y-58696250D03*
%TD*%
D27*
%TO.C,C3*%
X185850000Y-172368750D03*
X184300000Y-172368750D03*
%TD*%
D21*
%TO.C,D84*%
X341418750Y-171515000D03*
X341418750Y-168215000D03*
%TD*%
D28*
%TO.C,F14*%
X222500000Y-161800000D03*
X222500000Y-159000000D03*
%TD*%
D22*
%TO.C,TP5*%
X159102682Y-75943750D03*
%TD*%
D21*
%TO.C,D81*%
X279256250Y-167293750D03*
X279256250Y-163993750D03*
%TD*%
%TO.C,D1*%
X50816250Y-61996250D03*
X50816250Y-58696250D03*
%TD*%
%TO.C,D70*%
X246132630Y-147721250D03*
X246132630Y-144421250D03*
%TD*%
D26*
%TO.C,C5*%
X218368750Y-162462500D03*
X218368750Y-160912500D03*
%TD*%
D21*
%TO.C,D12*%
X274738988Y-61996250D03*
X274738988Y-58696250D03*
%TD*%
%TO.C,D45*%
X346193750Y-109618750D03*
X346193750Y-106318750D03*
%TD*%
%TO.C,D36*%
X155731250Y-109621250D03*
X155731250Y-106321250D03*
%TD*%
%TO.C,D68*%
X208035410Y-147721250D03*
X208035410Y-144421250D03*
%TD*%
D22*
%TO.C,TP11*%
X182374108Y-76043750D03*
%TD*%
%TO.C,TP10*%
X178495537Y-76043750D03*
%TD*%
D21*
%TO.C,D73*%
X322368750Y-152515000D03*
X322368750Y-149215000D03*
%TD*%
%TO.C,D6*%
X155631250Y-61996250D03*
X155631250Y-58696250D03*
%TD*%
%TO.C,D5*%
X131953869Y-61996250D03*
X131953869Y-58696250D03*
%TD*%
D23*
%TO.C,SW1*%
X340250000Y-67887500D03*
D22*
X335250000Y-67887500D03*
X337750000Y-67887500D03*
X335250000Y-53387500D03*
X340250000Y-53387500D03*
%TD*%
D21*
%TO.C,D15*%
X346131250Y-61943750D03*
X346131250Y-58643750D03*
%TD*%
%TO.C,D60*%
X346193750Y-128681250D03*
X346193750Y-125381250D03*
%TD*%
%TO.C,D42*%
X269931250Y-109621250D03*
X269931250Y-106321250D03*
%TD*%
%TO.C,D65*%
X150877080Y-147721250D03*
X150877080Y-144421250D03*
%TD*%
%TO.C,D50*%
X122268750Y-128671250D03*
X122268750Y-125371250D03*
%TD*%
D24*
%TO.C,R3*%
X209100000Y-178787500D03*
X210750000Y-178787500D03*
%TD*%
D22*
%TO.C,TP15*%
X197888392Y-76043750D03*
%TD*%
%TO.C,TP20*%
X240171250Y-154343750D03*
%TD*%
D26*
%TO.C,C7*%
X213618750Y-162462500D03*
X213618750Y-160912500D03*
%TD*%
D22*
%TO.C,TP16*%
X201766963Y-76043750D03*
%TD*%
D27*
%TO.C,C2*%
X185850000Y-165225000D03*
X184300000Y-165225000D03*
%TD*%
D21*
%TO.C,D72*%
X291112500Y-147721250D03*
X291112500Y-144421250D03*
%TD*%
%TO.C,D31*%
X55518750Y-109621250D03*
X55518750Y-106321250D03*
%TD*%
%TO.C,D4*%
X112753869Y-61996250D03*
X112753869Y-58696250D03*
%TD*%
%TO.C,D55*%
X217468750Y-128671250D03*
X217468750Y-125371250D03*
%TD*%
%TO.C,D26*%
X241406250Y-90571250D03*
X241406250Y-87271250D03*
%TD*%
%TO.C,D67*%
X188999300Y-147721250D03*
X188999300Y-144421250D03*
%TD*%
D29*
%TO.C,C4*%
X198150000Y-177787500D03*
X199700000Y-177787500D03*
%TD*%
D22*
%TO.C,TP23*%
X251631250Y-154343750D03*
%TD*%
D21*
%TO.C,D44*%
X312618750Y-109621250D03*
X312618750Y-106321250D03*
%TD*%
%TO.C,D38*%
X193731250Y-109621250D03*
X193731250Y-106321250D03*
%TD*%
%TO.C,D22*%
X165156250Y-90571250D03*
X165156250Y-87271250D03*
%TD*%
D22*
%TO.C,TP22*%
X247811250Y-154343750D03*
%TD*%
D21*
%TO.C,D62*%
X93743750Y-147743750D03*
X93743750Y-144443750D03*
%TD*%
%TO.C,D28*%
X279381250Y-90571250D03*
X279381250Y-87271250D03*
%TD*%
D22*
%TO.C,TP19*%
X236351250Y-154343750D03*
%TD*%
D21*
%TO.C,D58*%
X274518750Y-128671250D03*
X274518750Y-125371250D03*
%TD*%
%TO.C,D25*%
X222231250Y-90571250D03*
X222231250Y-87271250D03*
%TD*%
%TO.C,D77*%
X101112500Y-166968750D03*
X101112500Y-163668750D03*
%TD*%
%TO.C,D39*%
X212806250Y-109621250D03*
X212806250Y-106321250D03*
%TD*%
D22*
%TO.C,TP6*%
X162981253Y-75943750D03*
%TD*%
D30*
%TO.C,Y2*%
X184225000Y-169987500D03*
X184225000Y-167787500D03*
X185925000Y-167787500D03*
X185925000Y-169987500D03*
%TD*%
D21*
%TO.C,D64*%
X131840970Y-147721250D03*
X131840970Y-144421250D03*
%TD*%
%TO.C,D63*%
X112804860Y-147721250D03*
X112804860Y-144421250D03*
%TD*%
%TO.C,D23*%
X184206250Y-90571250D03*
X184206250Y-87271250D03*
%TD*%
%TO.C,D69*%
X227071520Y-147721250D03*
X227071520Y-144421250D03*
%TD*%
%TO.C,D76*%
X77125000Y-166968750D03*
X77125000Y-163668750D03*
%TD*%
D31*
%TO.C,U2*%
X203925000Y-172487500D03*
X203125000Y-172487500D03*
X202325000Y-172487500D03*
X201525000Y-172487500D03*
X200725000Y-172487500D03*
X199925000Y-172487500D03*
X199125000Y-172487500D03*
X198325000Y-172487500D03*
X197525000Y-172487500D03*
X196725000Y-172487500D03*
X195925000Y-172487500D03*
D32*
X194225000Y-170787500D03*
X194225000Y-169987500D03*
X194225000Y-169187500D03*
X194225000Y-168387500D03*
X194225000Y-167587500D03*
X194225000Y-166787500D03*
X194225000Y-165987500D03*
X194225000Y-165187500D03*
X194225000Y-164387500D03*
X194225000Y-163587500D03*
X194225000Y-162787500D03*
D31*
X195925000Y-161087500D03*
X196725000Y-161087500D03*
X197525000Y-161087500D03*
X198325000Y-161087500D03*
X199125000Y-161087500D03*
X199925000Y-161087500D03*
X200725000Y-161087500D03*
X201525000Y-161087500D03*
X202325000Y-161087500D03*
X203125000Y-161087500D03*
X203925000Y-161087500D03*
D32*
X205625000Y-162787500D03*
X205625000Y-163587500D03*
X205625000Y-164387500D03*
X205625000Y-165187500D03*
X205625000Y-165987500D03*
X205625000Y-166787500D03*
X205625000Y-167587500D03*
X205625000Y-168387500D03*
X205625000Y-169187500D03*
X205625000Y-169987500D03*
X205625000Y-170787500D03*
%TD*%
D21*
%TO.C,D20*%
X127056250Y-90571250D03*
X127056250Y-87271250D03*
%TD*%
%TO.C,D33*%
X98481250Y-109621250D03*
X98481250Y-106321250D03*
%TD*%
D22*
%TO.C,TP12*%
X186252679Y-76043750D03*
%TD*%
D21*
%TO.C,D59*%
X305500000Y-128671250D03*
X305500000Y-125371250D03*
%TD*%
D23*
%TO.C,TP18*%
X232531250Y-154343750D03*
%TD*%
D21*
%TO.C,D8*%
X193797914Y-61996250D03*
X193797914Y-58696250D03*
%TD*%
D26*
%TO.C,C8*%
X211368750Y-162462500D03*
X211368750Y-160912500D03*
%TD*%
D21*
%TO.C,D18*%
X89006250Y-90571250D03*
X89006250Y-87271250D03*
%TD*%
%TO.C,D66*%
X169938190Y-147721250D03*
X169938190Y-144421250D03*
%TD*%
%TO.C,D10*%
X236605656Y-61996250D03*
X236605656Y-58696250D03*
%TD*%
%TO.C,D17*%
X69806250Y-90571250D03*
X69806250Y-87271250D03*
%TD*%
D22*
%TO.C,TP21*%
X243991250Y-154343750D03*
%TD*%
D21*
%TO.C,D74*%
X346193750Y-147743750D03*
X346193750Y-144443750D03*
%TD*%
D22*
%TO.C,TP17*%
X205645540Y-76043750D03*
%TD*%
D21*
%TO.C,D37*%
X174606250Y-109621250D03*
X174606250Y-106321250D03*
%TD*%
D22*
%TO.C,TP8*%
X170738395Y-76043750D03*
%TD*%
M02*
