M48
; DRILL file {KiCad (6.0.0)} date Fri Jan 14 20:25:35 2022
; FORMAT={-:-/ absolute / inch / decimal}
; #@! TF.CreationDate,2022-01-14T20:25:35+07:00
; #@! TF.GenerationSoftware,Kicad,Pcbnew,(6.0.0)
; #@! TF.FileFunction,Plated,1,2,PTH
FMAT,2
INCH
; #@! TA.AperFunction,Plated,PTH,ViaDrill
T1C0.0157
; #@! TA.AperFunction,Plated,PTH,ComponentDrill
T2C0.0157
; #@! TA.AperFunction,Plated,PTH,ComponentDrill
T3C0.0197
; #@! TA.AperFunction,Plated,PTH,ComponentDrill
T4C0.0236
; #@! TA.AperFunction,Plated,PTH,ComponentDrill
T5C0.0394
%
G90
G05
T1
X1.3926Y-3.512
X1.5052Y-6.3127
X1.5801Y-4.2341
X1.5801Y-4.808
X1.7276Y-5.6415
X2.123Y-3.4956
X2.1624Y-2.4326
X2.2867Y-2.5558
X2.4774Y-4.0468
X2.4774Y-4.283
X2.6742Y-4.7948
X2.6742Y-5.031
X2.7923Y-6.0153
X2.9Y-3.55
X3.0285Y-5.5428
X3.0285Y-5.779
X3.0679Y-2.3932
X3.1986Y-2.5239
X3.2648Y-4.2744
X3.4616Y-4.8342
X3.6191Y-3.4956
X3.8159Y-2.3932
X3.8159Y-5.5428
X3.9341Y-4.0861
X4.0522Y-6.0153
X4.1309Y-4.8342
X4.4223Y-3.5585
X4.5246Y-2.3932
X4.564Y-5.5428
X4.7608Y-4.283
X4.9577Y-4.9916
X5.1723Y-3.5527
X5.1902Y-6.5568
X5.2683Y-5.5779
X5.3123Y-6.675
X5.4695Y-2.4326
X5.5089Y-4.0468
X5.7057Y-5.031
X5.9026Y-3.4879
X6.0207Y-5.7397
X6.0994Y-6.409
X6.2569Y-2.4326
X6.2569Y-4.0775
X6.4537Y-4.8059
X6.6506Y-3.4956
X6.6506Y-6.8027
X6.8081Y-5.5822
X7.0049Y-2.3932
X7.0049Y-4.2436
X7.1193Y-6.2104
X7.2018Y-4.9916
X7.253Y-6.6058
X7.3199Y-6.6924
X7.3986Y-3.5273
X7.4375Y-6.4872
X7.438Y-6.4085
X7.438Y-6.5271
X7.438Y-6.5664
X7.438Y-6.4479
X7.5091Y-6.9387
X7.5167Y-6.7239
X7.5561Y-5.5428
X7.6902Y-6.8561
X7.7136Y-6.409
X7.7136Y-6.6255
X7.7388Y-4.072
X7.753Y-2.3932
X7.753Y-6.2121
X7.7534Y-6.1723
X7.7805Y-6.865
X7.7935Y-6.172
X7.8425Y-6.8937
X7.9094Y-6.7422
X7.9498Y-4.8059
X8.0285Y-6.468
X8.029Y-6.6841
X8.1467Y-3.5349
X8.251Y-6.2908
X8.3041Y-5.5428
X8.501Y-4.283
X8.5797Y-6.4877
X8.5797Y-6.5271
X8.5797Y-6.5664
X8.6585Y-2.3932
X8.6978Y-5.031
X8.8947Y-3.4956
X8.9341Y-6.2908
X8.9894Y-6.0805
X9.0522Y-5.5034
X9.1339Y-6.9872
X9.1339Y-7.0285
X9.249Y-4.2436
X9.3671Y-6.6058
X9.4163Y-5.9365
X9.4459Y-2.3932
X9.4459Y-5.031
X9.5625Y-5.8971
X9.6427Y-3.5273
X9.6427Y-6.3302
X9.7197Y-5.8452
X9.8396Y-5.7397
X9.9028Y-6.2576
X10.0321Y-4.0424
X10.1939Y-2.3932
X10.1939Y-5.0224
X10.3907Y-3.4956
X10.3907Y-6.2515
X10.4301Y-5.8971
X10.4301Y-5.9365
X10.4301Y-5.9759
X10.5482Y-5.779
X10.5876Y-5.779
X10.627Y-5.779
X10.7451Y-4.2436
X10.8238Y-5.1491
X10.8632Y-5.7714
X10.9419Y-2.3932
X10.9419Y-5.031
X10.9419Y-6.7633
X10.9813Y-5.1491
X11.0994Y-5.031
X11.2963Y-3.6924
X11.3356Y-6.409
X11.4144Y-4.9916
X11.4537Y-4.4011
X11.4646Y-3.0647
X11.4931Y-3.5349
X11.69Y-4.283
X11.8474Y-2.3932
X12.0837Y-5.9365
X12.0837Y-6.6058
X12.3543Y-6.1575
X12.5118Y-6.2047
X12.9892Y-2.3932
X12.9892Y-3.5349
X12.9892Y-4.283
X12.9892Y-5.031
X12.9892Y-5.7397
X12.9892Y-6.0546
T2
X12.6179Y-2.094
X12.6179Y-2.1471
X12.6513Y-2.094
X12.6513Y-2.1471
X12.6848Y-2.094
X12.6848Y-2.1471
X12.7183Y-2.094
X12.7183Y-2.1471
X12.7517Y-2.094
X12.7517Y-2.1471
X12.7852Y-2.094
X12.7852Y-2.1471
X12.8187Y-2.094
X12.8187Y-2.1471
X12.8521Y-2.094
X12.8521Y-2.1471
T3
X7.6614Y-6.9409
X7.6614Y-7.0236
T5
X5.9585Y-2.9899
X6.1112Y-2.9899
X6.2639Y-2.9899
X6.4166Y-2.9899
X6.5693Y-2.9938
X6.722Y-2.9938
X6.8747Y-2.9938
X7.0274Y-2.9938
X7.1801Y-2.9938
X7.3328Y-2.9938
X7.4855Y-2.9938
X7.6382Y-2.9938
X7.7909Y-2.9938
X7.9436Y-2.9938
X8.0963Y-2.9938
X9.1548Y-6.0765
X9.3052Y-6.0765
X9.4556Y-6.0765
X9.606Y-6.0765
X9.7563Y-6.0765
X9.9067Y-6.0765
X13.1988Y-2.1019
X13.1988Y-2.6727
X13.2972Y-2.6727
X13.3957Y-2.1019
X13.3957Y-2.6727
T4
G00X12.5647Y-1.9912
M15
G01X12.5647Y-1.9597
M16
G05
G00X12.5647Y-2.1381
M15
G01X12.5647Y-2.079
M16
G05
G00X12.9053Y-1.9912
M15
G01X12.9053Y-1.9597
M16
G05
G00X12.9053Y-2.1381
M15
G01X12.9053Y-2.079
M16
G05
T0
M30
