M48
; DRILL file {KiCad (6.0.0)} date Fri Jan 14 20:25:35 2022
; FORMAT={-:-/ absolute / inch / decimal}
; #@! TF.CreationDate,2022-01-14T20:25:35+07:00
; #@! TF.GenerationSoftware,Kicad,Pcbnew,(6.0.0)
; #@! TF.FileFunction,NonPlated,1,2,NPTH
FMAT,2
INCH
; #@! TA.AperFunction,NonPlated,NPTH,ComponentDrill
T1C0.0689
; #@! TA.AperFunction,NonPlated,NPTH,ComponentDrill
T2C0.1181
; #@! TA.AperFunction,NonPlated,NPTH,ComponentDrill
T3C0.1200
; #@! TA.AperFunction,NonPlated,NPTH,ComponentDrill
T4C0.1570
; #@! TA.AperFunction,NonPlated,NPTH,ComponentDrill
T5C0.1575
%
G90
G05
T1
X1.4715Y-2.3767
X1.4715Y-3.5017
X1.5653Y-6.5017
X1.659Y-4.2517
X1.7528Y-5.0017
X1.8715Y-2.3767
X1.8715Y-3.5017
X1.9403Y-5.7517
X1.9653Y-6.5017
X2.059Y-4.2517
X2.1528Y-5.0017
X2.2215Y-3.5017
X2.3403Y-5.7517
X2.409Y-2.3767
X2.5028Y-6.5017
X2.5965Y-4.2517
X2.6215Y-3.5017
X2.784Y-5.0017
X2.809Y-2.3767
X2.9028Y-6.5017
X2.9715Y-3.5017
X2.9965Y-4.2517
X3.159Y-2.3767
X3.159Y-5.7517
X3.184Y-5.0017
X3.3465Y-4.2517
X3.3715Y-3.5017
X3.4403Y-6.5017
X3.534Y-5.0017
X3.559Y-2.3767
X3.559Y-5.7517
X3.7215Y-3.5017
X3.7465Y-4.2517
X3.8403Y-6.5017
X3.909Y-5.7517
X3.9097Y-2.3767
X3.934Y-5.0017
X4.0965Y-4.2517
X4.1215Y-3.5017
X4.284Y-5.0017
X4.309Y-5.7517
X4.3097Y-2.3767
X4.4715Y-3.5017
X4.4965Y-4.2517
X4.659Y-5.7517
X4.6604Y-2.3767
X4.684Y-5.0017
X4.8465Y-4.2517
X4.8715Y-3.5017
X5.034Y-5.0017
X5.059Y-5.7517
X5.0604Y-2.3767
X5.2215Y-3.5017
X5.2465Y-4.2517
X5.409Y-5.7517
X5.434Y-5.0017
X5.5965Y-2.3767
X5.5965Y-4.2517
X5.6215Y-3.5017
X5.784Y-5.0017
X5.809Y-5.7517
X5.9715Y-3.5017
X5.9965Y-2.3767
X5.9965Y-4.2517
X6.159Y-5.7517
X6.184Y-5.0017
X6.2528Y-6.5017
X6.3465Y-4.2517
X6.3473Y-2.3767
X6.3715Y-3.5017
X6.534Y-5.0017
X6.559Y-5.7517
X6.6528Y-6.5017
X6.7215Y-3.5017
X6.7465Y-4.2517
X6.7473Y-2.3767
X6.909Y-5.7517
X6.934Y-5.0017
X7.0965Y-4.2517
X7.0982Y-2.3767
X7.1215Y-3.5017
X7.284Y-5.0017
X7.309Y-5.7517
X7.4715Y-3.5017
X7.4965Y-4.2517
X7.4982Y-2.3767
X7.659Y-5.7517
X7.684Y-5.0017
X7.8465Y-4.2517
X7.849Y-2.3767
X7.8715Y-3.5017
X8.034Y-5.0017
X8.059Y-5.7517
X8.2215Y-3.5017
X8.2465Y-4.2517
X8.249Y-2.3767
X8.409Y-5.7517
X8.434Y-5.0017
X8.5965Y-4.2517
X8.6215Y-3.5017
X8.784Y-5.0017
X8.7845Y-2.3767
X8.809Y-5.7517
X8.9715Y-3.5017
X8.9715Y-6.5017
X8.9965Y-4.2517
X9.159Y-5.7517
X9.184Y-5.0017
X9.1845Y-2.3767
X9.3465Y-4.2517
X9.3715Y-3.5017
X9.3715Y-6.5017
X9.534Y-2.3767
X9.534Y-5.0017
X9.559Y-5.7517
X9.7215Y-3.5017
X9.7215Y-6.5017
X9.7465Y-4.2517
X9.909Y-5.7517
X9.934Y-2.3767
X9.934Y-5.0017
X10.0965Y-4.2517
X10.1215Y-3.5017
X10.1215Y-6.5017
X10.2835Y-2.3767
X10.284Y-5.0017
X10.309Y-5.7517
X10.4715Y-3.5017
X10.4715Y-6.5017
X10.4965Y-4.2517
X10.6835Y-2.3767
X10.684Y-5.0017
X10.8465Y-4.2517
X10.8715Y-3.5017
X10.8715Y-6.5017
X10.9403Y-5.7517
X11.0331Y-2.3767
X11.2465Y-4.2517
X11.3403Y-5.7517
X11.4083Y-6.6885
X11.4331Y-2.3767
X11.5028Y-5.0017
X11.5965Y-3.5017
X11.784Y-4.2517
X11.8083Y-6.6885
X11.9028Y-5.0017
X11.9715Y-2.3767
X11.9965Y-3.5017
X12.159Y-5.9392
X12.159Y-6.6892
X12.184Y-4.2517
X12.3715Y-2.3767
X12.559Y-5.9392
X12.559Y-6.6892
X12.909Y-6.6892
X13.0965Y-2.3767
X13.0965Y-3.5017
X13.0965Y-4.2522
X13.0965Y-5.0027
X13.0965Y-5.7532
X13.309Y-6.6892
X13.4965Y-2.3767
X13.4965Y-3.5017
X13.4965Y-4.2522
X13.4965Y-5.0027
X13.4965Y-5.7532
T2
X1.5215Y-2.2767
X1.5215Y-3.4017
X1.6153Y-6.4017
X1.709Y-4.1517
X1.7715Y-2.1767
X1.7715Y-3.3017
X1.8028Y-4.9017
X1.8653Y-6.3017
X1.959Y-4.0517
X1.9903Y-5.6517
X2.0528Y-4.8017
X2.2403Y-5.5517
X2.2715Y-3.4017
X2.459Y-2.2767
X2.5215Y-3.3017
X2.5528Y-6.4017
X2.6465Y-4.1517
X2.709Y-2.1767
X2.8028Y-6.3017
X2.834Y-4.9017
X2.8965Y-4.0517
X3.0215Y-3.4017
X3.084Y-4.8017
X3.209Y-2.2767
X3.209Y-5.6517
X3.2715Y-3.3017
X3.3965Y-4.1517
X3.459Y-2.1767
X3.459Y-5.5517
X3.4903Y-6.4017
X3.584Y-4.9017
X3.6465Y-4.0517
X3.7403Y-6.3017
X3.7715Y-3.4017
X3.834Y-4.8017
X3.959Y-5.6517
X3.9597Y-2.2767
X4.0215Y-3.3017
X4.1465Y-4.1517
X4.209Y-5.5517
X4.2097Y-2.1767
X4.334Y-4.9017
X4.3965Y-4.0517
X4.5215Y-3.4017
X4.584Y-4.8017
X4.709Y-5.6517
X4.7104Y-2.2767
X4.7715Y-3.3017
X4.8965Y-4.1517
X4.959Y-5.5517
X4.9604Y-2.1767
X5.084Y-4.9017
X5.1465Y-4.0517
X5.2715Y-3.4017
X5.334Y-4.8017
X5.459Y-5.6517
X5.5215Y-3.3017
X5.6465Y-2.2767
X5.6465Y-4.1517
X5.709Y-5.5517
X5.834Y-4.9017
X5.8965Y-2.1767
X5.8965Y-4.0517
X6.0215Y-3.4017
X6.084Y-4.8017
X6.209Y-5.6517
X6.2715Y-3.3017
X6.3028Y-6.4017
X6.3965Y-4.1517
X6.3973Y-2.2767
X6.459Y-5.5517
X6.5528Y-6.3017
X6.584Y-4.9017
X6.6465Y-4.0517
X6.6473Y-2.1767
X6.7715Y-3.4017
X6.834Y-4.8017
X6.959Y-5.6517
X7.0215Y-3.3017
X7.1465Y-4.1517
X7.1482Y-2.2767
X7.209Y-5.5517
X7.334Y-4.9017
X7.3965Y-4.0517
X7.3982Y-2.1767
X7.5215Y-3.4017
X7.584Y-4.8017
X7.709Y-5.6517
X7.7715Y-3.3017
X7.8965Y-4.1517
X7.899Y-2.2767
X7.959Y-5.5517
X8.084Y-4.9017
X8.1465Y-4.0517
X8.149Y-2.1767
X8.2715Y-3.4017
X8.334Y-4.8017
X8.459Y-5.6517
X8.5215Y-3.3017
X8.6465Y-4.1517
X8.709Y-5.5517
X8.834Y-4.9017
X8.8345Y-2.2767
X8.8965Y-4.0517
X9.0215Y-3.4017
X9.0215Y-6.4017
X9.084Y-4.8017
X9.0845Y-2.1767
X9.209Y-5.6517
X9.2715Y-3.3017
X9.2715Y-6.3017
X9.3965Y-4.1517
X9.459Y-5.5517
X9.584Y-2.2767
X9.584Y-4.9017
X9.6465Y-4.0517
X9.7715Y-3.4017
X9.7715Y-6.4017
X9.834Y-2.1767
X9.834Y-4.8017
X9.959Y-5.6517
X10.0215Y-3.3017
X10.0215Y-6.3017
X10.1465Y-4.1517
X10.209Y-5.5517
X10.3335Y-2.2767
X10.334Y-4.9017
X10.3965Y-4.0517
X10.5215Y-3.4017
X10.5215Y-6.4017
X10.5835Y-2.1767
X10.584Y-4.8017
X10.7715Y-3.3017
X10.7715Y-6.3017
X10.8965Y-4.1517
X10.9903Y-5.6517
X11.0831Y-2.2767
X11.1465Y-4.0517
X11.2403Y-5.5517
X11.3331Y-2.1767
X11.4583Y-6.5885
X11.5528Y-4.9017
X11.6465Y-3.4017
X11.7083Y-6.4885
X11.8028Y-4.8017
X11.834Y-4.1517
X11.8965Y-3.3017
X12.0215Y-2.2767
X12.084Y-4.0517
X12.209Y-5.8392
X12.209Y-6.5892
X12.2715Y-2.1767
X12.459Y-5.7392
X12.459Y-6.4892
X12.959Y-6.5892
X13.1465Y-2.2767
X13.1465Y-3.4017
X13.1465Y-4.1522
X13.1465Y-4.9027
X13.1465Y-5.6532
X13.209Y-6.4892
X13.3965Y-2.1767
X13.3965Y-3.3017
X13.3965Y-4.0522
X13.3965Y-4.8027
X13.3965Y-5.5532
T3
X1.6703Y-6.0267
X2.6103Y-6.0267
X4.4843Y-6.7767
X8.4213Y-6.7767
X11.2328Y-5.2767
X11.3265Y-3.2267
X12.1728Y-5.2767
X12.2665Y-3.2267
T4
X1.6703Y-5.4267
X2.6103Y-5.4267
X4.4843Y-6.1767
X8.4213Y-6.1767
X11.2328Y-4.6767
X11.3265Y-3.8267
X12.1728Y-4.6767
X12.2665Y-3.8267
T5
X1.6715Y-2.3767
X1.6715Y-3.5017
X1.7653Y-6.5017
X1.859Y-4.2517
X1.9528Y-5.0017
X2.1403Y-5.7517
X2.4215Y-3.5017
X2.609Y-2.3767
X2.7028Y-6.5017
X2.7965Y-4.2517
X2.984Y-5.0017
X3.1715Y-3.5017
X3.359Y-2.3767
X3.359Y-5.7517
X3.5465Y-4.2517
X3.6403Y-6.5017
X3.734Y-5.0017
X3.9215Y-3.5017
X4.109Y-5.7517
X4.1097Y-2.3767
X4.2965Y-4.2517
X4.484Y-5.0017
X4.6715Y-3.5017
X4.859Y-5.7517
X4.8604Y-2.3767
X5.0465Y-4.2517
X5.234Y-5.0017
X5.4215Y-3.5017
X5.609Y-5.7517
X5.7965Y-2.3767
X5.7965Y-4.2517
X5.984Y-5.0017
X6.1715Y-3.5017
X6.359Y-5.7517
X6.4528Y-6.5017
X6.5465Y-4.2517
X6.5473Y-2.3767
X6.734Y-5.0017
X6.9215Y-3.5017
X7.109Y-5.7517
X7.2965Y-4.2517
X7.2982Y-2.3767
X7.484Y-5.0017
X7.6715Y-3.5017
X7.859Y-5.7517
X8.0465Y-4.2517
X8.049Y-2.3767
X8.234Y-5.0017
X8.4215Y-3.5017
X8.609Y-5.7517
X8.7965Y-4.2517
X8.984Y-5.0017
X8.9845Y-2.3767
X9.1715Y-3.5017
X9.1715Y-6.5017
X9.359Y-5.7517
X9.5465Y-4.2517
X9.734Y-2.3767
X9.734Y-5.0017
X9.9215Y-3.5017
X9.9215Y-6.5017
X10.109Y-5.7517
X10.2965Y-4.2517
X10.4835Y-2.3767
X10.484Y-5.0017
X10.6715Y-3.5017
X10.6715Y-6.5017
X11.0465Y-4.2517
X11.1403Y-5.7517
X11.2331Y-2.3767
X11.6083Y-6.6885
X11.7028Y-5.0017
X11.7965Y-3.5017
X11.984Y-4.2517
X12.1715Y-2.3767
X12.359Y-5.9392
X12.359Y-6.6892
X13.109Y-6.6892
X13.2965Y-2.3767
X13.2965Y-3.5017
X13.2965Y-4.2522
X13.2965Y-5.0027
X13.2965Y-5.7532
T0
M30
